<svg id="Layer_1" xmlns="http://www.w3.org/2000/svg" viewBox="-225 357 160 80"><style>.st0{fill:#ff3c36}.st1{fill:#0076ff}.st2{fill:#cc3d49}</style><path class="st0" d="M-154.1 418.6c4.8-6.9 7.6-15.2 7.6-24.2 0-2.2-.2-4.4-.5-6.6h-39.2v20h10.8c0 .5-5.5 5.9-13.9 5.9-9.1 0-19.5-7.2-19.7-18.8-.2-12 10.2-19.9 19.7-19.5 7.8.3 10.7 2.5 15.1 6.8h25.9c-.8-2.9-2.6-7.3-5.8-11.8-.3-.4-.5-.8-.8-1.1-6.4-8.5-17.4-17.1-34.6-17.1-20.2 0-35.8 13.5-40.9 30-.1.2-.1.4-.2.6-1.1 3.7-1.6 7.6-1.6 11.6 0 3.9.5 7.6 1.5 11 3.2 12.1 11.7 22 22.8 27.3.1 0 .2.1.3.1.1 0 .1.1.2.1 5.6 2.6 11.9 4 18.6 4 14.2-.1 26.7-7.1 34.4-17.7 0-.2.1-.4.3-.6"/><path class="st1" d="M-82.8 419.5s7.9-10.3 7.9-23.7c.1-26.3-18.4-43.4-44.1-43.4-14.9 0-27.5 7.2-35.2 17.9 3.2 4.5 5 8.9 5.8 11.8h-11.8c-.6 1.9-1.1 3.8-1.4 5.7h14.5c.3 2.1.5 4.3.5 6.6 0 9-2.8 17.4-7.6 24.2 7.5 10.8 19.9 18.6 35.3 18.6 10.2 0 17.4-4.4 18.7-5.1l2.7 3.6h26.2l-11.5-16.2zm-16-19.1l-2.2-3h-26.5l10.8 15.6c-11.2 2.2-21.8-7.2-21.7-18.1.2-11.2 9.2-19.5 19.9-19.5 11.8 0 23.6 12.8 19.7 25"/><path class="st2" d="M-148.4 382.1c-.8-2.9-2.6-7.3-5.8-11.8-2.6 3.6-4.6 7.6-6 11.8h11.8m1.4 5.7h-14.5c-.1.9-.3 1.7-.4 2.6-.3 6.4.3 9.4.3 9.4.9 6.6 3.5 13.2 7.4 18.8 4.8-6.9 7.6-15.2 7.6-24.2.1-2.3-.1-4.5-.4-6.6"/></svg>