<svg xmlns="http://www.w3.org/2000/svg" viewBox="0 0 68.8 22.9"><path d="M1.9 11C.7 11 0 10.2 0 8.9V6.6h1.1V9c0 .6.2.9.8.9s.7-.3.7-.9V.2h1.1v8.7c.1 1.2-.6 2.1-1.8 2.1zm3.3-.2V.2h3.4v1.1H6.4v3.6H8v1H6.4v3.9h2.2v1.1H5.2zm8.5.1c-.8 0-1.1-.3-1.1-1.2V7c0-.5-.3-.9-.7-.9H11v4.7H9.9V.2H12c1 0 1.8.5 1.8 1.9v2c0 .8-.2 1.3-.9 1.5.7.2.9.8.9 1.5v2.6c0 .3.1.4.3.4v.8h-.4zM12.6 2c0-.5-.2-.8-.6-.8h-1v3.9h.8c.4 0 .7-.3.7-.9V2zm2.6 8.8V.2h3.4v1.1h-2.2v3.6H18v1h-1.6v3.9h2.2v1.1h-3.4zm9.2 0v-8l-.3 1.9-1 6.2H22l-1-6.2-.3-1.9v8.1h-1V.2h1.6l1 6.6.3 1.9.4-1.9.9-6.6h1.6v10.7h-1.1zm4.8-4.2v4.2H28V6.6L26.4.1h1.2l1.1 5 1.1-5H31l-1.8 6.5zm6.5 4.4c-1.2 0-1.9-.8-1.9-2V6.6h1.1V9c0 .6.2.9.8.9s.8-.3.8-.9V.2h1.1v8.7c-.1 1.2-.7 2.1-1.9 2.1zm6-.2l-.3-2.3h-1.5l-.3 2.3h-1.1L40.1.1h1.2l1.6 10.7h-1.2zm-1-8.1l-.6 4.8h1.2l-.6-4.8zm5.2 8.3c-1.2 0-2-.8-2-2.1V.2H45v8.7c0 .7.3 1 .9 1s.9-.3.9-1V.2h1.1v8.7c0 1.2-.9 2.1-2 2.1zm6.9-.2L51 5.4l-.5-1.7v7.1h-1.1V.2h1L52 5.6l.5 1.7V.2h1.1v10.7h-.8zm4.2.2c-1.2 0-2-.9-2-2.2V2.2C55 1 55.8 0 57 0s2 .9 2 2.1v1.7h-1V2c0-.5-.3-.9-.9-.9-.6 0-.9.4-.9.9v7c0 .5.3.9.9.9.6 0 .9-.4.9-.9V7.1h1v1.8c0 1.2-.7 2.1-2 2.1zm3.3-.2V.2h3.4v1.1h-2.2v3.6H63v1h-1.6v3.9h2.2v1.1h-3.3zm6.8-4.2v4.2H66V6.6L64.4.1h1.2l1.1 5 1.1-5h1.1l-1.8 6.5z" fill="#FFF"/><path d="M15.3 16h.7l3.1 6.9h-1l-.9-2h-2.9l-.9 2h-1l2.9-6.9zm1.4 3.9l-1.1-2.5-1 2.5h2.1zm3.3-1.6V18c0-.7.2-1.3.5-1.6s.7-.5 1.1-.5c.2 0 .4 0 .7.1v.9c-.1-.1-.3-.1-.4-.1-.3 0-.6.1-.7.3s-.2.5-.2 1v.3h.8v.8H21v3.7h-1v-3.7h-.6v-.8h.6zm1.9.7l1.7-1.6v.9H25v.8h-1.4v2.2c0 .5.2.8.6.8.3 0 .7-.1 1-.3v.8c-.3.2-.7.3-1.1.3-.4 0-.7-.1-1-.4l-.2-.2c-.1-.1-.1-.2-.1-.4 0-.1-.1-.4-.1-.8v-2l-.8-.1zm8 1.7h-3.2c0 .4.2.8.4 1s.6.4 1 .4c.6 0 1.1-.2 1.6-.5v.9c-.3.2-.5.3-.8.4s-.6.1-.9.1c-.5 0-.9-.1-1.2-.3s-.6-.5-.7-.8c-.2-.3-.3-.7-.3-1.2 0-.7.2-1.2.6-1.7.4-.4.9-.6 1.5-.6s1.1.2 1.4.6.5 1 .5 1.7zm-3.1-.6H29c0-.4-.1-.6-.3-.8s-.4-.3-.8-.3-.6.1-.8.3-.3.5-.3.8zm5.2-1.8v1-.1c.4-.7.9-1 1.3-1 .3 0 .7.2 1 .5l-.5.8c-.3-.3-.6-.4-.9-.4-.3 0-.5.1-.7.4s-.3.6-.3 1v2.3H31v-4.5h1zm4.1 0v.6c.4-.4.8-.7 1.4-.7.3 0 .5.1.8.2.2.1.4.3.5.6.1.3.2.7.2 1.2v2.6h-.9v-2.6c0-.5-.1-.8-.2-1-.1-.2-.4-.3-.7-.3-.4 0-.8.2-1.1.6v3.2h-.9v-4.5h.9zm6.5 0c.7 0 1.3.2 1.7.7.5.4.7 1 .7 1.7 0 .6-.2 1.2-.7 1.6-.5.4-1 .6-1.7.6s-1.2-.2-1.7-.7c-.5-.4-.7-1-.7-1.6 0-.7.2-1.2.7-1.6.4-.5 1-.7 1.7-.7zm-.1.8c-.4 0-.8.1-1 .4s-.5.7-.5 1.1c0 .4.1.8.4 1.1.3.3.6.4 1.1.4.4 0 .8-.1 1.1-.4.3-.3.4-.6.4-1.1 0-.4-.1-.8-.4-1.1-.3-.2-.7-.4-1.1-.4zm5.8-.8c.7 0 1.3.2 1.7.7.5.4.7 1 .7 1.7 0 .6-.2 1.2-.7 1.6-.5.4-1 .6-1.7.6s-1.2-.2-1.7-.7c-.5-.4-.7-1-.7-1.6 0-.7.2-1.2.7-1.6.4-.5 1-.7 1.7-.7zm-.1.8c-.4 0-.8.1-1.1.4s-.4.6-.4 1.1c0 .4.1.8.4 1.1.3.3.6.4 1.1.4.4 0 .8-.1 1.1-.4.3-.3.4-.6.4-1.1 0-.4-.1-.8-.4-1.1-.3-.2-.6-.4-1.1-.4zm4.5-.8v.6c.4-.4.8-.7 1.4-.7.3 0 .5.1.8.2.2.1.4.3.5.6.1.3.2.7.2 1.2v2.6h-.9v-2.6c0-.5-.1-.8-.2-1-.1-.2-.4-.3-.7-.3-.4 0-.8.2-1.1.6v3.2h-.9v-4.5h.9z" fill="#D0D2D3"/></svg>