<svg xmlns="http://www.w3.org/2000/svg" viewBox="0 0 68.8 25"><path d="M10.1 10.7H8V0h2.1c1 0 1.8.5 1.8 1.9v1.8c0 .8-.3 1.3-.9 1.5.7.2.9.8.9 1.6v2c0 1.4-.8 1.9-1.8 1.9zm.6-8.9c0-.5-.2-.8-.6-.8h-.9v3.7h.8c.5 0 .8-.3.8-.9v-2zm.1 4.8c0-.5-.3-.9-.8-.9h-.8v3.8h1c.4 0 .6-.3.6-.8V6.6zm6.3 4.2c-.8 0-1.1-.3-1.1-1.2V6.9c0-.6-.2-.9-.7-.9h-.9v4.7h-1.2V0h2.1c1 0 1.8.5 1.8 1.9v2c0 .8-.2 1.3-.9 1.5.7.2.9.8.9 1.5v2.6c0 .3.1.4.3.4v.8h-.3zm-1.1-9c0-.5-.2-.8-.6-.8h-.9v4h.8c.4 0 .7-.4.7-.9V1.8zm2.6 8.9V0h1.2v10.7h-1.2zm5.4 0l-.3-2.3h-1.5l-.3 2.3h-1.1L22.4 0h1.2l1.6 10.7H24zm-1-8.2l-.6 4.8h1.2L23 2.5zm6.6 8.2l-1.8-5.4-.5-1.7v7.1h-1.1V0h1l1.6 5.5.5 1.7V0h1.1v10.7h-.8zm9.1 0V2.6l-.3 1.9-1 6.2h-1.1l-1-6.2-.3-1.9v8.1h-1V0h1.6l1 6.6.4 1.9.3-1.9.9-6.6h1.6v10.7h-1.1zm5.3 0l-.3-2.3h-1.5l-.3 2.3h-1.1L42.4 0h1.2l1.6 10.7H44zm-1-8.2l-.6 4.8h1.2L43 2.5zm4.1 7.1h2.5v1.1h-3.8v-.6l2.6-8.9H46V0h3.8v.6l-2.7 9zm4.6 0h2.5v1.1h-3.8v-.6L53 1.2h-2.5V0h3.8v.6l-2.6 9zm6.5 1.1l-.3-2.3h-1.5l-.3 2.3H55L56.6 0h1.2l1.6 10.7h-1.2zm-1-8.2l-.6 4.8h1.2l-.6-4.8z" fill="#FFF"/><path d="M22.2 15.8h.9v6.8h-1v-5.3L20 20h-.2l-2.1-2.6v5.3h-1v-6.8h.9l2.3 2.8 2.3-2.9zm4.6 2.4c.7 0 1.3.2 1.7.7.5.4.7 1 .7 1.7 0 .6-.2 1.2-.7 1.6-.5.4-1 .6-1.7.6s-1.2-.2-1.7-.7c-.5-.4-.7-1-.7-1.6 0-.7.2-1.2.7-1.6.4-.5 1-.7 1.7-.7zm-.1.8c-.4 0-.8.1-1 .4s-.4.6-.4 1.1c0 .4.1.8.4 1.1.3.3.6.4 1.1.4.4 0 .8-.1 1.1-.4.3-.3.4-.6.4-1.1 0-.4-.1-.8-.4-1.1s-.7-.4-1.2-.4zm4.6-.8v1-.1c.4-.7.9-1 1.3-1 .3 0 .7.2 1 .5l-.5.8c-.3-.3-.6-.4-.9-.4-.3 0-.5.1-.7.4s-.3.6-.3 1v2.3h-.9v-4.5h1zm4.1 0v.6c.4-.4.8-.7 1.4-.7.3 0 .5.1.8.2.2.1.4.3.5.6.1.3.2.7.2 1.2v2.6h-.9v-2.6c0-.5-.1-.8-.2-1-.1-.2-.4-.3-.7-.3-.4 0-.8.2-1.1.6v3.2h-.9v-4.5h.9zm4.8-1.9c.1 0 .3.1.4.2.1.1.2.2.2.4 0 .1-.1.3-.2.4-.1.1-.2.2-.4.2-.1 0-.3-.1-.4-.2-.1-.1-.2-.2-.2-.4 0-.1.1-.3.2-.4.1-.2.2-.2.4-.2zm-.5 1.9h.9v4.5h-.9v-4.5zm3.3 0v.6c.4-.4.8-.7 1.4-.7.3 0 .5.1.8.2.2.1.4.3.5.6.1.3.2.7.2 1.2v2.6H45v-2.6c0-.5-.1-.8-.2-1-.1-.2-.4-.3-.7-.3-.4 0-.8.2-1.1.6v3.2h-.9v-4.5h.9zm4.1 1.5c0-.5.2-.9.5-1.1.3-.3.8-.4 1.4-.4h1.9v.7H50c.2.2.3.3.4.5s.1.3.1.5-.1.5-.2.7c-.1.2-.3.4-.5.5-.2.1-.6.2-1 .3-.3 0-.5.2-.5.3 0 .1.1.2.2.3.1.1.4.1.7.2.5.1.9.2 1.1.3.2.1.3.2.4.3.2.2.3.5.3.8 0 .4-.2.8-.6 1-.4.3-.9.4-1.5.4s-1.2-.1-1.5-.4c-.4-.3-.6-.6-.6-1 0-.6.4-1 1.1-1.2-.3-.2-.4-.4-.4-.6 0-.1.1-.3.2-.4.1-.1.3-.2.5-.3-.8-.3-1.1-.7-1.1-1.4zm1.4 3.2c-.3 0-.5.1-.7.2-.2.1-.3.3-.3.5 0 .5.4.7 1.2.7.4 0 .7-.1.9-.2.2-.1.3-.3.3-.5s-.1-.4-.4-.5c-.2-.2-.5-.2-1-.2zm.2-4c-.2 0-.4.1-.6.2s-.3.4-.3.6c0 .2.1.4.2.6.2.2.4.2.6.2.2 0 .5-.1.6-.2.2-.2.3-.3.3-.6 0-.2-.1-.4-.3-.6s-.2-.2-.5-.2z" fill="#D0D2D3"/></svg>