<svg xmlns="http://www.w3.org/2000/svg" viewBox="0 0 68.8 25"><path d="M12.2 10.7h-1.1l-.8-6.9-.9 6.9H8.2L7 0h1.1l.7 7.7 1-7.7h.9l.9 7.7.9-7.7h1.1l-1.4 10.7zm2.4 0V0h1.2v10.7h-1.2zm2.7 0V0h1.2v9.6h2.2v1.1h-3.4zm4.4 0V0h1.2v9.6H25v1.1h-3.3zm11.2 0V2.6l-.3 1.9-1 6.2h-1.1l-1-6.2-.3-1.9v8.1h-1V0h1.6l1 6.6.3 1.9.3-1.9 1-6.6H34v10.7h-1.1zm5.3 0l-.3-2.3h-1.5l-.3 2.3H35L36.6 0h1.2l1.6 10.7h-1.2zm-1-8.2l-.6 4.8h1.2l-.6-4.8zm3.2 8.2V0h1.2v9.6h2.2v1.1h-3.4zm7.9 0l-1.8-5.4-.5-1.7v7.1h-1.1V0h1l1.6 5.5.5 1.7V0h1.1v10.7h-.8zm5 0L53 8.4h-1.5l-.3 2.3h-1.1L51.7 0h1.2l1.6 10.7h-1.2zm-1-8.2l-.6 4.8h1.2l-.6-4.8zm5.1-1.4v9.6h-1.1V1.1h-1.4V0h3.9v1.1h-1.4zm2.4 9.6V0H61v10.7h-1.2z" fill="#FFF"/><path d="M28.7 15.8h.9v6.8h-.8l-4.6-5.3v5.3h-.9v-6.8h.8l4.6 5.3v-5.3zm2.9.5c.1 0 .3.1.4.2s.2.2.2.4c0 .1-.1.3-.2.4s-.2.2-.4.2c-.1 0-.3-.1-.4-.2-.1-.1-.2-.2-.2-.4 0-.1.1-.3.2-.4.2-.2.3-.2.4-.2zm-.4 1.9h.9v4.5h-.9v-4.5zm2.1 1.5c0-.5.2-.9.5-1.1.4-.3.8-.4 1.4-.4h1.9v.7h-.9c.2.2.3.3.4.5s.1.3.1.5-.1.5-.2.7c-.1.2-.3.4-.5.5s-.6.2-1 .3c-.3 0-.5.2-.5.3 0 .1.1.2.2.3.1.1.4.1.7.2.6.1.9.2 1.1.3s.3.2.4.3c.2.2.3.5.3.8 0 .4-.2.8-.6 1s-.9.4-1.6.4c-.6 0-1.2-.1-1.5-.4-.4-.3-.6-.6-.6-1 0-.6.4-1 1.1-1.2-.3-.2-.4-.4-.4-.6 0-.1.1-.3.2-.4s.3-.2.5-.3c-.6-.3-1-.7-1-1.4zm1.5 3.2c-.3 0-.5.1-.7.2s-.3.3-.3.5c0 .5.4.7 1.2.7.4 0 .7-.1.9-.2.2-.1.3-.3.3-.5s-.1-.4-.4-.5c-.2-.2-.6-.2-1-.2zm.2-4c-.2 0-.4.1-.6.2s-.3.4-.3.6c0 .2.1.4.2.6.2.2.4.2.6.2.3 0 .5-.1.6-.2.2-.2.3-.3.3-.6 0-.2-.1-.4-.3-.6s-.3-.2-.5-.2zm3-3.1h.9v2.9c.4-.5.8-.7 1.4-.7.3 0 .6.1.8.2s.4.4.5.6c.1.3.2.7.2 1.2v2.6h-.9v-2.8c0-.3-.1-.6-.2-.8-.2-.2-.4-.3-.6-.3-.2 0-.4.1-.6.2s-.4.3-.6.5v3.2H38v-6.8zm4.6 3.1l1.7-1.6v.9h1.4v.8h-1.4v2.2c0 .5.2.8.6.8.3 0 .7-.1 1-.3v.8c-.3.2-.7.3-1.1.3-.4 0-.7-.1-1-.4l-.2-.2c-.1-.1-.1-.2-.1-.4 0-.1-.1-.4-.1-.8v-2l-.8-.1z" fill="#D0D2D3"/></svg>