<svg xmlns="http://www.w3.org/2000/svg" xmlns:xlink="http://www.w3.org/1999/xlink" viewBox="0 0 137.8 31.7"><defs><path id="a" d="M0 0h137.8v31.7H0z"/></defs><clipPath id="b"><use xlink:href="#a" overflow="visible"/></clipPath><path clip-path="url(#b)" fill="none" stroke="#E62933" stroke-width="1.765" d="M.3 30.8h137.2"/><g clip-path="url(#b)" fill="#FFF"><path d="M7.5 25.2V13.6l-.4 2.7-1.4 9H4.2l-1.5-9-.4-2.7v11.7H.9V9.8h2.4l1.4 9.5L5 22l.4-2.7 1.4-9.5H9v15.4H7.5zm7-6.1v6.1h-1.7v-6.1l-2.4-9.3h1.7l1.6 7.2 1.6-7.2H17l-2.5 9.3z"/></g><g clip-path="url(#b)" fill="#FFF"><path d="M16.8 25c.6 0 1.9-.2 2.4-.3.9-.3 1.2-.9 1.4-1.6l5-18.1c.2-.7.2-1.3-.5-1.7-.6-.2-1.7-.4-2.2-.5l.1-.1h10.1c4.4 0 6.7 1.8 6.7 5-.1 4.6-4.7 7.2-11 7.2h-1.6L24.9 23c-.2.7-.1 1.2.6 1.6.4.2 1.7.4 2.3.5v.2h-11V25zm12-10.5c4 0 6.5-2.7 6.6-6.7 0-3.1-1.3-4.8-3.7-4.8h-1.3l-3.2 11.5h1.6zm8.2 5.8c0-3.9 3.7-10.6 9.7-10.6 1.8 0 3.3.9 3.3 2.5 0 3.2-3.3 5.1-8.6 5.7-.3 1.2-.4 2.7-.4 3.8 0 1.8.7 3 2.1 3 2.5 0 4.5-2.1 5.8-4.6l.3.1c-2 3.8-4.4 5.3-6.8 5.3-2.7.2-5.4-1.2-5.4-5.2zm9.9-8.1c.1-1.5-.4-2.1-1.1-2.1-1.7 0-3.6 3.8-4.5 7.6 4.1-.5 5.5-3.4 5.6-5.5zm3.5 8.3c0-4.7 4.4-10.7 9.2-10.7 1.6 0 2.6 1.4 2.8 2.6h.1l.8-2.4H67l-3.8 11c-.6 1.6-.8 2.6-.9 3.2 0 .7.3.9.8.9 1.5 0 2.9-1.8 4-4.6l.3.1c-1.2 2.9-2.5 5-4.9 5-1.8 0-3.3-1-3-3.5h-.1c-1.2 2.2-3 3.6-4.8 3.6-2 0-4.2-1.4-4.2-5.2zm9.1.9l2.7-8.3c-.3-1.8-1.1-2.7-2.3-2.7-2.7 0-5.7 7.4-5.6 12.1 0 1.6.5 2.2 1.4 2.2 1.2 0 2.5-1.1 3.8-3.3zm16.7 1.4c0-1.4.9-3.6.9-4.6 0-1.1-.4-1.7-1.6-1.7-.3 0-.7 0-1.1.1l-2.8 8.6h-3.7l6.5-20.5c.4-1.1.5-1.8.5-2.2 0-.7-.6-1-1.3-1.1-.9-.1-1.3-.1-2.1-.1v-.2l8-.3-5 15.5h1.2c3.5 0 2.8-6.5 7.2-6.5 1.9 0 2.6 1 2.6 2.2s-.9 2.4-2.2 2.4c-.9 0-1.7-.6-1.7-1.3 0-2 2-1.6 2.2-2.4-.2-.5-.5-.7-1.1-.7-2.4 0-2.1 5.3-6.1 6.3 2 .3 3.9 1.1 3.9 3.1 0 1.6-.8 3.5-.8 4.5 0 .7.2 1 .9 1 1.6 0 2.9-1.7 3.9-4.5l.4.1c-1.2 2.9-2.4 5-5 5-2.2.1-3.7-.7-3.7-2.7z"/></g><defs><path id="c" d="M0 0h137.8v31.7H0z"/></defs><clipPath id="d"><use xlink:href="#c" overflow="visible"/></clipPath><g clip-path="url(#d)" fill="#FFF"><path d="M95 25.2V13.6l-.4 2.7-1.4 9h-1.5l-1.5-9-.4-2.7v11.7h-1.5V9.8h2.4l1.4 9.5.4 2.7.4-2.7 1.4-9.5h2.3v15.4H95zm6.7.3c-1.8 0-3-1.3-3-3.2v-9.4c0-1.8 1.2-3.2 3-3.2s3 1.4 3 3.2v9.4c-.1 1.8-1.2 3.2-3 3.2zm1.3-12.9c0-.8-.5-1.4-1.3-1.4-.9 0-1.3.6-1.3 1.4v9.9c0 .8.4 1.4 1.3 1.4s1.3-.6 1.3-1.4v-9.9zm10.4 12.6V13.6l-.4 2.7-1.4 9h-1.5l-1.5-9-.4-2.7v11.7h-1.5V9.8h2.4l1.4 9.5.4 2.7.4-2.7 1.4-9.5h2.3v15.4h-1.6zm3.9 0V9.8h4.9v1.5H119v5.1h2.3V18H119v5.7h3.2v1.5h-4.9zm11.7 0l-2.6-7.8-.7-2.5v10.3h-1.6V9.8h1.5l2.4 7.9.7 2.5V9.8h1.6v15.4H129zm6.6-13.8v13.8H134V11.4h-2.1V9.8h5.7v1.6h-2z"/></g></svg>