<svg xmlns="http://www.w3.org/2000/svg" xmlns:xlink="http://www.w3.org/1999/xlink" viewBox="0 0 74.1 30.1"><defs><path id="a" d="M0 0h74.1v30.1H0z"/></defs><clipPath id="b"><use xlink:href="#a" overflow="visible"/></clipPath><g clip-path="url(#b)"><defs><path id="c" d="M0 0h74.1v30.1H0z"/></defs><clipPath id="d"><use xlink:href="#c" overflow="visible"/></clipPath><g opacity=".5" clip-path="url(#d)"><defs><path id="e" d="M-9-6.9h92.1v38H-9z"/></defs><clipPath id="f"><use xlink:href="#e" overflow="visible"/></clipPath><path clip-path="url(#f)" fill="#231F20" d="M11.1.1L0 15.7l10.3 14.4h63.8V.1z"/></g></g><g clip-path="url(#b)" fill="#FFF"><path d="M30 21.3l-2-6.1-.6-1.9v8h-1.2v-12h1.2l1.9 6.2.5 1.9V9.3H31v12h-1zm2.6 0v-12H34v12h-1.4zm7 0l-.3-.7c-.3.6-.9.9-1.6.9-1.2 0-2.1-.9-2.1-2.5v-7.4c0-1.4.9-2.5 2.3-2.5s2.2 1 2.2 2.5v1.6h-1.2v-1.8c0-.5-.3-1-1-1s-1 .5-1 1v7.8c0 .6.3 1.1 1 1.1s1-.5 1-1.1v-2.7h-1v-1.1h2.2v6h-.5zm5.4 0V16h-2v5.3h-1.3v-12H43v5.4h2V9.3h1.3v12H45zm5.4-10.8v10.8h-1.3V10.5h-1.6V9.3h4.4v1.2h-1.5z"/></g></svg>