<svg xmlns="http://www.w3.org/2000/svg" xmlns:xlink="http://www.w3.org/1999/xlink" viewBox="0 0 172.1 131.7"><defs><path id="a" d="M0 0h172.1v131.7H0z"/></defs><clipPath id="b"><use xlink:href="#a" overflow="visible"/></clipPath><g clip-path="url(#b)" fill="#FFF"><path d="M8.6 39.6H1.9V6.3h6.6c3.1 0 5.5 1.5 5.5 6v5.5c0 2.5-.8 4.2-2.8 4.8 2.1.7 2.9 2.4 2.9 4.9v6.2c0 4.4-2.4 5.9-5.5 5.9zM10.4 12c0-1.5-.6-2.3-1.9-2.3h-3v11.5H8c1.5 0 2.4-1 2.4-2.7V12zm.1 14.9c0-1.7-.9-2.7-2.4-2.7H5.5v12h3c1.3 0 2-.8 2-2.3v-7zm19.9 13c-2.4 0-3.4-.8-3.4-3.6v-8.6c0-1.7-.8-2.8-2.3-2.8H22v14.7h-3.7V6.3h6.6c3.1 0 5.6 1.5 5.6 6v6.4c0 2.5-.7 4.1-2.8 4.8 2.1.7 2.9 2.6 2.9 4.7v8.1c0 .9.2 1.3.9 1.3v2.5h-1.1zM26.9 12c0-1.5-.7-2.3-2-2.3H22v12.1h2.6c1.4 0 2.3-1 2.3-2.8v-7zM35 39.6V6.3h3.7v33.3H35zm16.8 0l-.9-7.2h-4.6l-1 7.2h-3.4L47 6.3h3.8l4.9 33.3h-3.9zm-3.1-25.4l-2 14.9h3.7l-1.7-14.9zm20.7 25.4l-5.7-16.9-1.6-5.4v22.2h-3.4V6.3H62l5.2 17.1 1.5 5.4V6.3h3.4v33.3h-2.7zm28.4 0V14.4l-.8 5.8-3.1 19.4h-3.4l-3.1-19.4-.8-5.8v25.2h-3.2V6.3h5.2l3 20.6.8 5.8.8-5.8 3-20.6h5v33.3h-3.4zm16.6 0l-.9-7.2h-4.6l-1 7.2h-3.4l5-33.3h3.8l4.8 33.3h-3.7zm-3.1-25.4l-2 14.8h3.7l-1.7-14.8zm12.8 22h7.8v3.4h-11.8v-1.9l8.2-28h-7.8V6.3h11.8v1.9l-8.2 28zm14.4 0h7.8v3.4h-11.8v-1.9l8.2-28H135V6.3h11.8v1.9l-8.3 28zm20.2 3.4l-.9-7.2h-4.6l-1 7.2h-3.4l5-33.3h3.8l4.9 33.3h-3.8zm-3.1-25.4l-2 14.9h3.7l-1.7-14.9z"/></g><defs><path id="c" d="M0 0h172.1v131.7H0z"/></defs><clipPath id="d"><use xlink:href="#c" overflow="visible"/></clipPath><g clip-path="url(#d)" fill="#FFF"><path d="M1.5 50h7.3v1.7H3.5v3.8h5.3v1.7H3.5v6.4h-2V50zm10.4.8c.3 0 .5.1.8.3s.3.4.3.7c0 .3-.1.5-.3.7s-.5.3-.8.3c-.3 0-.5-.1-.7-.3s-.3-.5-.3-.7c0-.3.1-.5.3-.7s.5-.3.7-.3zm-.8 3.8h1.8v9h-1.8v-9zm3.4 1.4l3.3-3.3v1.9h2.8v1.6h-2.8v4.4c0 1 .4 1.5 1.3 1.5.6 0 1.3-.2 2-.6v1.7c-.7.4-1.4.6-2.2.6-.8 0-1.5-.2-2-.7-.2-.1-.3-.3-.4-.5s-.2-.4-.3-.7-.1-.8-.1-1.7v-4h-1.6V56zm10.1-1.4v1.1c.8-.9 1.7-1.3 2.7-1.3.6 0 1.1.1 1.6.4s.8.7 1.1 1.2.4 1.3.4 2.4v5.1h-1.8v-5.1c0-.9-.1-1.6-.4-2s-.7-.6-1.4-.6c-.8 0-1.6.4-2.1 1.3v6.4h-1.8v-9h1.7zm16.3 4.7h-6.3c0 .9.3 1.5.9 2.1s1.2.8 2.1.8c1.2 0 2.3-.4 3.2-1.1v1.7c-.5.4-1.1.6-1.6.8s-1.2.2-1.9.2c-1 0-1.8-.2-2.4-.6s-1.1-1-1.5-1.7-.6-1.5-.6-2.4c0-1.4.4-2.5 1.2-3.3s1.8-1.3 3-1.3 2.1.4 2.9 1.2 1.1 2 1.1 3.3v.3zm-6.3-1.1h4.5c0-.7-.3-1.3-.6-1.6s-.9-.6-1.5-.6-1.2.2-1.6.6-.7.9-.8 1.6zm8.2 4.8v-2c.5.4 1 .6 1.5.9s1 .3 1.3.3c.4 0 .7-.1 1-.3s.4-.4.4-.7c0-.3-.1-.5-.3-.6s-.5-.4-1.1-.7c-1.1-.6-1.9-1.2-2.3-1.6s-.5-.9-.5-1.5c0-.7.3-1.3.8-1.7s1.2-.7 2.1-.7c.9 0 1.8.2 2.7.7v1.8c-1.1-.6-1.9-1-2.6-1-.3 0-.6.1-.8.2s-.3.3-.3.6c0 .2.1.4.3.6.2.2.5.4 1 .7l.6.4c1.5.8 2.2 1.8 2.2 2.8 0 .7-.3 1.3-.9 1.8s-1.3.7-2.2.7c-.5 0-1-.1-1.4-.2s-.9-.2-1.5-.5zm8.1 0v-2c.5.4 1 .6 1.5.9s1 .3 1.3.3c.4 0 .7-.1 1-.3s.4-.4.4-.7c0-.3-.1-.5-.3-.6s-.5-.4-1.1-.7c-1.1-.6-1.9-1.2-2.3-1.6s-.5-.9-.5-1.5c0-.7.3-1.3.8-1.7s1.2-.7 2.1-.7c.9 0 1.8.2 2.7.7v1.8c-1.1-.6-1.9-1-2.6-1-.3 0-.6.1-.8.2s-.3.3-.3.6c0 .2.1.4.3.6.2.2.5.4 1 .7l.6.4c1.5.8 2.2 1.8 2.2 2.8 0 .7-.3 1.3-.9 1.8s-1.3.7-2.2.7c-.5 0-1-.1-1.4-.2s-.9-.2-1.5-.5zm14.6.6V49.9h4.3c1.3 0 2.3.4 3.1 1.1s1.2 1.6 1.2 2.8c0 .8-.2 1.5-.6 2.1s-.9 1.1-1.6 1.3-1.7.4-3 .4h-1.4v5.9h-2zm4-11.9h-2V56h2.1c.8 0 1.4-.2 1.8-.6s.6-.9.6-1.6c.1-1.4-.8-2.1-2.5-2.1zm8.4 2.9v2.1l.1-.2c.9-1.4 1.7-2.1 2.6-2.1.7 0 1.4.3 2.1 1l-1 1.6c-.6-.6-1.2-.9-1.7-.9-.6 0-1.1.3-1.5.8s-.6 1.2-.6 1.9v4.7h-1.8v-9h1.8zm10.2 0c1.4 0 2.5.4 3.4 1.3s1.4 2 1.4 3.3c0 1.3-.5 2.4-1.4 3.2s-2.1 1.3-3.5 1.3c-1.3 0-2.5-.4-3.4-1.3s-1.4-2-1.4-3.3c0-1.3.5-2.4 1.4-3.3s2.1-1.2 3.5-1.2zm-.1 1.6c-.9 0-1.6.3-2.1.8s-.8 1.3-.8 2.1c0 .9.3 1.6.8 2.1s1.3.8 2.2.8c.9 0 1.6-.3 2.1-.8s.8-1.2.8-2c0-.9-.3-1.6-.9-2.1s-1.2-.9-2.1-.9zm7.4-1.6v-.5c0-1.4.3-2.5.9-3.2.6-.7 1.4-1.1 2.2-1.1.4 0 .8.1 1.3.2v1.7c-.3-.1-.6-.2-.8-.2-.7 0-1.2.2-1.4.6-.3.4-.4 1-.4 2v.5h1.6v1.6h-1.6v7.4h-1.8v-7.4h-1.3v-1.6h1.3zm12.7 4.7h-6.3c0 .9.3 1.5.9 2.1.5.5 1.2.8 2.1.8 1.2 0 2.3-.4 3.2-1.1v1.7c-.5.4-1.1.6-1.6.8s-1.2.2-1.9.2c-1 0-1.8-.2-2.4-.6-.6-.4-1.1-1-1.5-1.7-.4-.7-.6-1.5-.6-2.4 0-1.4.4-2.5 1.2-3.3.8-.9 1.8-1.3 3-1.3s2.1.4 2.9 1.2c.7.8 1.1 2 1.1 3.3v.3zm-6.3-1.1h4.5c0-.7-.3-1.3-.6-1.6-.4-.4-.9-.6-1.5-.6s-1.2.2-1.6.6c-.4.3-.7.9-.8 1.6zM110 63v-2c.5.4 1 .6 1.5.9s1 .3 1.3.3c.4 0 .7-.1 1-.3s.4-.4.4-.7c0-.3-.1-.5-.3-.6s-.5-.4-1.1-.7c-1.1-.6-1.9-1.2-2.3-1.6s-.5-.9-.5-1.5c0-.7.3-1.3.8-1.7s1.2-.7 2.1-.7c.9 0 1.8.2 2.7.7v1.8c-1.1-.6-1.9-1-2.6-1-.3 0-.6.1-.8.2s-.3.3-.3.6c0 .2.1.4.3.6.2.2.5.4 1 .7l.6.4c1.5.8 2.2 1.8 2.2 2.8 0 .7-.3 1.3-.9 1.8s-1.3.7-2.2.7c-.5 0-1-.1-1.4-.2s-.9-.2-1.5-.5zm8.1 0v-2c.5.4 1 .6 1.5.9.5.2 1 .3 1.3.3.4 0 .7-.1 1-.3.3-.2.4-.4.4-.7 0-.3-.1-.5-.3-.6-.2-.2-.5-.4-1.1-.7-1.1-.6-1.9-1.2-2.2-1.6-.4-.5-.5-.9-.5-1.5 0-.7.3-1.3.8-1.7s1.2-.7 2.1-.7c.9 0 1.8.2 2.7.7v1.8c-1.1-.6-1.9-1-2.6-1-.3 0-.6.1-.8.2-.2.1-.3.3-.3.6 0 .2.1.4.3.6.2.2.5.4 1 .7l.6.4c1.5.8 2.2 1.8 2.2 2.8 0 .7-.3 1.3-.9 1.8s-1.3.7-2.2.7c-.5 0-1-.1-1.4-.2-.5 0-1-.2-1.6-.5zm9.4-12.2c.3 0 .5.1.8.3s.3.4.3.7c0 .3-.1.5-.3.7s-.5.3-.8.3c-.3 0-.5-.1-.7-.3s-.3-.5-.3-.7c0-.3.1-.5.3-.7s.4-.3.7-.3zm-.9 3.8h1.8v9h-1.8v-9zm9.1 0c1.4 0 2.5.4 3.4 1.3.9.9 1.4 2 1.4 3.3 0 1.3-.5 2.4-1.4 3.2s-2.1 1.3-3.5 1.3c-1.3 0-2.5-.4-3.4-1.3-.9-.9-1.4-2-1.4-3.3 0-1.3.5-2.4 1.4-3.3.9-.8 2.1-1.2 3.5-1.2zm-.1 1.6c-.9 0-1.6.3-2.1.8s-.8 1.3-.8 2.1c0 .9.3 1.6.8 2.1.6.5 1.3.8 2.2.8.9 0 1.6-.3 2.1-.8s.8-1.3.8-2.1c0-.9-.3-1.6-.9-2.1-.5-.5-1.3-.8-2.1-.8zm9-1.6v1.1c.8-.9 1.7-1.3 2.7-1.3.6 0 1.1.1 1.6.4s.8.7 1.1 1.2.4 1.3.4 2.4v5.1h-1.8v-5.1c0-.9-.1-1.6-.4-2s-.7-.6-1.4-.6c-.8 0-1.6.4-2.1 1.3v6.4h-1.8v-9h1.7zm14.2 3.6V62c0 .3.1.5.3.5.2 0 .6-.2 1-.5v1.1c-.4.3-.7.4-1 .5s-.5.1-.8.1c-.8 0-1.2-.3-1.3-.9-.8.6-1.6.9-2.4.9-.6 0-1.1-.2-1.6-.6-.4-.4-.6-.9-.6-1.6 0-.6.2-1.1.6-1.5.4-.4 1-.8 1.7-1.1l2.3-.8v-.5c0-1.1-.5-1.6-1.6-1.6-1 0-1.9.5-2.8 1.5v-1.9c.7-.8 1.7-1.2 3-1.2 1 0 1.7.3 2.3.8.2.2.4.4.5.6s.3.5.3.8c.1.3.1.8.1 1.6zm-1.7 3.6v-2.7l-1.2.5c-.6.2-1 .5-1.3.7-.3.2-.4.5-.4.9s.1.7.4.9c.2.2.5.4.9.4.6 0 1.1-.2 1.6-.7zm5.1-11.8h1.8v13.6h-1.8V50z"/></g><g clip-path="url(#d)" fill="#FFF"><path d="M5.6 82.3h.8v6.1h-.8l-4.1-4.7v4.7H.7v-6.1h.7l4.1 4.8v-4.8zm4.5 3.7v1.7c0 .1 0 .2.1.2s.2-.1.5-.2v.5c-.2.1-.3.2-.4.2-.1 0-.2.1-.3.1-.3 0-.5-.1-.6-.4-.3.3-.7.4-1.1.4-.3 0-.5-.1-.7-.3-.2-.2-.3-.4-.3-.7 0-.3.1-.5.3-.7.2-.2.4-.4.8-.5l1-.4v-.2c0-.5-.2-.7-.7-.7-.4 0-.9.2-1.3.7v-.9c.3-.4.8-.5 1.3-.5.4 0 .8.1 1.1.3.1.1.2.2.2.3.1.1.1.2.1.4v.7zm-.8 1.7v-1.2l-.5.2c-.3.1-.5.2-.6.3-.1.1-.2.2-.2.4s.1.3.2.4.3.2.4.2c.3 0 .5-.1.7-.3zm5.4-2.2v2.9h-.8v-2.2c0-.4-.1-.8-.2-.9-.1-.2-.3-.3-.6-.3-.2 0-.3 0-.5.1-.1.1-.3.2-.5.4v2.9h-.8v-4h.8v.5c.4-.4.8-.6 1.2-.6.5 0 .9.2 1.2.7.4-.5.9-.7 1.3-.7s.7.1 1 .4c.3.3.4.7.4 1.3v2.4h-.8V86c0-.3-.1-.6-.2-.8s-.3-.2-.5-.2c-.4 0-.7.2-1 .5zm8.7.5v1.7c0 .1 0 .2.1.2s.2-.1.5-.2v.5c-.2.1-.3.2-.4.2-.1 0-.2.1-.3.1-.3 0-.5-.1-.6-.4-.3.3-.7.4-1.1.4-.3 0-.5-.1-.7-.3-.2-.2-.3-.4-.3-.7 0-.3.1-.5.3-.7.2-.2.4-.4.8-.5l1-.4v-.2c0-.5-.2-.7-.7-.7-.4 0-.9.2-1.3.7v-.9c.3-.4.8-.5 1.3-.5.4 0 .8.1 1.1.3.1.1.2.2.2.3.1.1.1.2.1.4v.7zm-.8 1.7v-1.2l-.5.2c-.3.1-.5.2-.6.3-.1.1-.2.2-.2.4s.1.3.2.4.2.2.4.2c.3 0 .5-.1.7-.3zm4.8-5.4h.8v6.1h-1.7c-.6 0-1.1-.2-1.4-.6-.4-.4-.5-.9-.5-1.5s.2-1.1.6-1.5c.4-.4.9-.6 1.4-.6.3 0 .6.1.9.2v-2.1zm0 5.5v-2.6c-.2-.1-.5-.2-.8-.2-.4 0-.7.1-1 .4s-.4.6-.4 1.1c0 .4.1.7.3 1 .1.1.3.2.4.3s.4.1.7.1h.8zm2.3-5.1c.1 0 .2 0 .3.1s.1.2.1.3c0 .1 0 .2-.1.3s-.2.1-.3.1c-.1 0-.2 0-.3-.1-.1-.1-.1-.2-.1-.3 0-.1 0-.2.1-.3.1 0 .2-.1.3-.1zm-.4 1.7h.8v4h-.8v-4zm4.4-2.1h.8v2.4c.3-.3.7-.4 1.1-.4.5 0 .9.2 1.3.6s.5.9.5 1.5c0 .7-.2 1.2-.6 1.6-.4.4-.9.6-1.6.6-.3 0-.5 0-.8-.1-.3-.1-.5-.1-.7-.2v-6zm.8 3.2v2.2c.3.1.6.1.8.1.4 0 .6-.1.9-.4.2-.3.3-.6.3-1s-.1-.7-.3-1-.5-.4-.8-.4c-.2.1-.6.2-.9.5zm7.2 1h-2.8c0 .4.1.7.4.9s.5.3.9.3c.5 0 1-.2 1.5-.5v.8c-.2.2-.5.3-.7.4-.2.1-.5.1-.9.1s-.8-.1-1.1-.3c-.3-.2-.5-.4-.7-.7-.2-.3-.2-.7-.2-1.1 0-.6.2-1.1.5-1.5.3-.4.8-.6 1.4-.6.5 0 1 .2 1.3.6s.5.9.5 1.5v.1zm-2.8-.5h2c0-.3-.1-.6-.3-.7s-.4-.3-.6-.3-.5.1-.7.3c-.2.2-.3.4-.4.7zm6.2 0v1.7c0 .1 0 .2.1.2s.2-.1.5-.2v.5c-.2.1-.3.2-.4.2-.1 0-.2.1-.3.1-.3 0-.5-.1-.6-.4-.3.3-.7.4-1.1.4-.3 0-.5-.1-.7-.3-.2-.2-.3-.4-.3-.7 0-.3.1-.5.3-.7.2-.2.4-.4.8-.5l1-.4v-.2c0-.5-.2-.7-.7-.7-.4 0-.9.2-1.3.7v-.9c.3-.4.8-.5 1.3-.5.4 0 .8.1 1.1.3.1.1.2.2.2.3.1.1.1.2.1.4v.7zm-.8 1.7v-1.2l-.5.2c-.3.1-.5.2-.6.3-.1.1-.2.2-.2.4s.1.3.2.4.2.2.4.2c.3 0 .5-.1.7-.3zm4-3.3h1.5v6.1H49v-2.1c-.3.1-.6.1-.9.1-.6 0-1.1-.2-1.4-.6-.4-.4-.6-.9-.6-1.5s.2-1.1.6-1.5 1-.5 1.6-.5zm.8 3.3v-2.5h-1.2c-.1 0-.2.1-.3.1-.1.1-.2.1-.2.2-.2.2-.3.6-.3.9 0 .4.1.8.4 1s.6.4 1 .4h.2c.1 0 .2 0 .4-.1zm4.4.8V88c-.2.2-.4.3-.6.4-.2.1-.4.2-.7.2-.3 0-.5-.1-.7-.2-.2-.1-.4-.3-.5-.5-.1-.2-.2-.6-.2-1.1v-2.3h.8v2.3c0 .4.1.7.2.9.1.2.3.3.6.3.4 0 .7-.2 1-.6v-2.9h.8v4h-.7zM58 86v1.7c0 .1 0 .2.1.2s.2-.1.5-.2v.5c-.2.1-.3.2-.4.2-.1 0-.2.1-.3.1-.3 0-.5-.1-.6-.4-.3.3-.7.4-1.1.4-.3 0-.5-.1-.7-.3-.2-.2-.3-.4-.3-.7 0-.3.1-.5.3-.7.2-.2.4-.4.8-.5l1-.4v-.2c0-.5-.2-.7-.7-.7-.4 0-.9.2-1.3.7v-.9c.3-.4.8-.5 1.3-.5.4 0 .8.1 1.1.3.1.1.2.2.2.3.1.1.1.2.1.4v.7zm-.8 1.7v-1.2l-.5.2c-.3.1-.5.2-.6.3-.1.1-.2.2-.2.4s.1.3.2.4.2.2.4.2.5-.1.7-.3zm5.5-1.2h-2.8c0 .4.1.7.4.9s.5.3.9.3c.5 0 1-.2 1.5-.5v.8c-.2.2-.5.3-.7.4-.2.1-.5.1-.9.1s-.8-.1-1.1-.3c-.3-.2-.5-.4-.7-.7-.2-.3-.2-.7-.2-1.1 0-.6.2-1.1.5-1.5.3-.4.8-.6 1.4-.6.5 0 1 .2 1.3.6s.5.9.5 1.5v.1zm-2.8-.5h2c0-.3-.1-.6-.3-.7s-.4-.3-.6-.3-.5.1-.7.3c-.2.2-.4.4-.4.7zm7-1.6v.5c.4-.4.8-.6 1.2-.6.3 0 .5.1.7.2.2.1.4.3.5.5.1.2.2.6.2 1.1v2.3h-.8v-2.3c0-.4-.1-.7-.2-.9-.1-.2-.3-.3-.6-.3-.4 0-.7.2-1 .6v2.9h-.8v-4h.8zm7.1 2.1h-2.8c0 .4.1.7.4.9s.5.3.9.3c.5 0 1-.2 1.5-.5v.8c-.2.2-.5.3-.7.4-.2.1-.5.1-.9.1s-.8-.1-1.1-.3c-.3-.2-.5-.4-.7-.7-.2-.3-.2-.7-.2-1.1 0-.6.2-1.1.5-1.5.3-.4.8-.6 1.4-.6.5 0 1 .2 1.3.6s.5.9.5 1.5v.1zm-2.8-.5h2c0-.3-.1-.6-.3-.7s-.3-.3-.6-.3-.5.1-.7.3c-.2.2-.3.4-.4.7zm7-.5v2.9h-.8v-2.2c0-.4-.1-.8-.2-.9-.1-.2-.3-.3-.6-.3-.2 0-.3 0-.5.1-.1.1-.3.2-.5.4v2.9h-.8v-4h.8v.5c.4-.4.8-.6 1.2-.6.5 0 .9.2 1.2.7.4-.5.9-.7 1.3-.7s.7.1 1 .4c.3.3.4.7.4 1.3v2.4h-.8V86c0-.3-.1-.6-.2-.8s-.3-.2-.6-.2-.6.2-.9.5zm6.1-3.2h.8v6.1h-.8v-6.1zm2.4.4c.1 0 .2 0 .3.1s.1.2.1.3c0 .1 0 .2-.1.3s-.2.1-.3.1c-.1 0-.2 0-.3-.1-.1-.1-.1-.2-.1-.3 0-.1 0-.2.1-.3.1 0 .2-.1.3-.1zm-.4 1.7h.8v4h-.8v-4zm3.9 0h1.5v6.1h-.8v-2.1c-.3.1-.6.1-.9.1-.6 0-1.1-.2-1.4-.6-.4-.4-.6-.9-.6-1.5s.2-1.1.6-1.5.9-.5 1.6-.5zm.7 3.3v-2.5h-1.2c-.1 0-.2.1-.3.1-.1.1-.2.1-.2.2-.2.2-.3.6-.3.9 0 .4.1.8.4 1s.6.4 1 .4h.2c.1 0 .2 0 .4-.1zm4.5.8V88c-.2.2-.4.3-.6.4-.2.1-.4.2-.7.2-.3 0-.5-.1-.7-.2-.2-.1-.4-.3-.5-.5-.1-.2-.2-.6-.2-1.1v-2.3h.8v2.3c0 .4.1.7.2.9.1.2.3.3.6.3.4 0 .7-.2 1-.6v-2.9h.8v4h-.7zm2.3-5.8c.1 0 .2 0 .3.1s.1.2.1.3c0 .1 0 .2-.1.3s-.2.1-.3.1c-.1 0-.2 0-.3-.1-.1-.1-.1-.2-.1-.3 0-.1 0-.2.1-.3.1 0 .2-.1.3-.1zm-.4 1.7h.8v4h-.8v-4zm1.9-2.1h.8v2.4c.3-.3.7-.4 1.1-.4.5 0 .9.2 1.3.6.3.4.5.9.5 1.5 0 .7-.2 1.2-.6 1.6-.4.4-.9.6-1.6.6-.3 0-.5 0-.8-.1-.3-.1-.5-.1-.7-.2v-6zm.8 3.2v2.2c.3.1.6.1.8.1.4 0 .6-.1.9-.4.2-.3.3-.6.3-1s-.1-.7-.3-1-.5-.4-.8-.4c-.3.1-.6.2-.9.5zm6.3 3V88c-.2.2-.4.3-.6.4-.2.1-.4.2-.7.2-.3 0-.5-.1-.7-.2-.2-.1-.4-.3-.5-.5-.1-.2-.2-.6-.2-1.1v-2.3h.8v2.3c0 .4.1.7.2.9.1.2.3.3.6.3.4 0 .7-.2 1-.6v-2.9h.8v4h-.7zm1.8-.3v-.9c.2.2.5.3.7.4.2.1.4.1.6.1.2 0 .3 0 .4-.1.1-.1.2-.2.2-.3 0-.1 0-.2-.1-.3-.1-.1-.2-.2-.5-.3-.5-.3-.9-.5-1-.7-.2-.2-.2-.4-.2-.7 0-.3.1-.6.4-.8.2-.2.6-.3.9-.3.4 0 .8.1 1.2.3v.8c-.5-.3-.9-.4-1.2-.4-.2 0-.3 0-.4.1-.1.1-.1.2-.1.3 0 .1 0 .2.1.3s.2.2.5.3l.3.2c.7.4 1 .8 1 1.3 0 .3-.1.6-.4.8-.3.2-.6.3-1 .3-.2 0-.5 0-.6-.1-.3-.1-.6-.2-.8-.3zm8.6-3.8h.9l-1.8 4.1h-.3l-1.8-4.1h.9l1.1 2.5 1-2.5zm4.7 2.1h-2.8c0 .4.2.7.4.9.2.2.5.3.9.3.5 0 1-.2 1.5-.5v.8c-.2.2-.5.3-.7.4-.2.1-.5.1-.8.1-.4 0-.8-.1-1.1-.3-.3-.2-.5-.4-.7-.7-.2-.3-.2-.7-.2-1.1 0-.6.2-1.1.5-1.5.3-.4.8-.6 1.4-.6.5 0 1 .2 1.3.6.3.4.5.9.5 1.5v.1zm-2.8-.5h2c0-.3-.1-.6-.3-.7s-.4-.3-.7-.3-.5.1-.7.3c-.1.2-.3.4-.3.7zm4.5-1.6v.5c.4-.4.8-.6 1.2-.6.3 0 .5.1.7.2.2.1.4.3.5.5.1.2.2.6.2 1.1v2.3h-.8v-2.3c0-.4-.1-.7-.2-.9-.1-.2-.3-.3-.6-.3-.4 0-.7.2-1 .6v2.9h-.8v-4h.8zm6.4-2.1h.8v6.1h-1.7c-.6 0-1.1-.2-1.4-.6-.4-.4-.5-.9-.5-1.5s.2-1.1.6-1.5c.4-.4.9-.6 1.4-.6.3 0 .6.1.9.2v-2.1zm0 5.5v-2.6c-.2-.1-.5-.2-.8-.2-.4 0-.7.1-1 .4s-.4.6-.4 1.1c0 .4.1.7.3 1 .1.1.3.2.4.3.1 0 .4.1.7.1h.8zm2.3-5.1c.1 0 .2 0 .3.1s.1.2.1.3c0 .1 0 .2-.1.3s-.2.1-.3.1c-.1 0-.2 0-.3-.1-.1-.1-.1-.2-.1-.3 0-.1 0-.2.1-.3 0 0 .2-.1.3-.1zm-.4 1.7h.8v4h-.8v-4zm6.4 0c.6 0 1.1.2 1.5.6.4.4.6.9.6 1.5s-.2 1.1-.6 1.5c-.4.4-.9.6-1.6.6-.6 0-1.1-.2-1.5-.6-.4-.4-.6-.9-.6-1.5s.2-1.1.6-1.5c.4-.4 1-.6 1.6-.6zm-.1.7c-.4 0-.7.1-.9.4s-.4.6-.4 1 .1.7.4.9c.3.2.6.4 1 .4s.7-.1 1-.4c.3-.2.4-.6.4-1s-.1-.7-.4-1c-.3-.1-.7-.3-1.1-.3zm5.8-2.8h.8v6.1h-1.7c-.6 0-1.1-.2-1.4-.6-.4-.4-.5-.9-.5-1.5s.2-1.1.6-1.5c.4-.4.9-.6 1.4-.6.3 0 .6.1.9.2v-2.1zm0 5.5v-2.6c-.2-.1-.5-.2-.8-.2-.4 0-.7.1-1 .4s-.4.6-.4 1.1c0 .4.1.7.3 1 .1.1.3.2.4.3.1 0 .4.1.7.1h.8zm7.8-1.3h-2.8c0 .4.1.7.4.9.2.2.5.3.9.3.5 0 1-.2 1.5-.5v.8c-.2.2-.5.3-.7.4s-.5.1-.9.1-.8-.1-1.1-.3c-.3-.2-.5-.4-.7-.7-.2-.3-.2-.7-.2-1.1 0-.6.2-1.1.5-1.5.3-.4.8-.6 1.4-.6.5 0 1 .2 1.3.6.3.4.5.9.5 1.5v.1zm-2.8-.5h2c0-.3-.1-.6-.3-.7s-.4-.3-.7-.3-.5.1-.7.3-.2.4-.3.7zm3.1-.9l1.5-1.5v.8h1.3v.7h-1.3v2c0 .5.2.7.6.7.3 0 .6-.1.9-.3v.7c-.3.2-.6.3-1 .3s-.7-.1-.9-.3l-.2-.2c0-.1-.1-.2-.1-.3 0-.1-.1-.4-.1-.7v-1.8l-.7-.1z"/></g><g clip-path="url(#d)" fill="#FFF"><path d="M3.1 96.8v1.7c0 .1 0 .2.1.2s.2-.1.5-.2v.5c-.2.1-.3.2-.4.2-.1 0-.2.1-.3.1-.3 0-.5-.1-.6-.4-.3.3-.7.4-1.1.4-.3 0-.5-.1-.7-.3-.2-.2-.3-.4-.3-.7 0-.3.1-.5.3-.7.2-.2.4-.4.8-.5l1-.4v-.2c0-.5-.2-.7-.7-.7-.4 0-.9.2-1.3.7v-.9c.3-.4.8-.5 1.3-.5.4 0 .8.1 1.1.3.1.1.2.2.2.3 0 .2.1.3.1.4v.7zm-.8 1.7v-1.2l-.5.2c-.3.1-.5.2-.6.3-.1.1-.2.2-.2.4s.1.3.2.4.2.2.4.2c.3 0 .5-.1.7-.3zm2.1-5.4h.8v6.1h-.8v-6.1zm2.4.4c.1 0 .2 0 .3.1s.1.2.1.3c0 .1 0 .2-.1.3s-.2.1-.3.1c-.1 0-.2 0-.3-.1-.1-.1-.1-.2-.1-.3 0-.1 0-.2.1-.3.1 0 .2-.1.3-.1zm-.4 1.7h.8v4h-.8v-4zm4.5 1.6v1.7c0 .1 0 .2.1.2s.2-.1.5-.2v.5c-.2.1-.3.2-.4.2-.1 0-.2.1-.3.1-.3 0-.5-.1-.6-.4-.3.3-.7.4-1.1.4-.3 0-.5-.1-.7-.3-.3-.1-.4-.4-.4-.7 0-.3.1-.5.3-.7.2-.2.4-.4.8-.5l1-.4v-.2c0-.5-.2-.7-.7-.7-.4 0-.9.2-1.3.7v-.9c.3-.4.8-.5 1.3-.5.4 0 .8.1 1.1.3.1.1.2.2.2.3.1.1.1.2.1.4.1.2.1.4.1.7zm-.8 1.7v-1.2l-.5.2c-.3.1-.5.2-.6.3-.1.1-.2.2-.2.4s.1.3.2.4.2.2.4.2c.3 0 .5-.1.7-.3zm5.4-2.2v2.9h-.8V97c0-.4-.1-.8-.2-.9-.1-.2-.3-.3-.6-.3-.2 0-.3 0-.5.1-.1.1-.3.2-.5.4v2.9h-.8v-4h.9v.5c.4-.4.8-.6 1.2-.6.5 0 .9.2 1.2.7.4-.5.9-.7 1.3-.7s.7.1 1 .4c.3.3.4.7.4 1.3v2.4h-.8v-2.4c0-.3-.1-.6-.2-.8s-.3-.3-.6-.3c-.4.1-.7.3-1 .6zm6.5-2.8c.1 0 .2 0 .3.1s.1.2.1.3c0 .1 0 .2-.1.3s-.2.1-.3.1c-.1 0-.2 0-.3-.1-.1-.1-.1-.2-.1-.3 0-.1 0-.2.1-.3.1 0 .2-.1.3-.1zm-.3 1.7h.8v4h-.8v-4zm1.9-2.1h.8v6.1h-.8v-6.1zm2.4.4c.1 0 .2 0 .3.1s.1.2.1.3c0 .1 0 .2-.1.3s-.2.1-.3.1c-.1 0-.2 0-.3-.1-.1-.1-.1-.2-.1-.3 0-.1 0-.2.1-.3.1 0 .2-.1.3-.1zm-.4 1.7h.8v4h-.8v-4zm1.4.7l1.5-1.5v.8h1.3v.7h-1.3v2c0 .5.2.7.6.7.3 0 .6-.1.9-.3v.7c-.3.2-.6.3-1 .3s-.7-.1-.9-.3l-.2-.2c0-.1-.1-.2-.1-.3 0-.1-.1-.4-.1-.7V96l-.7-.1zm6.9-.7v.9-.1c.4-.6.8-.9 1.2-.9.3 0 .6.2.9.5l-.4.7c-.3-.3-.5-.4-.8-.4-.3 0-.5.1-.7.4-.2.2-.3.5-.3.9v2.1H33v-4h.9zm6 2.1H37c0 .4.1.7.4.9s.5.3.9.3c.5 0 1-.2 1.5-.5v.8c-.2.2-.5.3-.7.4-.2.1-.5.1-.9.1s-.8-.1-1.1-.3c-.3-.2-.5-.4-.7-.7-.2-.3-.2-.7-.2-1.1 0-.6.2-1.1.5-1.5.3-.4.8-.6 1.4-.6.5 0 1 .2 1.3.6s.5.9.5 1.5v.1zm-2.8-.5h2c0-.3-.1-.6-.3-.7s-.4-.3-.7-.3-.5.1-.7.3c-.2.2-.3.4-.3.7zm6 2.2v-.9c.2.2.5.3.7.4.2.1.4.1.6.1.2 0 .3 0 .4-.1s.2-.2.2-.3c0-.1 0-.2-.1-.3-.1-.1-.2-.2-.5-.3-.5-.3-.9-.5-1-.7-.2-.2-.2-.4-.2-.7 0-.3.1-.6.4-.8.2-.2.6-.3.9-.3.4 0 .8.1 1.2.3v.8c-.5-.3-.9-.4-1.2-.4-.2 0-.3 0-.4.1-.1.1-.1.2-.1.3 0 .1 0 .2.1.3s.2.2.5.3l.3.2c.7.4 1 .8 1 1.3 0 .3-.1.6-.4.8-.3.2-.6.3-1 .3-.2 0-.5 0-.6-.1-.3-.1-.6-.2-.8-.3zm4-5.5c.1 0 .2 0 .3.1s.1.2.1.3c0 .1 0 .2-.1.3s-.2.1-.3.1c-.1 0-.2 0-.3-.1-.1-.1-.1-.2-.1-.3 0-.1 0-.2.1-.3.1 0 .2-.1.3-.1zm-.4 1.7h.8v4h-.8v-4zm1.4.7l1.5-1.5v.8h1.3v.7h-1.3v2c0 .5.2.7.6.7.3 0 .6-.1.9-.3v.7c-.3.2-.6.3-1 .3s-.7-.1-.9-.3l-.2-.2c0-.1-.1-.2-.1-.3 0-.1-.1-.4-.1-.7V96l-.7-.1zm4-2.4c.1 0 .2 0 .3.1s.1.2.1.3c0 .1 0 .2-.1.3s-.2.1-.3.1c-.1 0-.2 0-.3-.1-.1-.1-.1-.2-.1-.3 0-.1 0-.2.1-.3.1 0 .2-.1.3-.1zm-.4 1.7h.8v4h-.8v-4zm2.4-1.7c.1 0 .2 0 .3.1s.1.2.1.3c0 .1 0 .2-.1.3s-.2.1-.3.1c-.1 0-.2 0-.3-.1-.1-.1-.1-.2-.1-.3 0-.1 0-.2.1-.3 0 0 .2-.1.3-.1zm-.4 1.7h.8v4h-.8v-4zm1.7 3.8v-.9c.2.2.5.3.7.4.2.1.4.1.6.1.2 0 .3 0 .4-.1s.2-.2.2-.3c0-.1 0-.2-.1-.3-.1-.1-.2-.2-.5-.3-.5-.3-.9-.5-1-.7-.2-.2-.2-.4-.2-.7 0-.3.1-.6.4-.8.2-.2.6-.3.9-.3.4 0 .8.1 1.2.3v.8c-.5-.3-.9-.4-1.2-.4-.2 0-.3 0-.4.1-.1.1-.1.2-.1.3 0 .1 0 .2.1.3s.2.2.5.3l.3.2c.7.4 1 .8 1 1.3 0 .3-.1.6-.4.8-.3.2-.6.3-1 .3-.2 0-.5 0-.6-.1-.2-.1-.5-.2-.8-.3zm6.7-.7v.8c-.4.2-.8.2-1.2.2-.6 0-1.1-.2-1.5-.6s-.6-.9-.6-1.5.2-1.1.5-1.5.8-.6 1.4-.6c.2 0 .4 0 .6.1.2 0 .4.1.6.2v.9c-.4-.3-.8-.4-1.1-.4-.4 0-.7.1-.9.4-.2.3-.3.6-.3 1s.1.7.4 1c.2.2.6.4 1 .4.4-.1.7-.2 1.1-.4zm3.9-4.8c.1 0 .2 0 .3.1s.1.2.1.3c0 .1 0 .2-.1.3s-.2.1-.3.1c-.1 0-.2 0-.3-.1-.1-.1-.1-.2-.1-.3 0-.1 0-.2.1-.3 0 0 .1-.1.3-.1zm-.4 1.7h.8v4h-.8v-4zm5.4 2.1h-2.8c0 .4.1.7.4.9s.5.3.9.3c.5 0 1-.2 1.5-.5v.8c-.2.2-.5.3-.7.4-.2.1-.5.1-.9.1s-.8-.1-1.1-.3c-.3-.2-.5-.4-.7-.7-.2-.3-.2-.7-.2-1.1 0-.6.2-1.1.5-1.5.3-.4.8-.6 1.4-.6.5 0 1 .2 1.3.6s.5.9.5 1.5v.1zm-2.9-.5h2c0-.3-.1-.6-.3-.7s-.4-.3-.7-.3-.5.1-.7.3c-.1.2-.2.4-.3.7zm4.5-1.6v.5c.4-.4.8-.6 1.2-.6.3 0 .5.1.7.2.2.1.4.3.5.5.1.2.2.6.2 1.1v2.3h-.8V97c0-.4-.1-.7-.2-.9-.1-.2-.3-.3-.6-.3-.4 0-.7.2-1 .6v2.9h-.8v-4h.8zm6.4-2.1h.8v6.1h-1.7c-.6 0-1.1-.2-1.4-.6-.4-.4-.5-.9-.5-1.5s.2-1.1.6-1.5c.4-.4.9-.6 1.4-.6.3 0 .6.1.9.2v-2.1zm0 5.5V96c-.2-.1-.5-.2-.8-.2-.4 0-.7.1-1 .4s-.2.6-.2 1.1c0 .4.1.7.3 1 .1.1.3.2.4.3s.4.1.7.1h.6zm2.3-5.1c.1 0 .2 0 .3.1s.1.2.1.3c0 .1 0 .2-.1.3s-.2.1-.3.1c-.1 0-.2 0-.3-.1-.1-.1-.1-.2-.1-.3 0-.1 0-.2.1-.3.1 0 .2-.1.3-.1zm-.4 1.7h.8v4h-.8v-4zm1.8 3.8v-.9c.2.2.5.3.7.4.2.1.4.1.6.1.2 0 .3 0 .4-.1s.2-.2.2-.3c0-.1 0-.2-.1-.3-.1-.1-.2-.2-.5-.3-.5-.3-.9-.5-1-.7-.2-.2-.2-.4-.2-.7 0-.3.1-.6.4-.8.2-.2.6-.3.9-.3.4 0 .8.1 1.2.3v.8c-.5-.3-.9-.4-1.2-.4-.2 0-.3 0-.4.1-.1.1-.1.2-.1.3 0 .1 0 .2.1.3s.2.2.5.3l.3.2c.7.4 1 .8 1 1.3 0 .3-.1.6-.4.8-.3.2-.6.3-1 .3-.2 0-.5 0-.6-.1-.3-.1-.5-.2-.8-.3zm9.5-2.7v2.9h-.8V97c0-.4-.1-.8-.2-.9-.1-.2-.3-.3-.6-.3-.2 0-.3 0-.5.1-.1.1-.3.2-.5.4v2.9h-.8v-4h.8v.5c.4-.4.8-.6 1.2-.6.5 0 .9.2 1.2.7.4-.5.9-.7 1.3-.7s.7.1 1 .4c.3.3.4.7.4 1.3v2.4h-.8v-2.4c0-.3-.1-.6-.2-.8s-.3-.3-.6-.3c-.3.1-.7.3-.9.6zm5.5-1.1c.6 0 1.1.2 1.5.6.4.4.6.9.6 1.5s-.2 1.1-.6 1.5c-.4.4-.9.6-1.6.6-.6 0-1.1-.2-1.5-.6-.4-.4-.6-.9-.6-1.5s.2-1.1.6-1.5c.5-.4 1-.6 1.6-.6zm0 .7c-.4 0-.7.1-.9.4s-.4.6-.4 1 .1.7.4.9c.3.2.6.4 1 .4s.7-.1 1-.4c.2-.2.4-.6.4-1s-.1-.7-.4-1-.7-.3-1.1-.3zm3.1-2.8h.8v6.1h-.8v-6.1zm4.5 6.2v-.5c-.2.2-.4.3-.6.4-.2.1-.4.2-.7.2-.3 0-.5-.1-.7-.2-.2-.1-.4-.3-.5-.5-.1-.2-.2-.6-.2-1.1v-2.3h.8v2.3c0 .4.1.7.2.9.1.2.3.3.6.3.4 0 .7-.2 1-.6v-2.9h.8v4h-.7zm1.9 2v-6.1h1.4c.7 0 1.3.2 1.7.5s.6.9.6 1.5-.2 1.1-.6 1.5-.9.6-1.4.6c-.3 0-.5-.1-.9-.2v2.2h-.8zm1.4-5.3h-.6v2.5c.2.1.5.2.8.2.4 0 .7-.1.9-.4s.4-.6.4-1c0-.3-.1-.5-.2-.7-.1-.2-.3-.3-.5-.4-.2-.2-.5-.2-.8-.2zm2.6-.1l1.5-1.5v.8h1.3v.7h-1.3v2c0 .5.2.7.6.7.3 0 .6-.1.9-.3v.7c-.3.2-.6.3-1 .3s-.7-.1-.9-.3l-.2-.2c0-.1-.1-.2-.1-.3 0-.1-.1-.4-.1-.7V96l-.7-.1zm6.1.9v1.7c0 .1 0 .2.1.2s.2-.1.5-.2v.5c-.2.1-.3.2-.4.2-.1 0-.2.1-.3.1-.3 0-.5-.1-.6-.4-.3.3-.7.4-1.1.4-.3 0-.5-.1-.7-.3-.2-.2-.3-.4-.3-.7 0-.3.1-.5.3-.7.2-.2.4-.4.8-.5l1-.4v-.2c0-.5-.2-.7-.7-.7-.4 0-.9.2-1.3.7v-.9c.3-.4.8-.5 1.3-.5.4 0 .8.1 1 .3.1.1.2.2.2.3.1.1.1.2.1.4.1.2.1.4.1.7zm-.8 1.7v-1.2l-.5.2c-.3.1-.5.2-.6.3-.1.1-.2.2-.2.4s.1.3.2.4.2.2.4.2.5-.1.7-.3zm1.5-2.6l1.5-1.5v.8h1.3v.7h-1.3v2c0 .5.2.7.6.7.3 0 .6-.1.9-.3v.7c-.3.2-.6.3-1 .3s-.7-.1-.9-.3l-.2-.2c0-.1-.1-.2-.1-.3 0-.1-.1-.4-.1-.7V96l-.7-.1zm4-2.4c.1 0 .2 0 .3.1s.1.2.1.3c0 .1 0 .2-.1.3s-.2.1-.3.1c-.1 0-.2 0-.3-.1-.1-.1-.1-.2-.1-.3 0-.1 0-.2.1-.3 0 0 .2-.1.3-.1zm-.4 1.7h.8v4h-.8v-4zm6.4 0c.6 0 1.1.2 1.5.6.4.4.6.9.6 1.5s-.2 1.1-.6 1.5c-.4.4-.9.6-1.6.6-.6 0-1.1-.2-1.5-.6-.4-.4-.6-.9-.6-1.5s.2-1.1.6-1.5c.4-.4.9-.6 1.6-.6zm-.1.7c-.4 0-.7.1-.9.4s-.4.6-.4 1 .1.7.4.9c.3.2.6.4 1 .4s.7-.1 1-.4c.3-.2.4-.6.4-1s-.1-.7-.4-1c-.4-.1-.7-.3-1.1-.3zm6.1 2.4v.8c-.4.2-.8.2-1.2.2-.6 0-1.1-.2-1.5-.6s-.6-.9-.6-1.5.2-1.1.5-1.5c.4-.4.8-.6 1.4-.6.2 0 .4 0 .6.1.2 0 .4.1.6.2v.9c-.4-.3-.8-.4-1.1-.4-.4 0-.7.1-.9.4-.2.3-.3.6-.3 1s.1.7.4 1c.2.2.6.4 1 .4.4-.1.7-.2 1.1-.4zm4 0v.8c-.4.2-.8.2-1.2.2-.6 0-1.1-.2-1.5-.6-.4-.4-.6-.9-.6-1.5s.2-1.1.5-1.5.8-.6 1.4-.6c.2 0 .4 0 .6.1.2 0 .4.1.6.2v.9c-.4-.3-.8-.4-1.1-.4-.4 0-.7.1-.9.4-.2.3-.3.6-.3 1s.1.7.4 1c.2.2.6.4 1 .4.3-.1.7-.2 1.1-.4zm3.4-1.5v1.7c0 .1 0 .2.1.2s.2-.1.5-.2v.5c-.2.1-.3.2-.4.2-.1 0-.2.1-.3.1-.3 0-.5-.1-.6-.4-.3.3-.7.4-1.1.4-.3 0-.5-.1-.7-.3-.2-.2-.3-.4-.3-.7 0-.3.1-.5.3-.7.2-.2.4-.4.8-.5l1-.4v-.2c0-.5-.2-.7-.7-.7-.4 0-.9.2-1.3.7v-.9c.3-.4.8-.5 1.3-.5.4 0 .8.1 1.1.3.1.1.2.2.2.3.1.1.1.2.1.4v.7zm-.8 1.7v-1.2l-.5.2c-.3.1-.5.2-.6.3-.1.1-.2.2-.2.4s.1.3.2.4.2.2.4.2c.3 0 .5-.1.7-.3zm5.6-1.2h-2.8c0 .4.2.7.4.9s.5.3.9.3c.5 0 1-.2 1.5-.5v.8c-.2.2-.5.3-.7.4-.2.1-.5.1-.8.1-.4 0-.8-.1-1.1-.3-.3-.2-.5-.4-.7-.7-.2-.3-.2-.7-.2-1.1 0-.6.2-1.1.5-1.5.3-.4.8-.6 1.4-.6.5 0 1 .2 1.3.6s.5.9.5 1.5v.1zm-2.9-.5h2c0-.3-.1-.6-.3-.7s-.4-.3-.7-.3-.5.1-.7.3c-.1.2-.2.4-.3.7z"/></g><g clip-path="url(#d)" fill="#FFF"><path d="M1.4 106v.5c.4-.4.8-.6 1.2-.6.3 0 .5.1.7.2.2.1.4.3.5.5.1.2.2.6.2 1.1v2.3h-.8v-2.3c0-.4-.1-.7-.2-.9-.1-.2-.3-.3-.6-.3-.4 0-.7.2-1 .6v2.9H.5v-4h.9zm4.1-1.7c.1 0 .2 0 .3.1s.1.2.1.3c0 .1 0 .2-.1.3s-.2.1-.3.1c-.1 0-.2 0-.3-.1-.1 0-.2-.1-.2-.2s0-.2.1-.3c.1-.1.3-.2.4-.2zm-.4 1.7h.8v4h-.8v-4zm4.5 1.6v1.7c0 .1 0 .2.1.2s.2-.1.5-.2v.5c-.2.1-.3.2-.4.2-.1 0-.2.1-.3.1-.3 0-.5-.1-.6-.4-.3.3-.7.4-1.1.4-.3 0-.5-.1-.7-.3-.2-.2-.3-.4-.3-.7 0-.3.1-.5.3-.7.2-.2.4-.4.8-.5l1-.4v-.2c0-.5-.2-.7-.7-.7-.4 0-.9.2-1.3.7v-.9c.3-.4.8-.5 1.3-.5.4 0 .8.1 1.1.3.1.1.2.2.2.3.1.1.1.2.1.4v.7zm-.8 1.7v-1.2l-.5.2c-.3.1-.5.2-.6.3-.1.1-.2.2-.2.4s.1.3.2.4.2.2.4.2.5-.1.7-.3zm7.3-5.4h.8v6.1h-1.7c-.6 0-1.1-.2-1.4-.6-.4-.4-.5-.9-.5-1.5s.2-1.1.6-1.5c.4-.4.9-.6 1.4-.6.3 0 .6.1.9.2v-2.1zm0 5.5v-2.6c-.2-.1-.5-.2-.8-.2-.4 0-.7.1-1 .4s-.4.6-.4 1.1c0 .4.1.7.3 1 .1.1.3.2.4.3s.4.1.7.1h.8zm3.8-3.4c.6 0 1.1.2 1.5.6.4.4.6.9.6 1.5s-.2 1.1-.6 1.5c-.4.4-.9.6-1.6.6-.6 0-1.1-.2-1.5-.6-.4-.4-.6-.9-.6-1.5s.2-1.1.6-1.5c.5-.4 1-.6 1.6-.6zm0 .7c-.4 0-.7.1-.9.4s-.4.6-.4 1 .1.7.4.9c.3.2.6.4 1 .4s.7-.1 1-.4c.3-.2.4-.6.4-1s-.1-.7-.4-1-.7-.3-1.1-.3zm3.1-2.8h.8v6.1H23v-6.1zm4.5 6.2v-.5c-.2.2-.4.3-.6.4-.2.1-.4.2-.7.2-.3 0-.5-.1-.7-.2-.2-.1-.4-.3-.5-.5-.1-.2-.2-.6-.2-1.1V106h.8v2.3c0 .4.1.7.2.9.1.2.3.3.6.3.4 0 .7-.2 1-.6V106h.8v4h-.7zm1.9 2V106h1.4c.7 0 1.3.2 1.7.5s.6.9.6 1.5-.2 1.1-.6 1.5-.9.6-1.4.6c-.3 0-.5-.1-.9-.2v2.2h-.8zm1.3-5.3h-.6v2.5c.2.1.5.2.8.2.4 0 .7-.1.9-.4s.4-.6.4-1c0-.3-.1-.5-.2-.7-.1-.2-.3-.3-.5-.4-.1-.2-.4-.2-.8-.2zm2.6-.1l1.5-1.5v.8h1.3v.7h-1.3v2c0 .5.2.7.6.7.3 0 .6-.1.9-.3v.7c-.3.2-.6.3-1 .3s-.7-.1-.9-.3l-.2-.2c0-.1-.1-.2-.1-.3 0-.1-.1-.4-.1-.7v-1.8l-.7-.1zm6.1.9v1.7c0 .1 0 .2.1.2s.2-.1.5-.2v.5c-.2.1-.3.2-.4.2-.1 0-.2.1-.3.1-.3 0-.5-.1-.6-.4-.3.3-.7.4-1.1.4-.3 0-.5-.1-.7-.3-.2-.2-.3-.4-.3-.7 0-.3.1-.5.3-.7.2-.2.4-.4.8-.5l1-.4v-.2c0-.5-.2-.7-.7-.7-.4 0-.9.2-1.3.7v-.9c.3-.4.8-.5 1.3-.5.4 0 .8.1 1.1.3.1.1.2.2.2.3.1.1.1.2.1.4v.7zm-.7 1.7v-1.2l-.5.2c-.3.1-.5.2-.6.3-.1.1-.2.2-.2.4s.1.3.2.4.2.2.4.2.4-.1.7-.3zm4-2.6l1.5-1.5v.8h1.3v.7h-1.3v2c0 .5.2.7.6.7.3 0 .6-.1.9-.3v.7c-.3.2-.6.3-1 .3s-.7-.1-.9-.3l-.2-.2c0-.1-.1-.2-.1-.3 0-.1-.1-.4-.1-.7v-1.8l-.7-.1zm4-2.4c.1 0 .2 0 .3.1s.1.2.1.3c0 .1 0 .2-.1.3s-.2.1-.3.1c-.1 0-.2 0-.3-.1-.1-.1-.1-.2-.1-.3 0-.1 0-.2.1-.3 0 0 .1-.1.3-.1zm-.4 1.7h.8v4h-.8v-4zm3.9 0c.6 0 1.1.2 1.5.6.4.4.6.9.6 1.5s-.2 1.1-.6 1.5c-.4.4-.9.6-1.6.6-.6 0-1.1-.2-1.5-.6-.4-.4-.6-.9-.6-1.5s.2-1.1.6-1.5c.4-.4.9-.6 1.6-.6zm-.1.7c-.4 0-.7.1-.9.4s-.4.6-.4 1 .1.7.4.9c.3.2.6.4 1 .4s.7-.1 1-.4c.3-.2.4-.6.4-1s-.1-.7-.4-1-.7-.3-1.1-.3zm3.9-.7v.5c.4-.4.8-.6 1.2-.6.3 0 .5.1.7.2.2.1.4.3.5.5.1.2.2.6.2 1.1v2.3h-.8v-2.3c0-.4-.1-.7-.2-.9-.1-.2-.3-.3-.6-.3-.4 0-.7.2-1 .6v2.9h-.8v-4h.8zm3.5 3.8v-.9c.2.2.5.3.7.4.2.1.4.1.6.1.2 0 .3 0 .4-.1s.2-.2.2-.3c0-.1 0-.2-.1-.3-.1-.1-.2-.2-.5-.3-.5-.3-.9-.5-1-.7-.2-.2-.2-.4-.2-.7 0-.3.1-.6.4-.8.2-.2.6-.3.9-.3.4 0 .8.1 1.2.3v.8c-.5-.3-.9-.4-1.2-.4-.2 0-.3 0-.4.1-.1.1-.1.2-.1.3 0 .1 0 .2.1.3s.2.2.5.3l.3.2c.7.4 1 .8 1 1.3 0 .3-.1.6-.4.8-.3.2-.6.3-1 .3-.2 0-.5 0-.6-.1-.3-.1-.5-.2-.8-.3zm7.1-1.7h-2.8c0 .4.1.7.4.9s.5.3.9.3c.5 0 1-.2 1.5-.5v.8c-.2.2-.5.3-.7.4-.2.1-.5.1-.9.1s-.8-.1-1.1-.3c-.3-.2-.5-.4-.7-.7-.2-.3-.2-.7-.2-1.1 0-.6.2-1.1.5-1.5.3-.4.8-.6 1.4-.6.5 0 1 .2 1.3.6s.5.9.5 1.5v.1zm-2.8-.5h2c0-.3-.1-.6-.3-.7s-.4-.3-.7-.3-.5.1-.7.3c-.2.2-.3.4-.3.7zm4.5-1.6v.9-.1c.4-.6.8-.9 1.2-.9.3 0 .6.2.9.5l-.4.7c-.3-.3-.5-.4-.8-.4-.3 0-.5.1-.7.4-.2.2-.3.5-.3.9v2.1h-.8v-4h.9zm7.8 4.1v-.5c-.2.2-.4.3-.6.4-.2.1-.4.2-.7.2-.3 0-.5-.1-.7-.2-.2-.1-.4-.3-.5-.5-.1-.2-.2-.6-.2-1.1V106h.8v2.3c0 .4.1.7.2.9.1.2.3.3.6.3.4 0 .7-.2 1-.6V106h.8v4h-.7zm5.2-3v2.9h-.8v-2.2c0-.4-.1-.8-.2-.9-.1-.2-.3-.3-.6-.3-.2 0-.3 0-.5.1-.1.1-.3.2-.5.4v2.9H76v-4h.8v.5c.4-.4.8-.6 1.2-.6.5 0 .9.2 1.2.7.4-.5.9-.7 1.3-.7s.7.1 1 .4c.3.3.4.7.4 1.3v2.4h-.8v-2.4c0-.3-.1-.6-.2-.8s-.3-.3-.6-.3c-.4.1-.7.3-1 .6zm5.6-1.1h1.5v6.1h-.8V110c-.3.1-.6.1-.9.1-.6 0-1.1-.2-1.4-.6-.4-.4-.6-.9-.6-1.5s.2-1.1.6-1.5.9-.5 1.6-.5zm.7 3.3v-2.5h-1.2c-.1 0-.2.1-.3.1-.1.1-.2.1-.2.2-.2.2-.3.6-.3.9 0 .4.1.8.4 1s.6.4 1 .4h.2c.1 0 .2 0 .4-.1zm4.4.8v-.5c-.2.2-.4.3-.6.4-.2.1-.4.2-.7.2-.3 0-.5-.1-.7-.2-.2-.1-.4-.3-.5-.5-.1-.2-.2-.6-.2-1.1V106h.8v2.3c0 .4.1.7.2.9.1.2.3.3.6.3.4 0 .7-.2 1-.6V106h.8v4H90zm2.4-5.8c.1 0 .2 0 .3.1s.1.2.1.3c0 .1 0 .2-.1.3s-.2.1-.3.1c-.1 0-.2 0-.3-.1-.1-.1-.1-.2-.1-.3 0-.1 0-.2.1-.3 0 0 .1-.1.3-.1zM92 106h.8v4H92v-4zm4.5 1.6v1.7c0 .1 0 .2.1.2s.2-.1.5-.2v.5c-.2.1-.3.2-.4.2-.1 0-.2.1-.3.1-.3 0-.5-.1-.6-.4-.3.3-.7.4-1.1.4-.3 0-.5-.1-.7-.3-.2-.2-.3-.4-.3-.7 0-.3.1-.5.3-.7.2-.2.4-.4.8-.5l1-.4v-.2c0-.5-.2-.7-.7-.7-.4 0-.9.2-1.3.7v-.9c.3-.4.8-.5 1.3-.5.4 0 .8.1 1.1.3.1.1.2.2.2.3.1.1.1.2.1.4v.7zm-.8 1.7v-1.2l-.5.2c-.3.1-.5.2-.6.3-.1.1-.2.2-.2.4s.1.3.2.4.2.2.4.2.5-.1.7-.3zm5.4-2.2v2.9h-.8v-2.2c0-.4-.1-.8-.2-.9-.1-.2-.3-.3-.6-.3-.2 0-.3 0-.5.1-.1.1-.3.2-.5.4v2.9h-.8v-4h.8v.5c.4-.4.8-.6 1.2-.6.5 0 .9.2 1.2.7.4-.5.9-.7 1.3-.7s.7.1 1 .4c.3.3.4.7.4 1.3v2.4h-.8v-2.4c0-.3-.1-.6-.2-.8-.1-.2-.3-.3-.6-.3-.3.1-.6.3-.9.6zm7-1.1v.9-.1c.4-.6.8-.9 1.2-.9.3 0 .6.2.9.5l-.4.7c-.3-.3-.5-.4-.8-.4-.3 0-.5.1-.7.4-.2.2-.3.5-.3.9v2.1h-.8v-4h.9zm5.9 2.1h-2.8c0 .4.1.7.4.9s.5.3.9.3c.5 0 1-.2 1.5-.5v.8c-.2.2-.5.3-.7.4-.2.1-.5.1-.9.1s-.8-.1-1.1-.3c-.3-.2-.5-.4-.7-.7-.2-.3-.2-.7-.2-1.1 0-.6.2-1.1.5-1.5.3-.4.8-.6 1.4-.6.5 0 1 .2 1.3.6s.5.9.5 1.5v.1zm-2.8-.5h2c0-.3-.1-.6-.3-.7s-.4-.3-.7-.3-.5.1-.7.3c-.1.2-.2.4-.3.7zm4.1-3.3c.1 0 .2 0 .3.1s.1.2.1.3c0 .1 0 .2-.1.3s-.2.1-.3.1c-.1 0-.2 0-.3-.1-.1-.1-.1-.2-.1-.3 0-.1 0-.2.1-.3.1 0 .2-.1.3-.1zm-.4 1.7h.8v4h-.8v-4zm4.5 4.1v-.5c-.2.2-.4.3-.6.4-.2.1-.4.2-.7.2-.3 0-.5-.1-.7-.2-.2-.1-.4-.3-.5-.5-.1-.2-.2-.6-.2-1.1V106h.8v2.3c0 .4.1.7.2.9.1.2.3.3.6.3.4 0 .7-.2 1-.6V106h.8v4h-.7zm2.8-4.1v.9-.1c.4-.6.8-.9 1.2-.9.3 0 .6.2.9.5l-.4.7c-.3-.3-.5-.4-.8-.4-.3 0-.5.1-.7.4-.2.2-.3.5-.3.9v2.1h-.8v-4h.9zm2.8-1.2l.6-1c.5 0 .8.1 1.1.4.2.2.4.6.4.9 0 .2 0 .5-.1.7-.1.3-.3.6-.6 1.2-.4.6-.6 1-.6 1.3v.2c-.2-.1-.3-.2-.4-.3-.1-.1-.1-.3-.1-.5s0-.4.1-.5c.1-.2.2-.4.5-.9.3-.4.4-.7.4-1 0-.2-.1-.3-.2-.4-.1-.1-.3-.2-.5-.2-.3-.1-.5 0-.6.1zm1.3 4.8c0 .1-.1.3-.2.4-.1.1-.2.2-.4.2-.1 0-.3 0-.4-.2-.1-.1-.2-.2-.2-.4s.1-.3.2-.4.2-.2.4-.2.3.1.4.2c.1.1.2.2.2.4zm10.4.8l-.9.9c-.3 0-.6-.1-.9-.1l-.9-.3c-.3-.1-.7-.4-1.2-.8-.7-.1-1.4-.5-1.8-1.1-.5-.6-.7-1.2-.7-2 0-.9.3-1.7.9-2.3s1.4-.9 2.4-.9c.9 0 1.7.3 2.4.9.6.6.9 1.3.9 2.2 0 .8-.2 1.4-.7 2-.5.6-1.1.9-1.8 1.1l.2.1c.7.3 1.2.4 1.6.4.1.1.3 0 .5-.1zm-3.1-5.7c-.7 0-1.3.2-1.7.7-.5.4-.7 1-.7 1.7s.2 1.2.7 1.6c.5.4 1 .7 1.7.7s1.2-.2 1.7-.7c.5-.4.7-1 .7-1.7s-.2-1.2-.7-1.7-1-.6-1.7-.6zm6.8 5.4v-.5c-.2.2-.4.3-.6.4-.2.1-.4.2-.7.2-.3 0-.5-.1-.7-.2-.2-.1-.4-.3-.5-.5-.1-.2-.2-.6-.2-1.1V106h.8v2.3c0 .4.1.7.2.9.1.2.3.3.6.3.4 0 .7-.2 1-.6V106h.8v4h-.7zm2.4-5.8c.1 0 .2 0 .3.1s.1.2.1.3c0 .1 0 .2-.1.3s-.2.1-.3.1c-.1 0-.2 0-.3-.1-.1-.1-.1-.2-.1-.3 0-.1 0-.2.1-.3 0 0 .1-.1.3-.1zm-.4 1.7h.8v4h-.8v-4zm1.9-2.1h.8v2.4c.3-.3.7-.4 1.1-.4.5 0 .9.2 1.3.6s.5.9.5 1.5c0 .7-.2 1.2-.6 1.6-.4.4-.9.6-1.6.6-.3 0-.5 0-.8-.1-.3-.1-.5-.1-.7-.2v-6zm.8 3.2v2.2c.3.1.6.1.8.1.4 0 .6-.1.9-.4.2-.3.3-.6.3-1s-.1-.7-.3-1c-.2-.3-.5-.4-.8-.4-.3.1-.6.2-.9.5zm6.3 3v-.5c-.2.2-.4.3-.6.4-.2.1-.4.2-.7.2-.3 0-.5-.1-.7-.2-.2-.1-.4-.3-.5-.5-.1-.2-.2-.6-.2-1.1V106h.8v2.3c0 .4.1.7.2.9.1.2.3.3.6.3.4 0 .7-.2 1-.6V106h.8v4h-.7zm1.7-.3v-.9c.2.2.5.3.7.4.2.1.4.1.6.1.2 0 .3 0 .4-.1s.2-.2.2-.3c0-.1 0-.2-.1-.3-.1-.1-.2-.2-.5-.3-.5-.3-.9-.5-1-.7-.2-.2-.2-.4-.2-.7 0-.3.1-.6.4-.8.2-.2.6-.3.9-.3.4 0 .8.1 1.2.3v.8c-.5-.3-.9-.4-1.2-.4-.2 0-.3 0-.4.1-.1.1-.1.2-.1.3 0 .1 0 .2.1.3.1.1.2.2.5.3l.3.2c.7.4 1 .8 1 1.3 0 .3-.1.6-.4.8-.3.2-.6.3-1 .3-.2 0-.5 0-.6-.1-.3-.1-.5-.2-.8-.3z"/></g><g clip-path="url(#d)" fill="#FFF"><path d="M3.9 117.9v2.9h-.8v-2.2c0-.4-.1-.8-.2-.9-.1-.2-.3-.3-.6-.3-.2 0-.3 0-.5.1-.1.1-.3.2-.5.4v2.9H.5v-4h.8v.5c.4-.4.8-.6 1.2-.6.5 0 .9.2 1.2.7.4-.5.9-.7 1.3-.7s.7.1 1 .4c.3.3.4.7.4 1.3v2.4h-.8v-2.4c0-.3-.1-.6-.2-.8s-.3-.3-.6-.3c-.3.1-.6.3-.9.6zm6.1.5v1.7c0 .1 0 .2.1.2s.2-.1.5-.2v.5c-.2.1-.3.2-.4.2-.1 0-.2.1-.3.1-.3 0-.5-.1-.6-.4-.3.3-.7.4-1.1.4-.3 0-.5-.1-.7-.3-.2-.2-.3-.4-.3-.7 0-.3.1-.5.3-.7.2-.2.4-.4.8-.5l1-.4v-.2c0-.5-.2-.7-.7-.7-.4 0-.9.2-1.3.7v-.9c.3-.4.8-.5 1.3-.5.4 0 .8.1 1.1.3.1.1.2.2.2.3.1.1.1.2.1.4v.7zm-.7 1.7v-1.2l-.5.2c-.3.1-.5.2-.6.3-.2.1-.2.2-.2.4s.1.3.2.4.2.2.4.2.4-.1.7-.3zm1.8-1.9c0-.4.2-.8.5-1 .3-.3.7-.4 1.3-.4h1.7v.6h-.8c.2.2.3.3.3.4s.1.3.1.5-.1.4-.2.6c-.1.2-.3.4-.5.5-.2.1-.5.2-.9.3-.3 0-.5.1-.5.3 0 .1.1.2.2.2.1.1.3.1.6.2.5.1.8.2 1 .3s.3.1.4.3c.2.2.3.4.3.7 0 .4-.2.7-.5.9-.3.2-.8.3-1.4.3-.6 0-1-.1-1.4-.3-.3-.2-.5-.5-.5-.9 0-.5.3-.9 1-1.1-.3-.2-.4-.3-.4-.5 0-.1.1-.2.2-.4s.3-.2.5-.2c-.7-.3-1-.7-1-1.3zm1.4 2.8c-.3 0-.5.1-.7.2-.2.1-.3.3-.3.4 0 .4.4.6 1.1.6.4 0 .6-.1.8-.2.2-.1.3-.3.3-.4 0-.2-.1-.3-.4-.5-.1 0-.5-.1-.8-.1zm.1-3.5c-.2 0-.4.1-.6.2s-.2.3-.2.5.1.4.2.5c.1.1.3.2.6.2.2 0 .4-.1.6-.2.2-.1.2-.3.2-.5s-.1-.4-.2-.5-.3-.2-.6-.2zm3.4-.7v.5c.4-.4.8-.6 1.2-.6.3 0 .5.1.7.2.2.1.4.3.5.5.1.2.2.6.2 1.1v2.3h-.8v-2.3c0-.4-.1-.7-.2-.9-.1-.2-.3-.3-.6-.3-.4 0-.7.2-1 .6v2.9h-.8v-4h.8zm4.1-1.7c.1 0 .2 0 .3.1s.1.2.1.3c0 .1 0 .2-.1.3s-.2.1-.3.1c-.1 0-.2 0-.3-.1-.1-.1-.1-.2-.1-.3 0-.1 0-.2.1-.3.1 0 .2-.1.3-.1zm-.4 1.7h.8v4h-.8v-4zm5.3 1.1v2.9h-.8v-2.2c0-.4-.1-.8-.2-.9-.1-.2-.3-.3-.6-.3-.2 0-.3 0-.5.1-.1.1-.3.2-.5.4v2.9h-.8v-4h.8v.5c.4-.4.8-.6 1.2-.6.5 0 .9.2 1.2.7.4-.5.9-.7 1.3-.7s.7.1 1 .4c.3.3.4.7.4 1.3v2.4h-.8v-2.4c0-.3-.1-.6-.2-.8s-.3-.3-.6-.3c-.3.1-.6.3-.9.6zm4-2.8c.1 0 .2 0 .3.1s.1.2.1.3c0 .1 0 .2-.1.3s-.2.1-.3.1c-.1 0-.2 0-.3-.1-.1-.1-.1-.2-.1-.3 0-.1 0-.2.1-.3.1 0 .2-.1.3-.1zm-.4 1.7h.8v4h-.8v-4zm2.8 0v.5c.4-.4.8-.6 1.2-.6.3 0 .5.1.7.2.2.1.4.3.5.5.1.2.2.6.2 1.1v2.3h-.8v-2.3c0-.4-.1-.7-.2-.9-.1-.2-.3-.3-.6-.3-.4 0-.7.2-1 .6v2.9h-.8v-4h.8zm6.2 4.1v-.5c-.2.2-.4.3-.6.4-.2.1-.4.2-.7.2-.3 0-.5-.1-.7-.2-.2-.1-.4-.3-.5-.5-.1-.2-.2-.6-.2-1.1v-2.3h.8v2.3c0 .4.1.7.2.9.1.2.3.3.6.3.4 0 .7-.2 1-.6v-2.9h.8v4h-.7zm5.2-3v2.9H42v-2.2c0-.4-.1-.8-.2-.9-.1-.2-.3-.3-.6-.3-.2 0-.3 0-.5.1-.1.1-.3.2-.5.4v2.9h-.8v-4h.8v.5c.4-.4.8-.6 1.2-.6.5 0 .9.2 1.2.7.4-.5.9-.7 1.3-.7s.7.1 1 .4c.3.3.4.7.4 1.3v2.4h-.8v-2.4c0-.3-.1-.6-.2-.8s-.3-.3-.6-.3c-.3.1-.6.3-.9.6zm8.8-3.2h.8v6.1h-1.7c-.6 0-1.1-.2-1.4-.6-.4-.4-.5-.9-.5-1.5s.2-1.1.6-1.5c.4-.4.9-.6 1.4-.6.3 0 .6.1.9.2v-2.1zm0 5.5v-2.6c-.2-.1-.5-.2-.8-.2-.4 0-.7.1-1 .4s-.4.6-.4 1.1c0 .4.1.7.3 1 .1.1.3.2.4.3s.4.1.7.1h.8zm2.3-5.1c.1 0 .2 0 .3.1s.1.2.1.3c0 .1 0 .2-.1.3s-.2.1-.3.1c-.1 0-.2 0-.3-.1-.1-.1-.1-.2-.1-.3 0-.1 0-.2.1-.3.1 0 .2-.1.3-.1zm-.4 1.7h.8v4h-.8v-4zm1.4.7l1.5-1.5v.8h1.3v.7h-1.3v2c0 .5.2.7.6.7.3 0 .6-.1.9-.3v.7c-.3.2-.6.3-1 .3s-.7-.1-.9-.3l-.2-.2c0-.1-.1-.2-.1-.3 0-.1-.1-.4-.1-.7v-1.8l-.7-.1zm4-2.4c.1 0 .2 0 .3.1s.1.2.1.3c0 .1 0 .2-.1.3s-.2.1-.3.1c-.1 0-.2 0-.3-.1-.1-.1-.1-.2-.1-.3 0-.1 0-.2.1-.3.1 0 .2-.1.3-.1zm-.4 1.7h.8v4h-.8v-4zm1.8 3.8v-.9c.2.2.5.3.7.4.2.1.4.1.6.1.2 0 .3 0 .4-.1s.2-.2.2-.3c0-.1 0-.2-.1-.3-.1-.1-.2-.2-.5-.3-.5-.3-.9-.5-1-.7-.2-.2-.2-.4-.2-.7 0-.3.1-.6.4-.8.2-.2.6-.3.9-.3.4 0 .8.1 1.2.3v.8c-.5-.3-.9-.4-1.2-.4-.2 0-.3 0-.4.1-.1.1-.1.2-.1.3 0 .1 0 .2.1.3s.2.2.5.3l.3.2c.7.4 1 .8 1 1.3 0 .3-.1.6-.4.8-.3.2-.6.3-1 .3-.2 0-.5 0-.6-.1-.3-.1-.6-.2-.8-.3zm9.4-2.7v2.9h-.8v-2.2c0-.4-.1-.8-.2-.9-.1-.2-.3-.3-.6-.3-.2 0-.3 0-.5.1-.1.1-.3.2-.5.4v2.9h-.8v-4h.8v.5c.4-.4.8-.6 1.2-.6.5 0 .9.2 1.2.7.4-.5.9-.7 1.3-.7s.7.1 1 .4c.3.3.4.7.4 1.3v2.4h-.8v-2.4c0-.3-.1-.6-.2-.8s-.3-.3-.6-.3c-.3.1-.6.3-.9.6zm6.2.5v1.7c0 .1 0 .2.1.2s.2-.1.5-.2v.5c-.2.1-.3.2-.4.2-.1 0-.2.1-.3.1-.3 0-.5-.1-.6-.4-.3.3-.7.4-1.1.4-.3 0-.5-.1-.7-.3-.2-.2-.3-.4-.3-.7 0-.3.1-.5.3-.7.2-.2.4-.4.8-.5l1-.4v-.2c0-.5-.2-.7-.7-.7-.4 0-.9.2-1.3.7v-.9c.3-.4.8-.5 1.3-.5.4 0 .8.1 1.1.3.1.1.2.2.2.3.1.1.1.2.1.4v.7zm-.8 1.7v-1.2l-.5.2c-.3.1-.5.2-.6.3-.1.1-.2.2-.2.4s.1.3.2.4.2.2.4.2c.3 0 .5-.1.7-.3zm4.9-3.3h1l-1.7 2 1.8 2.1h-1l-1.3-1.5-1.2 1.5h-1l1.7-2-1.7-2h1l1.2 1.4 1.2-1.5zm2.1-1.7c.1 0 .2 0 .3.1s.1.2.1.3c0 .1 0 .2-.1.3s-.2.1-.3.1c-.1 0-.2 0-.3-.1-.1-.1-.1-.2-.1-.3 0-.1 0-.2.1-.3.1 0 .2-.1.3-.1zm-.4 1.7h.8v4h-.8v-4zm5.3 1.1v2.9h-.8v-2.2c0-.4-.1-.8-.2-.9-.1-.2-.3-.3-.6-.3-.2 0-.3 0-.5.1-.1.1-.3.2-.5.4v2.9h-.8v-4h.8v.5c.4-.4.8-.6 1.2-.6.5 0 .9.2 1.2.7.4-.5.9-.7 1.3-.7s.7.1 1 .4c.3.3.4.7.4 1.3v2.4h-.8v-2.4c0-.3-.1-.6-.2-.8s-.3-.3-.6-.3c-.3.1-.6.3-.9.6zm6.1 3v-.5c-.2.2-.4.3-.6.4-.2.1-.4.2-.7.2-.3 0-.5-.1-.7-.2-.2-.1-.4-.3-.5-.5-.1-.2-.2-.6-.2-1.1v-2.3h.8v2.3c0 .4.1.7.2.9.1.2.3.3.6.3.4 0 .7-.2 1-.6v-2.9h.8v4h-.7zm1.7-.3v-.9c.2.2.5.3.7.4.2.1.4.1.6.1.2 0 .3 0 .4-.1.1-.1.2-.2.2-.3 0-.1 0-.2-.1-.3-.1-.1-.2-.2-.5-.3-.5-.3-.9-.5-1-.7-.2-.2-.2-.4-.2-.7 0-.3.1-.6.4-.8.2-.2.6-.3.9-.3.4 0 .8.1 1.2.3v.8c-.5-.3-.9-.4-1.2-.4-.2 0-.3 0-.4.1-.1.1-.1.2-.1.3 0 .1 0 .2.1.3s.2.2.5.3l.3.2c.7.4 1 .8 1 1.3 0 .3-.1.6-.4.8-.3.2-.6.3-1 .3-.2 0-.5 0-.6-.1-.2-.1-.5-.2-.8-.3zm6.4-5.9h.8v6.1h-1.7c-.6 0-1.1-.2-1.4-.6-.4-.4-.5-.9-.5-1.5s.2-1.1.6-1.5c.4-.4.9-.6 1.4-.6.3 0 .6.1.9.2v-2.1zm0 5.5v-2.6c-.2-.1-.5-.2-.8-.2-.4 0-.7.1-1 .4s-.4.6-.4 1.1c0 .4.1.7.3 1 .1.1.3.2.4.3.1 0 .4.1.7.1h.8zm4.4-1.8v1.7c0 .1 0 .2.1.2s.2-.1.5-.2v.5c-.2.1-.3.2-.4.2-.1 0-.2.1-.3.1-.3 0-.5-.1-.6-.4-.3.3-.7.4-1.1.4-.3 0-.5-.1-.7-.3-.2-.2-.3-.4-.3-.7 0-.3.1-.5.3-.7.2-.2.4-.4.8-.5l1-.4v-.2c0-.5-.2-.7-.7-.7-.4 0-.9.2-1.3.7v-.9c.3-.4.8-.5 1.3-.5.4 0 .8.1 1.1.3.1.1.2.2.2.3.1.1.1.2.1.4v.7zm-.8 1.7v-1.2l-.5.2c-.3.1-.5.2-.6.3-.1.1-.2.2-.2.4s.1.3.2.4.2.2.4.2c.3 0 .5-.1.7-.3zm5.4-2.2v2.9h-.8v-2.2c0-.4-.1-.8-.2-.9-.1-.2-.3-.3-.6-.3-.2 0-.3 0-.5.1-.1.1-.3.2-.5.4v2.9h-.8v-4h.8v.5c.4-.4.8-.6 1.2-.6.5 0 .9.2 1.2.7.4-.5.9-.7 1.3-.7s.7.1 1 .4c.3.3.4.7.4 1.3v2.4h-.7v-2.4c0-.3-.1-.6-.2-.8-.1-.2-.3-.3-.6-.3-.4.1-.7.3-1 .6zm3.5 4v-.2c.1-.1.2-.3.3-.4.1-.1.1-.3.1-.5-.3-.1-.5-.3-.5-.6 0-.2.1-.3.2-.4.1-.1.2-.2.4-.2s.3.1.4.2.2.4.2.6c0 .3-.1.6-.3.9s-.4.5-.8.6zm5.6-5.1h1.5v6.1h-.8v-2.1c-.3.1-.6.1-.9.1-.6 0-1-.2-1.4-.6s-.6-.9-.6-1.5.2-1.1.6-1.5 1-.5 1.6-.5zm.8 3.3v-2.5h-1.2c-.1 0-.2.1-.3.1-.1.1-.2.1-.2.2-.2.2-.3.6-.3.9 0 .4.1.8.4 1s.6.4 1 .4h.2c.1 0 .2 0 .4-.1zm4.4.8v-.5c-.2.2-.4.3-.6.4-.2.1-.4.2-.7.2-.3 0-.5-.1-.7-.2-.2-.1-.4-.3-.5-.5-.1-.2-.2-.6-.2-1.1v-2.3h.8v2.3c0 .4.1.7.2.9.1.2.3.3.6.3.4 0 .7-.2 1-.6v-2.9h.8v4h-.7zm2.3-5.8c.1 0 .2 0 .3.1s.1.2.1.3c0 .1 0 .2-.1.3s-.2.1-.3.1c-.1 0-.2 0-.3-.1-.1-.1-.1-.2-.1-.3 0-.1 0-.2.1-.3.1 0 .2-.1.3-.1zm-.4 1.7h.8v4h-.8v-4zm4.5 1.6v1.7c0 .1 0 .2.1.2s.2-.1.5-.2v.5c-.2.1-.3.2-.4.2-.1 0-.2.1-.3.1-.3 0-.5-.1-.6-.4-.3.3-.7.4-1.1.4-.3 0-.5-.1-.7-.3-.2-.2-.3-.4-.3-.7 0-.3.1-.5.3-.7.2-.2.4-.4.8-.5l1-.4v-.2c0-.5-.2-.7-.7-.7-.4 0-.9.2-1.3.7v-.9c.3-.4.8-.5 1.3-.5.4 0 .8.1 1 .3.1.1.2.2.2.3.1.1.1.2.1.4.1.2.1.4.1.7zm-.7 1.7v-1.2l-.5.2c-.3.1-.5.2-.6.3-.1.1-.2.2-.2.4s.1.3.2.4c.1.1.2.2.4.2s.4-.1.7-.3zm7.2-5.4h.8v6.1h-1.7c-.6 0-1.1-.2-1.4-.6-.4-.4-.5-.9-.5-1.5s.2-1.1.6-1.5c.4-.4.9-.6 1.4-.6.3 0 .6.1.9.2v-2.1zm0 5.5v-2.6c-.2-.1-.5-.2-.8-.2-.4 0-.7.1-1 .4s-.4.6-.4 1.1c0 .4.1.7.3 1 .1.1.3.2.4.3.1 0 .4.1.7.1h.8zm5.4-1.3H140c0 .4.1.7.4.9s.5.3.9.3c.5 0 1-.2 1.5-.5v.8c-.2.2-.5.3-.7.4-.2.1-.5.1-.9.1s-.8-.1-1.1-.3c-.3-.2-.5-.4-.7-.7-.2-.3-.2-.7-.2-1.1 0-.6.2-1.1.5-1.5.3-.4.8-.6 1.4-.6.5 0 1 .2 1.3.6s.5.9.5 1.5v.1zm-2.8-.5h2c0-.3-.1-.6-.3-.7s-.4-.3-.7-.3-.5.1-.7.3c-.2.2-.3.4-.3.7zm3.7-3.7h.8v6.1h-.8v-6.1zm2.3.4c.1 0 .2 0 .3.1s.1.2.1.3c0 .1 0 .2-.1.3s-.2.1-.3.1c-.1 0-.2 0-.3-.1-.1-.1-.1-.2-.1-.3 0-.1 0-.2.1-.3.1 0 .2-.1.3-.1zm-.4 1.7h.8v4h-.8v-4zm1.4.7l1.5-1.5v.8h1.3v.7h-1.3v2c0 .5.2.7.6.7.3 0 .6-.1.9-.3v.7c-.3.2-.6.3-1 .3s-.7-.1-.9-.3l-.2-.2c-.1-.1-.1-.2-.1-.3 0-.1-.1-.4-.1-.7v-1.8l-.7-.1z"/></g><g clip-path="url(#d)" fill="#FFF"><path d="M.6 125.5h.8v6.1H.6v-6.1zm2.4.4c.1 0 .2 0 .3.1s.1.2.1.3c0 .1 0 .2-.1.3s-.2.1-.3.1c-.1 0-.2 0-.3-.1-.1-.1-.1-.2-.1-.3 0-.1 0-.2.1-.3 0 0 .1-.1.3-.1zm-.4 1.7h.8v4h-.8v-4zm3.8 0h1.5v6.1h-.8v-2.1c-.3.1-.6.1-.9.1-.6 0-1.1-.2-1.4-.6-.4-.4-.6-.9-.6-1.5s.2-1.1.6-1.5 1-.5 1.6-.5zm.7 3.3v-2.5H5.9c-.1 0-.2.1-.3.1-.1.1-.2.1-.2.2-.2.2-.3.6-.3.9 0 .4.1.8.4 1s.6.4 1 .4h.2c.1 0 .2 0 .4-.1zm4.5.8v-.5c-.2.2-.4.3-.6.4-.2.1-.4.2-.7.2-.3 0-.5-.1-.7-.2-.2-.1-.4-.3-.5-.5-.1-.2-.2-.6-.2-1.1v-2.3h.8v2.3c0 .4.1.7.2.9.1.2.3.3.6.3.4 0 .7-.2 1-.6v-2.9h.8v4h-.7zm2.3-5.8c.1 0 .2 0 .3.1s.1.2.1.3c0 .1 0 .2-.1.3s-.2.1-.3.1c-.1 0-.2 0-.3-.1-.1-.1-.1-.2-.1-.3 0-.1 0-.2.1-.3.1 0 .2-.1.3-.1zm-.4 1.7h.8v4h-.8v-4zm4.5 1.6v1.7c0 .1 0 .2.1.2s.2-.1.5-.2v.5c-.2.1-.3.2-.4.2-.1 0-.2.1-.3.1-.3 0-.5-.1-.6-.4-.3.3-.7.4-1.1.4-.3 0-.5-.1-.7-.3-.2-.2-.3-.4-.3-.7 0-.3.1-.5.3-.7.2-.2.4-.4.8-.5l1-.4v-.1c0-.5-.2-.7-.7-.7-.4 0-.9.2-1.3.7v-.9c.3-.4.8-.5 1.3-.5.4 0 .8.1 1.1.3.1.1.2.2.2.3.1.1.1.2.1.4v.6zm-.8 1.7v-1.2l-.5.2c-.3.1-.5.2-.6.3-.1.1-.2.2-.2.4s.1.3.2.4.2.2.4.2c.3 0 .5-.1.7-.3zm1.6-2.6l1.5-1.5v.8h1.3v.7h-1.3v2c0 .5.2.7.6.7.3 0 .6-.1.9-.3v.7c-.3.2-.6.3-1 .3s-.7-.1-.9-.3l-.2-.2c0-.1-.1-.2-.1-.3 0-.1-.1-.4-.1-.7v-1.8l-.7-.1zm7 1.4H23c0 .4.1.7.4.9s.5.3.9.3c.5 0 1-.2 1.5-.5v.8c-.2.2-.5.3-.7.4-.2.1-.5.1-.9.1s-.8-.1-1.1-.3c-.3-.2-.5-.4-.7-.7-.2-.3-.2-.7-.2-1.1 0-.6.2-1.1.5-1.5.3-.4.8-.6 1.4-.6.5 0 1 .2 1.3.6s.5.9.5 1.5v.1zm-2.9-.5h2c0-.3-.1-.6-.3-.7s-.4-.3-.7-.3-.5.1-.7.3c-.1.2-.2.4-.3.7zm7-.5v2.9h-.8v-2.2c0-.4-.1-.8-.2-.9-.1-.2-.3-.3-.6-.3-.2 0-.3 0-.5.1-.1.1-.3.2-.5.4v2.9h-.8v-4h.8v.5c.4-.4.8-.6 1.2-.6.5 0 .9.2 1.2.7.4-.5.9-.7 1.3-.7s.7.1 1 .4c.3.3.4.7.4 1.3v2.4h-.8v-2.4c0-.3-.1-.6-.2-.8s-.3-.3-.6-.3c-.3.1-.6.3-.9.6zm6 2.7v-.9c.2.2.5.3.7.4.2.1.4.1.6.1.2 0 .3 0 .4-.1s.2-.2.2-.3c0-.1 0-.2-.1-.3-.1-.1-.2-.2-.5-.3-.5-.3-.9-.5-1-.7-.2-.2-.2-.4-.2-.7 0-.3.1-.6.4-.8.2-.2.6-.3.9-.3.4 0 .8.1 1.2.3v.8c-.5-.3-.9-.4-1.2-.4-.2 0-.3 0-.4.1-.1.1-.1.2-.1.3 0 .1 0 .2.1.3s.2.2.5.3l.3.2c.7.4 1 .8 1 1.3 0 .3-.1.6-.4.8-.3.2-.6.3-1 .3-.2 0-.5 0-.6-.1-.3-.1-.5-.2-.8-.3zm7.1-1.7h-2.8c0 .4.1.7.4.9s.5.3.9.3c.5 0 1-.2 1.5-.5v.8c-.2.2-.5.3-.7.4-.2.1-.5.1-.9.1s-.8-.1-1.1-.3c-.3-.2-.5-.4-.7-.7-.2-.3-.2-.7-.2-1.1 0-.6.2-1.1.5-1.5.3-.4.8-.6 1.4-.6.5 0 1 .2 1.3.6s.5.9.5 1.5v.1zm-2.8-.5h2c0-.3-.1-.6-.3-.7s-.4-.3-.7-.3-.5.1-.7.3c-.2.2-.3.4-.3.7zm5.6-1.6h1.5v6.1h-.8v-2.1c-.3.1-.6.1-.9.1-.6 0-1.1-.2-1.4-.6-.4-.4-.6-.9-.6-1.5s.2-1.1.6-1.5.9-.5 1.6-.5zm.7 3.3v-2.5h-1.2c-.1 0-.2.1-.3.1-.1.1-.2.1-.2.2-.2.2-.3.6-.3.9 0 .4.1.8.4 1s.6.4 1 .4h.2c.1 0 .2 0 .4-.1zm4.4.8v-.5c-.2.2-.4.3-.6.4-.2.1-.4.2-.7.2-.3 0-.5-.1-.7-.2-.2-.1-.4-.3-.5-.5-.1-.2-.2-.6-.2-1.1v-2.3h.8v2.3c0 .4.1.7.2.9.1.2.3.3.6.3.4 0 .7-.2 1-.6v-2.9h.8v4h-.7zm5.2-4.1v.5c.4-.4.8-.6 1.2-.6.3 0 .5.1.7.2.2.1.4.3.5.5.1.2.2.6.2 1.1v2.3h-.8v-2.3c0-.4-.1-.7-.2-.9-.1-.2-.3-.3-.6-.3-.4 0-.7.2-1 .6v2.9h-.8v-4h.8zm5.7 0c.6 0 1.1.2 1.5.6.4.4.6.9.6 1.5s-.2 1.1-.6 1.5c-.4.4-.9.6-1.6.6-.6 0-1.1-.2-1.5-.6-.4-.4-.6-.9-.6-1.5s.2-1.1.6-1.5c.4-.4 1-.6 1.6-.6zm-.1.7c-.4 0-.7.1-.9.4s-.4.6-.4 1 .1.7.4.9c.3.2.6.4 1 .4s.7-.1 1-.4c.3-.2.4-.6.4-1s-.1-.7-.4-1-.7-.3-1.1-.3zm3.9-.7v.5c.4-.4.8-.6 1.2-.6.3 0 .5.1.7.2.2.1.4.3.5.5.1.2.2.6.2 1.1v2.3h-.8v-2.3c0-.4-.1-.7-.2-.9-.1-.2-.3-.3-.6-.3-.4 0-.7.2-1 .6v2.9h-.8v-4h.8zm5.6.7l1.5-1.5v.8H74v.7h-1.3v2c0 .5.2.7.6.7.3 0 .6-.1.9-.3v.7c-.3.2-.6.3-1 .3s-.7-.1-.9-.3l-.2-.2c0-.1-.1-.2-.1-.3 0-.1-.1-.4-.1-.7v-1.8l-.7-.1zm6.2.9v1.7c0 .1 0 .2.1.2s.2-.1.5-.2v.5c-.2.1-.3.2-.4.2-.1 0-.2.1-.3.1-.3 0-.5-.1-.6-.4-.3.3-.7.4-1.1.4-.3 0-.5-.1-.7-.3-.2-.2-.3-.4-.3-.7 0-.3.1-.5.3-.7.2-.2.4-.4.8-.5l1-.4v-.1c0-.5-.2-.7-.7-.7-.4 0-.9.2-1.3.7v-.9c.3-.4.8-.5 1.3-.5.4 0 .8.1 1.1.3.1.1.2.2.2.3.1.1.1.2.1.4-.1.1 0 .3 0 .6zm-.8 1.7v-1.2l-.5.2c-.3.1-.5.2-.6.3-.1.1-.2.2-.2.4s.1.3.2.4.2.2.4.2.4-.1.7-.3zm1.5-2.6l1.5-1.5v.8h1.3v.7h-1.3v2c0 .5.2.7.6.7.3 0 .6-.1.9-.3v.7c-.3.2-.6.3-1 .3s-.7-.1-.9-.3l-.2-.2c0-.1-.1-.2-.1-.3 0-.1-.1-.4-.1-.7v-1.8l-.7-.1zm4-2.4c.1 0 .2 0 .3.1s.1.2.1.3c0 .1 0 .2-.1.3s-.2.1-.3.1c-.1 0-.2 0-.3-.1-.1-.1-.1-.2-.1-.3 0-.1 0-.2.1-.3 0 0 .1-.1.3-.1zm-.4 1.7h.8v4h-.8v-4zm4.5 1.6v1.7c0 .1 0 .2.1.2s.2-.1.5-.2v.5c-.2.1-.3.2-.4.2-.1 0-.2.1-.3.1-.3 0-.5-.1-.6-.4-.3.3-.7.4-1.1.4-.3 0-.5-.1-.7-.3-.2-.2-.3-.4-.3-.7 0-.3.1-.5.3-.7.2-.2.4-.4.8-.5l1-.4v-.1c0-.5-.2-.7-.7-.7-.4 0-.9.2-1.3.7v-.9c.3-.4.8-.5 1.3-.5.4 0 .8.1 1.1.3.1.1.2.2.2.3.1.1.1.2.1.4v.6zm-.8 1.7v-1.2l-.5.2c-.3.1-.5.2-.6.3-.1.1-.2.2-.2.4s.1.3.2.4.2.2.4.2.5-.1.7-.3zm1.9.5v-.9c.2.2.5.3.7.4.2.1.4.1.6.1.2 0 .3 0 .4-.1s.2-.2.2-.3c0-.1 0-.2-.1-.3-.1-.1-.2-.2-.5-.3-.5-.3-.9-.5-1-.7-.2-.2-.2-.4-.2-.7 0-.3.1-.6.4-.8.2-.2.6-.3.9-.3.4 0 .8.1 1.2.3v.8c-.5-.3-.9-.4-1.2-.4-.2 0-.3 0-.4.1-.1.1-.1.2-.1.3 0 .1 0 .2.1.3s.2.2.5.3l.3.2c.7.4 1 .8 1 1.3 0 .3-.1.6-.4.8-.3.2-.6.3-1 .3-.2 0-.5 0-.6-.1-.3-.1-.5-.2-.8-.3zm4-.7c.1 0 .3.1.4.2s.2.2.2.4c0 .1-.1.3-.2.4s-.2.1-.4.1c-.1 0-.3 0-.4-.1s-.2-.2-.2-.4c0-.1.1-.3.2-.4s.3-.2.4-.2z"/></g></svg>