<svg xmlns="http://www.w3.org/2000/svg" xmlns:xlink="http://www.w3.org/1999/xlink" viewBox="0 0 83.5 30"><defs><path id="a" d="M0 0h83.5v30H0z"/></defs><clipPath id="b"><use xlink:href="#a" overflow="visible"/></clipPath><g clip-path="url(#b)"><defs><path id="c" d="M0 0h83.5v30H0z"/></defs><clipPath id="d"><use xlink:href="#c" overflow="visible"/></clipPath><g opacity=".5" clip-path="url(#d)"><defs><path id="e" d="M-9-7H92.5v38H-9z"/></defs><clipPath id="f"><use xlink:href="#e" overflow="visible"/></clipPath><path clip-path="url(#f)" fill="#231F20" d="M12.5 0L0 15.6 11.6 30h71.9V0z"/></g></g><g clip-path="url(#b)" fill="#FFF"><path d="M31.8 21.1V12l-.3 2.1-1.1 7h-1.2l-1.1-7-.3-2.1v9.1h-1.2v-12h1.9l1.1 7.4.3 2.1.3-2.1 1.1-7.4H33v12h-1.2zm5.1.2c-1.4 0-2.3-1-2.3-2.5v-7.3c0-1.4.9-2.5 2.3-2.5s2.3 1.1 2.3 2.5v7.3c0 1.5-.9 2.5-2.3 2.5zm1-10c0-.6-.4-1.1-1-1.1s-1 .5-1 1.1V19c0 .6.3 1.1 1 1.1s1-.5 1-1.1v-7.7zm7.3 9.9c-.9 0-1.2-.3-1.2-1.3v-3.1c0-.6-.3-1-.8-1h-1v5.3h-1.3v-12h2.4c1.1 0 2 .6 2 2.2v2.3c0 .9-.3 1.5-1 1.7.7.2 1 .9 1 1.7v2.9c0 .3.1.5.3.5v.9h-.4zm-1.3-10c0-.6-.2-.8-.7-.8h-1v4.4h.9c.5 0 .8-.4.8-1v-2.6zm6.7 9.9l-2-6.1-.6-1.9v8h-1.2v-12H48l1.9 6.2.5 1.9V9.1h1.2v12h-1zm2.6 0v-12h1.3v12h-1.3zm6.9 0l-2-6.1-.6-1.9v8h-1.2v-12h1.2l1.9 6.2.5 1.9V9.1H61v12h-.9zm6.5 0l-.3-.7c-.3.6-.9.9-1.6.9-1.2 0-2.1-.9-2.1-2.5v-7.4c0-1.4.9-2.5 2.3-2.5s2.2 1 2.2 2.5V13h-1.2v-1.8c0-.5-.3-1-1-1s-1 .5-1 1V19c0 .6.3 1.1 1 1.1s1-.5 1-1.1v-2.7h-1v-1.1h2.2v6h-.5z"/></g></svg>