<svg xmlns="http://www.w3.org/2000/svg" xmlns:xlink="http://www.w3.org/1999/xlink" viewBox="0 0 83.2 30.1"><defs><path id="a" d="M0 0h83.2v30.1H0z"/></defs><clipPath id="b"><use xlink:href="#a" overflow="visible"/></clipPath><g clip-path="url(#b)"><defs><path id="c" d="M0 0h83.2v30.1H0z"/></defs><clipPath id="d"><use xlink:href="#c" overflow="visible"/></clipPath><g opacity=".5" clip-path="url(#d)"><defs><path id="e" d="M-9-6.9h93.4v38H-9z"/></defs><clipPath id="f"><use xlink:href="#e" overflow="visible"/></clipPath><path clip-path="url(#f)" fill="#231F20" d="M11.3.1L0 15.7l10.5 14.4h64.9V.1z"/></g></g><g clip-path="url(#b)" fill="#FFF"><path d="M18.6 21.3l-.3-2.6h-1.7l-.4 2.6H15l1.8-12h1.4l1.7 12h-1.3zm-1.1-9.2l-.7 5.3h1.3l-.6-5.3zm4.9-1.6v4.1h1.9v1.2h-1.9v5.5h-1.3v-12h3.7v1.2h-2.4zm6.1 0v10.8h-1.3V10.5h-1.6V9.3H30v1.2h-1.5zm2.8 10.8v-12h3.8v1.2h-2.5v4h1.8v1.2h-1.8V20h2.5v1.2h-3.8zm9.6.1c-.9 0-1.2-.3-1.2-1.3V17c0-.6-.3-1-.8-1h-1v5.3h-1.3v-12H39c1.1 0 2 .6 2 2.2v2.3c0 .9-.3 1.5-1 1.7.7.2 1 .9 1 1.7V20c0 .3.1.5.3.5v.9h-.4zm-1.3-10.1c0-.6-.2-.8-.7-.8h-1v4.4h.9c.5 0 .8-.4.8-1v-2.6zm6.7 10l-2-6.1-.6-1.9v8h-1.2v-12h1.2l1.9 6.2.5 1.9V9.3h1.2v12h-1zm4.9.1c-1.4 0-2.3-1-2.3-2.5v-7.3c0-1.4.9-2.5 2.3-2.5s2.3 1.1 2.3 2.5v7.3c0 1.5-.9 2.5-2.3 2.5zm1-10c0-.6-.4-1.1-1-1.1s-1 .5-1 1.1v7.7c0 .6.3 1.1 1 1.1s1-.5 1-1.1v-7.7zm5.1 10c-1.4 0-2.3-1-2.3-2.5v-7.3c0-1.4.9-2.5 2.3-2.5s2.3 1.1 2.3 2.5v7.3c0 1.5-.9 2.5-2.3 2.5zm1-10c0-.6-.4-1.1-1-1.1s-1 .5-1 1.1v7.7c0 .6.3 1.1 1 1.1s1-.5 1-1.1v-7.7zm6.7 9.9l-2-6.1-.6-1.9v8h-1.2v-12h1.2l1.9 6.2.5 1.9V9.3H66v12h-1z"/></g></svg>