<?xml version="1.0" encoding="utf-8"?>
<!-- Generator: Adobe Illustrator 19.1.0, SVG Export Plug-In . SVG Version: 6.00 Build 0)  -->
<svg version="1.1" id="Layer_1" xmlns="http://www.w3.org/2000/svg" xmlns:xlink="http://www.w3.org/1999/xlink" x="0px" y="0px"
	 viewBox="-225 357 160 80" style="enable-background:new -225 357 160 80;" xml:space="preserve">
<style type="text/css">
	.st0{fill:#FF3C36;}
	.st1{fill:#0076FF;}
	.st2{fill:#CC3D49;}
</style>
<path class="st0" d="M-154.1,418.6c4.8-6.9,7.6-15.2,7.6-24.2c0-2.2-0.2-4.4-0.5-6.6h-14.5h-1.4h-23.3v20h10.8
	c0,0.5-5.5,5.9-13.9,5.9c-9.1,0-19.5-7.2-19.7-18.8c-0.2-12,10.2-19.9,19.7-19.5c7.8,0.3,10.7,2.5,15.1,6.8c0,0,6.3,0,12.6,0
	c0.5,0,1,0,1.5,0l0,0c5.7,0,11.1,0,11.8,0c-0.8-2.9-2.6-7.3-5.8-11.8c0,0,0,0,0,0c-0.3-0.4-0.5-0.8-0.8-1.1
	c-6.4-8.5-17.4-17.1-34.6-17.1c-20.2,0-35.8,13.5-40.9,30c-0.1,0.2-0.1,0.4-0.2,0.6c0,0,0,0,0,0c-1.1,3.7-1.6,7.6-1.6,11.6
	c0,3.9,0.5,7.6,1.5,11c3.2,12.1,11.7,22,22.8,27.3c0.1,0,0.2,0.1,0.3,0.1c0.1,0,0.1,0.1,0.2,0.1c5.6,2.6,11.9,4,18.6,4
	c14.2-0.1,26.7-7.1,34.4-17.7C-154.4,419-154.3,418.8-154.1,418.6"/>
<path class="st1" d="M-82.8,419.5c0,0,7.9-10.3,7.9-23.7c0.1-26.3-18.4-43.4-44.1-43.4c-14.9,0-27.5,7.2-35.2,17.9
	c3.2,4.5,5,8.9,5.8,11.8c-0.7,0-6.1,0-11.8,0c-0.6,1.9-1.1,3.8-1.4,5.7h14.5c0.3,2.1,0.5,4.3,0.5,6.6c0,9-2.8,17.4-7.6,24.2
	c7.5,10.8,19.9,18.6,35.3,18.6c10.2,0,17.4-4.4,18.7-5.1l2.7,3.6h26.2L-82.8,419.5z M-98.8,400.4l-2.2-3h-26.5l10.8,15.6
	c-11.2,2.2-21.8-7.2-21.7-18.1c0.2-11.2,9.2-19.5,19.9-19.5C-106.7,375.4-94.9,388.2-98.8,400.4"/>
<path class="st2" d="M-148.4,382.1c-0.8-2.9-2.6-7.3-5.8-11.8c-2.6,3.6-4.6,7.6-6,11.8C-154.4,382.1-149,382.1-148.4,382.1"/>
<path class="st2" d="M-147,387.8h-14.5c-0.1,0.9-0.3,1.7-0.4,2.6c-0.3,6.4,0.3,9.4,0.3,9.4c0.9,6.6,3.5,13.2,7.4,18.8
	c4.8-6.9,7.6-15.2,7.6-24.2C-146.5,392.1-146.7,389.9-147,387.8"/>
</svg>
