<?xml version="1.0" encoding="utf-8"?>
<!-- Generator: Adobe Illustrator 18.1.1, SVG Export Plug-In . SVG Version: 6.00 Build 0)  -->
<svg version="1.1" xmlns="http://www.w3.org/2000/svg" xmlns:xlink="http://www.w3.org/1999/xlink" x="0px" y="0px"
	 viewBox="0 0 68.8 25" enable-background="new 0 0 68.8 25" xml:space="preserve">
<g id="Layer_1" display="none">
	<g display="inline">
		<path fill="#FFFFFF" d="M5.2,10.7H4.1L3.2,3.7l-0.9,6.9H1.2L0,0h1.1l0.7,7.7l1-7.7h0.9l0.9,7.7L5.5,0h1.1L5.2,10.7z"/>
		<path fill="#FFFFFF" d="M7.6,10.7V0h1.2v10.7H7.6z"/>
		<path fill="#FFFFFF" d="M10.3,10.7V0h1.2v9.6h2.2v1.1H10.3z"/>
		<path fill="#FFFFFF" d="M14.7,10.7V0h1.2v9.6H18v1.1H14.7z"/>
		<path fill="#FFFFFF" d="M25.9,10.7V2.6l-0.3,1.9l-1,6.2h-1.1l-1-6.2l-0.3-1.9v8.1h-1V0h1.6l1,6.6l0.3,1.9l0.3-1.9L25.4,0H27v10.7
			H25.9z"/>
		<path fill="#FFFFFF" d="M31.2,10.7l-0.3-2.3h-1.5l-0.3,2.3H28L29.6,0h1.2l1.6,10.7H31.2z M30.2,2.5l-0.6,4.8h1.2L30.2,2.5z"/>
		<path fill="#FFFFFF" d="M33.4,10.7V0h1.2v9.6h2.2v1.1H33.4z"/>
		<path fill="#FFFFFF" d="M41.3,10.7l-1.8-5.4l-0.5-1.7v7.1h-1.1V0h1l1.6,5.5L41,7.2V0h1.1v10.7H41.3z"/>
		<path fill="#FFFFFF" d="M46.3,10.7L46,8.4h-1.5l-0.3,2.3h-1.1L44.7,0h1.2l1.6,10.7H46.3z M45.3,2.5l-0.6,4.8h1.2L45.3,2.5z"/>
		<path fill="#FFFFFF" d="M50.4,1.1v9.6h-1.1V1.1h-1.4V0h3.9v1.1H50.4z"/>
		<path fill="#FFFFFF" d="M52.8,10.7V0H54v10.7H52.8z"/>
	</g>
	<g display="inline">
		<path fill="#D0D2D3" d="M21.7,15.8h0.9v6.8h-0.8l-4.6-5.3v5.3h-0.9v-6.8h0.8l4.6,5.3V15.8z"/>
		<path fill="#D0D2D3" d="M24.6,16.3c0.1,0,0.3,0.1,0.4,0.2s0.2,0.2,0.2,0.4c0,0.1-0.1,0.3-0.2,0.4s-0.2,0.2-0.4,0.2
			c-0.1,0-0.3-0.1-0.4-0.2c-0.1-0.1-0.2-0.2-0.2-0.4c0-0.1,0.1-0.3,0.2-0.4C24.4,16.3,24.5,16.3,24.6,16.3z M24.2,18.2h0.9v4.5h-0.9
			V18.2z"/>
		<path fill="#D0D2D3" d="M26.3,19.7c0-0.5,0.2-0.9,0.5-1.1c0.4-0.3,0.8-0.4,1.4-0.4h1.9v0.7h-0.9c0.2,0.2,0.3,0.3,0.4,0.5
			s0.1,0.3,0.1,0.5c0,0.2-0.1,0.5-0.2,0.7c-0.1,0.2-0.3,0.4-0.5,0.5s-0.6,0.2-1,0.3c-0.3,0-0.5,0.2-0.5,0.3c0,0.1,0.1,0.2,0.2,0.3
			c0.1,0.1,0.4,0.1,0.7,0.2c0.6,0.1,0.9,0.2,1.1,0.3s0.3,0.2,0.4,0.3c0.2,0.2,0.3,0.5,0.3,0.8c0,0.4-0.2,0.8-0.6,1S28.7,25,28,25
			c-0.6,0-1.2-0.1-1.5-0.4c-0.4-0.3-0.6-0.6-0.6-1c0-0.6,0.4-1,1.1-1.2c-0.3-0.2-0.4-0.4-0.4-0.6c0-0.1,0.1-0.3,0.2-0.4
			s0.3-0.2,0.5-0.3C26.7,20.8,26.3,20.4,26.3,19.7z M27.8,22.9c-0.3,0-0.5,0.1-0.7,0.2s-0.3,0.3-0.3,0.5c0,0.5,0.4,0.7,1.2,0.7
			c0.4,0,0.7-0.1,0.9-0.2c0.2-0.1,0.3-0.3,0.3-0.5c0-0.2-0.1-0.4-0.4-0.5C28.6,22.9,28.2,22.9,27.8,22.9z M28,18.9
			c-0.2,0-0.4,0.1-0.6,0.2s-0.3,0.4-0.3,0.6c0,0.2,0.1,0.4,0.2,0.6c0.2,0.2,0.4,0.2,0.6,0.2c0.3,0,0.5-0.1,0.6-0.2
			c0.2-0.2,0.3-0.3,0.3-0.6c0-0.2-0.1-0.4-0.3-0.6S28.2,18.9,28,18.9z"/>
		<path fill="#D0D2D3" d="M31,15.8h0.9v2.9c0.4-0.5,0.8-0.7,1.4-0.7c0.3,0,0.6,0.1,0.8,0.2s0.4,0.4,0.5,0.6c0.1,0.3,0.2,0.7,0.2,1.2
			v2.6h-0.9v-2.8c0-0.3-0.1-0.6-0.2-0.8c-0.2-0.2-0.4-0.3-0.6-0.3c-0.2,0-0.4,0.1-0.6,0.2s-0.4,0.3-0.6,0.5v3.2H31V15.8z"/>
		<path fill="#D0D2D3" d="M35.6,18.9l1.7-1.6v0.9h1.4V19h-1.4v2.2c0,0.5,0.2,0.8,0.6,0.8c0.3,0,0.7-0.1,1-0.3v0.8
			c-0.3,0.2-0.7,0.3-1.1,0.3c-0.4,0-0.7-0.1-1-0.4c-0.1-0.1-0.2-0.2-0.2-0.2c-0.1-0.1-0.1-0.2-0.1-0.4c0-0.1-0.1-0.4-0.1-0.8v-2
			L35.6,18.9L35.6,18.9z"/>
	</g>
</g>
<g id="Layer_2">
	<g>
		<path fill="#FFFFFF" d="M10.1,10.7H8V0h2.1c1,0,1.8,0.5,1.8,1.9v1.8c0,0.8-0.3,1.3-0.9,1.5c0.7,0.2,0.9,0.8,0.9,1.6v2
			C11.9,10.2,11.1,10.7,10.1,10.7z M10.7,1.8c0-0.5-0.2-0.8-0.6-0.8H9.2v3.7H10c0.5,0,0.8-0.3,0.8-0.9V1.8z M10.8,6.6
			c0-0.5-0.3-0.9-0.8-0.9H9.2v3.8h1c0.4,0,0.6-0.3,0.6-0.8V6.6z"/>
		<path fill="#FFFFFF" d="M17.1,10.8c-0.8,0-1.1-0.3-1.1-1.2V6.9C16,6.3,15.8,6,15.3,6h-0.9v4.7h-1.2V0h2.1c1,0,1.8,0.5,1.8,1.9v2
			c0,0.8-0.2,1.3-0.9,1.5c0.7,0.2,0.9,0.8,0.9,1.5v2.6c0,0.3,0.1,0.4,0.3,0.4v0.8H17.1z M16,1.8c0-0.5-0.2-0.8-0.6-0.8h-0.9V5h0.8
			C15.7,5,16,4.6,16,4.1V1.8z"/>
		<path fill="#FFFFFF" d="M18.6,10.7V0h1.2v10.7H18.6z"/>
		<path fill="#FFFFFF" d="M24,10.7l-0.3-2.3h-1.5l-0.3,2.3h-1.1L22.4,0h1.2l1.6,10.7H24z M23,2.5l-0.6,4.8h1.2L23,2.5z"/>
		<path fill="#FFFFFF" d="M29.6,10.7l-1.8-5.4l-0.5-1.7v7.1h-1.1V0h1l1.6,5.5l0.5,1.7V0h1.1v10.7H29.6z"/>
		<path fill="#FFFFFF" d="M38.7,10.7V2.6l-0.3,1.9l-1,6.2h-1.1l-1-6.2l-0.3-1.9v8.1h-1V0h1.6l1,6.6L37,8.5l0.3-1.9L38.2,0h1.6v10.7
			H38.7z"/>
		<path fill="#FFFFFF" d="M44,10.7l-0.3-2.3h-1.5l-0.3,2.3h-1.1L42.4,0h1.2l1.6,10.7H44z M43,2.5l-0.6,4.8h1.2L43,2.5z"/>
		<path fill="#FFFFFF" d="M47.1,9.6h2.5v1.1h-3.8v-0.6l2.6-8.9H46V0h3.8v0.6L47.1,9.6z"/>
		<path fill="#FFFFFF" d="M51.7,9.6h2.5v1.1h-3.8v-0.6l2.6-8.9h-2.5V0h3.8v0.6L51.7,9.6z"/>
		<path fill="#FFFFFF" d="M58.2,10.7l-0.3-2.3h-1.5l-0.3,2.3H55L56.6,0h1.2l1.6,10.7H58.2z M57.2,2.5l-0.6,4.8h1.2L57.2,2.5z"/>
	</g>
	<g>
		<path fill="#D0D2D3" d="M22.2,15.8h0.9v6.8h-1v-5.3L20,20h-0.2l-2.1-2.6v5.3h-1v-6.8h0.9l2.3,2.8L22.2,15.8z"/>
		<path fill="#D0D2D3" d="M26.8,18.2c0.7,0,1.3,0.2,1.7,0.7c0.5,0.4,0.7,1,0.7,1.7c0,0.6-0.2,1.2-0.7,1.6c-0.5,0.4-1,0.6-1.7,0.6
			c-0.7,0-1.2-0.2-1.7-0.7c-0.5-0.4-0.7-1-0.7-1.6c0-0.7,0.2-1.2,0.7-1.6C25.5,18.4,26.1,18.2,26.8,18.2z M26.7,19
			c-0.4,0-0.8,0.1-1,0.4s-0.4,0.6-0.4,1.1c0,0.4,0.1,0.8,0.4,1.1c0.3,0.3,0.6,0.4,1.1,0.4c0.4,0,0.8-0.1,1.1-0.4
			c0.3-0.3,0.4-0.6,0.4-1.1c0-0.4-0.1-0.8-0.4-1.1S27.2,19,26.7,19z"/>
		<path fill="#D0D2D3" d="M31.3,18.2v1l0-0.1c0.4-0.7,0.9-1,1.3-1c0.3,0,0.7,0.2,1,0.5l-0.5,0.8c-0.3-0.3-0.6-0.4-0.9-0.4
			c-0.3,0-0.5,0.1-0.7,0.4s-0.3,0.6-0.3,1v2.3h-0.9v-4.5H31.3z"/>
		<path fill="#D0D2D3" d="M35.4,18.2v0.6c0.4-0.4,0.8-0.7,1.4-0.7c0.3,0,0.5,0.1,0.8,0.2c0.2,0.1,0.4,0.3,0.5,0.6
			c0.1,0.3,0.2,0.7,0.2,1.2v2.6h-0.9v-2.6c0-0.5-0.1-0.8-0.2-1c-0.1-0.2-0.4-0.3-0.7-0.3c-0.4,0-0.8,0.2-1.1,0.6v3.2h-0.9v-4.5H35.4
			z"/>
		<path fill="#D0D2D3" d="M40.2,16.3c0.1,0,0.3,0.1,0.4,0.2c0.1,0.1,0.2,0.2,0.2,0.4c0,0.1-0.1,0.3-0.2,0.4
			c-0.1,0.1-0.2,0.2-0.4,0.2c-0.1,0-0.3-0.1-0.4-0.2c-0.1-0.1-0.2-0.2-0.2-0.4c0-0.1,0.1-0.3,0.2-0.4C39.9,16.3,40,16.3,40.2,16.3z
			 M39.7,18.2h0.9v4.5h-0.9V18.2z"/>
		<path fill="#D0D2D3" d="M43,18.2v0.6c0.4-0.4,0.8-0.7,1.4-0.7c0.3,0,0.5,0.1,0.8,0.2c0.2,0.1,0.4,0.3,0.5,0.6
			c0.1,0.3,0.2,0.7,0.2,1.2v2.6H45v-2.6c0-0.5-0.1-0.8-0.2-1c-0.1-0.2-0.4-0.3-0.7-0.3c-0.4,0-0.8,0.2-1.1,0.6v3.2h-0.9v-4.5H43z"/>
		<path fill="#D0D2D3" d="M47.1,19.7c0-0.5,0.2-0.9,0.5-1.1c0.3-0.3,0.8-0.4,1.4-0.4h1.9v0.7H50c0.2,0.2,0.3,0.3,0.4,0.5
			s0.1,0.3,0.1,0.5c0,0.2-0.1,0.5-0.2,0.7c-0.1,0.2-0.3,0.4-0.5,0.5c-0.2,0.1-0.6,0.2-1,0.3c-0.3,0-0.5,0.2-0.5,0.3
			c0,0.1,0.1,0.2,0.2,0.3c0.1,0.1,0.4,0.1,0.7,0.2c0.5,0.1,0.9,0.2,1.1,0.3c0.2,0.1,0.3,0.2,0.4,0.3c0.2,0.2,0.3,0.5,0.3,0.8
			c0,0.4-0.2,0.8-0.6,1c-0.4,0.3-0.9,0.4-1.5,0.4c-0.6,0-1.2-0.1-1.5-0.4c-0.4-0.3-0.6-0.6-0.6-1c0-0.6,0.4-1,1.1-1.2
			c-0.3-0.2-0.4-0.4-0.4-0.6c0-0.1,0.1-0.3,0.2-0.4c0.1-0.1,0.3-0.2,0.5-0.3C47.4,20.8,47.1,20.4,47.1,19.7z M48.5,22.9
			c-0.3,0-0.5,0.1-0.7,0.2c-0.2,0.1-0.3,0.3-0.3,0.5c0,0.5,0.4,0.7,1.2,0.7c0.4,0,0.7-0.1,0.9-0.2c0.2-0.1,0.3-0.3,0.3-0.5
			c0-0.2-0.1-0.4-0.4-0.5C49.3,22.9,49,22.9,48.5,22.9z M48.7,18.9c-0.2,0-0.4,0.1-0.6,0.2s-0.3,0.4-0.3,0.6c0,0.2,0.1,0.4,0.2,0.6
			c0.2,0.2,0.4,0.2,0.6,0.2c0.2,0,0.5-0.1,0.6-0.2c0.2-0.2,0.3-0.3,0.3-0.6c0-0.2-0.1-0.4-0.3-0.6S49,18.9,48.7,18.9z"/>
	</g>
</g>
<g id="Layer_3" display="none">
	<g display="inline">
		<path fill="#FFFFFF" d="M1.9,11C0.7,11,0,10.2,0,8.9V6.6h1.1V9c0,0.6,0.2,0.9,0.8,0.9S2.6,9.6,2.6,9V0.2h1.1v8.7
			C3.8,10.1,3.1,11,1.9,11z"/>
		<path fill="#FFFFFF" d="M5.2,10.8V0.2h3.4v1.1H6.4v3.6H8v1H6.4v3.9h2.2v1.1H5.2z"/>
		<path fill="#FFFFFF" d="M13.7,10.9c-0.8,0-1.1-0.3-1.1-1.2V7c0-0.5-0.3-0.9-0.7-0.9H11v4.7H9.9V0.2H12c1,0,1.8,0.5,1.8,1.9v2
			c0,0.8-0.2,1.3-0.9,1.5c0.7,0.2,0.9,0.8,0.9,1.5v2.6c0,0.3,0.1,0.4,0.3,0.4v0.8H13.7z M12.6,2c0-0.5-0.2-0.8-0.6-0.8H11v3.9h0.8
			c0.4,0,0.7-0.3,0.7-0.9V2z"/>
		<path fill="#FFFFFF" d="M15.2,10.8V0.2h3.4v1.1h-2.2v3.6H18v1h-1.6v3.9h2.2v1.1H15.2z"/>
		<path fill="#FFFFFF" d="M24.4,10.8V2.8l-0.3,1.9l-1,6.2h-1.1l-1-6.2l-0.3-1.9v8.1h-1V0.2h1.6l1,6.6l0.3,1.9L23,6.8l0.9-6.6h1.6
			v10.7H24.4z"/>
		<path fill="#FFFFFF" d="M29.2,6.6v4.2h-1.2V6.6l-1.6-6.5h1.2l1.1,5l1.1-5H31L29.2,6.6z"/>
		<path fill="#FFFFFF" d="M35.7,11c-1.2,0-1.9-0.8-1.9-2V6.6h1.1V9c0,0.6,0.2,0.9,0.8,0.9s0.8-0.3,0.8-0.9V0.2h1.1v8.7
			C37.5,10.1,36.9,11,35.7,11z"/>
		<path fill="#FFFFFF" d="M41.7,10.8l-0.3-2.3h-1.5l-0.3,2.3h-1.1l1.6-10.7h1.2l1.6,10.7H41.7z M40.7,2.7l-0.6,4.8h1.2L40.7,2.7z"/>
		<path fill="#FFFFFF" d="M45.9,11c-1.2,0-2-0.8-2-2.1V0.2H45v8.7c0,0.7,0.3,1,0.9,1s0.9-0.3,0.9-1V0.2h1.1v8.7
			C47.9,10.1,47,11,45.9,11z"/>
		<path fill="#FFFFFF" d="M52.8,10.8l-1.8-5.4l-0.5-1.7v7.1h-1.1V0.2h1L52,5.6l0.5,1.7V0.2h1.1v10.7H52.8z"/>
		<path fill="#FFFFFF" d="M57,11c-1.2,0-2-0.9-2-2.2V2.2C55,1,55.8,0,57,0c1.2,0,2,0.9,2,2.1v1.7h-1V2c0-0.5-0.3-0.9-0.9-0.9
			c-0.6,0-0.9,0.4-0.9,0.9V9c0,0.5,0.3,0.9,0.9,0.9c0.6,0,0.9-0.4,0.9-0.9V7.1h1v1.8C59,10.1,58.3,11,57,11z"/>
		<path fill="#FFFFFF" d="M60.3,10.8V0.2h3.4v1.1h-2.2v3.6H63v1h-1.6v3.9h2.2v1.1H60.3z"/>
		<path fill="#FFFFFF" d="M67.1,6.6v4.2H66V6.6l-1.6-6.5h1.2l1.1,5l1.1-5h1.1L67.1,6.6z"/>
	</g>
	<g display="inline">
		<path fill="#D0D2D3" d="M15.3,16H16l3.1,6.9h-1l-0.9-2h-2.9l-0.9,2h-1L15.3,16z M16.7,19.9l-1.1-2.5l-1,2.5H16.7z"/>
		<path fill="#D0D2D3" d="M20,18.3v-0.3c0-0.7,0.2-1.3,0.5-1.6s0.7-0.5,1.1-0.5c0.2,0,0.4,0,0.7,0.1v0.9c-0.1-0.1-0.3-0.1-0.4-0.1
			c-0.3,0-0.6,0.1-0.7,0.3s-0.2,0.5-0.2,1v0.3h0.8v0.8h-0.8v3.7H20v-3.7h-0.6v-0.8H20z"/>
		<path fill="#D0D2D3" d="M21.9,19l1.7-1.6v0.9H25v0.8h-1.4v2.2c0,0.5,0.2,0.8,0.6,0.8c0.3,0,0.7-0.1,1-0.3v0.8
			c-0.3,0.2-0.7,0.3-1.1,0.3c-0.4,0-0.7-0.1-1-0.4c-0.1-0.1-0.2-0.2-0.2-0.2c-0.1-0.1-0.1-0.2-0.1-0.4c0-0.1-0.1-0.4-0.1-0.8v-2
			L21.9,19L21.9,19z"/>
		<path fill="#D0D2D3" d="M29.9,20.7h-3.2c0,0.4,0.2,0.8,0.4,1s0.6,0.4,1,0.4c0.6,0,1.1-0.2,1.6-0.5v0.9c-0.3,0.2-0.5,0.3-0.8,0.4
			s-0.6,0.1-0.9,0.1c-0.5,0-0.9-0.1-1.2-0.3s-0.6-0.5-0.7-0.8c-0.2-0.3-0.3-0.7-0.3-1.2c0-0.7,0.2-1.2,0.6-1.7
			c0.4-0.4,0.9-0.6,1.5-0.6c0.6,0,1.1,0.2,1.4,0.6s0.5,1,0.5,1.7V20.7z M26.8,20.1H29c0-0.4-0.1-0.6-0.3-0.8S28.3,19,27.9,19
			s-0.6,0.1-0.8,0.3S26.8,19.8,26.8,20.1z"/>
		<path fill="#D0D2D3" d="M32,18.3v1l0-0.1c0.4-0.7,0.9-1,1.3-1c0.3,0,0.7,0.2,1,0.5l-0.5,0.8c-0.3-0.3-0.6-0.4-0.9-0.4
			c-0.3,0-0.5,0.1-0.7,0.4s-0.3,0.6-0.3,1v2.3h-0.9v-4.5H32z"/>
		<path fill="#D0D2D3" d="M36.1,18.3v0.6c0.4-0.4,0.8-0.7,1.4-0.7c0.3,0,0.5,0.1,0.8,0.2c0.2,0.1,0.4,0.3,0.5,0.6
			c0.1,0.3,0.2,0.7,0.2,1.2v2.6h-0.9v-2.6c0-0.5-0.1-0.8-0.2-1c-0.1-0.2-0.4-0.3-0.7-0.3c-0.4,0-0.8,0.2-1.1,0.6v3.2h-0.9v-4.5H36.1
			z"/>
		<path fill="#D0D2D3" d="M42.6,18.3c0.7,0,1.3,0.2,1.7,0.7c0.5,0.4,0.7,1,0.7,1.7c0,0.6-0.2,1.2-0.7,1.6c-0.5,0.4-1,0.6-1.7,0.6
			c-0.7,0-1.2-0.2-1.7-0.7c-0.5-0.4-0.7-1-0.7-1.6c0-0.7,0.2-1.2,0.7-1.6C41.3,18.5,41.9,18.3,42.6,18.3z M42.5,19.1
			c-0.4,0-0.8,0.1-1,0.4S41,20.2,41,20.6c0,0.4,0.1,0.8,0.4,1.1c0.3,0.3,0.6,0.4,1.1,0.4c0.4,0,0.8-0.1,1.1-0.4
			c0.3-0.3,0.4-0.6,0.4-1.1c0-0.4-0.1-0.8-0.4-1.1C43.3,19.3,42.9,19.1,42.5,19.1z"/>
		<path fill="#D0D2D3" d="M48.3,18.3c0.7,0,1.3,0.2,1.7,0.7c0.5,0.4,0.7,1,0.7,1.7c0,0.6-0.2,1.2-0.7,1.6c-0.5,0.4-1,0.6-1.7,0.6
			c-0.7,0-1.2-0.2-1.7-0.7c-0.5-0.4-0.7-1-0.7-1.6c0-0.7,0.2-1.2,0.7-1.6C47,18.5,47.6,18.3,48.3,18.3z M48.2,19.1
			c-0.4,0-0.8,0.1-1.1,0.4s-0.4,0.6-0.4,1.1c0,0.4,0.1,0.8,0.4,1.1c0.3,0.3,0.6,0.4,1.1,0.4c0.4,0,0.8-0.1,1.1-0.4
			c0.3-0.3,0.4-0.6,0.4-1.1c0-0.4-0.1-0.8-0.4-1.1C49,19.3,48.7,19.1,48.2,19.1z"/>
		<path fill="#D0D2D3" d="M52.7,18.3v0.6c0.4-0.4,0.8-0.7,1.4-0.7c0.3,0,0.5,0.1,0.8,0.2c0.2,0.1,0.4,0.3,0.5,0.6
			c0.1,0.3,0.2,0.7,0.2,1.2v2.6h-0.9v-2.6c0-0.5-0.1-0.8-0.2-1c-0.1-0.2-0.4-0.3-0.7-0.3c-0.4,0-0.8,0.2-1.1,0.6v3.2h-0.9v-4.5H52.7
			z"/>
	</g>
</g>
</svg>
