<?xml version="1.0" encoding="utf-8"?>
<!-- Generator: Adobe Illustrator 18.1.1, SVG Export Plug-In . SVG Version: 6.00 Build 0)  -->
<svg version="1.1" xmlns="http://www.w3.org/2000/svg" xmlns:xlink="http://www.w3.org/1999/xlink" x="0px" y="0px"
	 viewBox="0 0 155.7 25.9" enable-background="new 0 0 155.7 25.9" xml:space="preserve">
<g id="Layer_1" display="none">
	<g display="inline">
		<defs>
			<rect id="SVGID_1_" x="0" y="0" width="155.7" height="25.9"/>
		</defs>
		<clipPath id="SVGID_2_">
			<use xlink:href="#SVGID_1_"  overflow="visible"/>
		</clipPath>
		<path clip-path="url(#SVGID_2_)" fill="#FFFFFF" d="M87.4,20.5h0.7v1.8c0,0.4,0,0.6,0.1,0.7c0,0.1,0.1,0.2,0.1,0.3
			c0.1,0.1,0.1,0.2,0.2,0.2c0.2,0.2,0.5,0.3,0.9,0.3c0.4,0,0.7-0.1,1-0.3v-0.7c-0.3,0.2-0.6,0.3-0.9,0.3c-0.4,0-0.6-0.2-0.6-0.7v-2
			h1.3v-0.7h-1.3V19L87.4,20.5L87.4,20.5z M82.2,23.9H83V21c0.2-0.2,0.4-0.4,0.5-0.5c0.2-0.1,0.3-0.1,0.5-0.1c0.2,0,0.4,0.1,0.6,0.3
			c0.1,0.2,0.2,0.4,0.2,0.7v2.5h0.8v-2.3c0-0.5-0.1-0.8-0.2-1.1c-0.1-0.2-0.3-0.4-0.5-0.6c-0.2-0.1-0.5-0.2-0.7-0.2
			c-0.5,0-0.9,0.2-1.2,0.6v-2.6h-0.8V23.9z M79.2,24.2c0.2,0.1,0.4,0.3,0.4,0.5c0,0.2-0.1,0.3-0.3,0.4s-0.5,0.2-0.8,0.2
			c-0.8,0-1.1-0.2-1.1-0.6c0-0.2,0.1-0.3,0.3-0.4c0.2-0.1,0.4-0.2,0.7-0.2C78.6,24.1,78.9,24.1,79.2,24.2 M79,20.7
			c0.2,0.1,0.2,0.3,0.2,0.5c0,0.2-0.1,0.4-0.2,0.5c-0.2,0.1-0.3,0.2-0.6,0.2c-0.2,0-0.4-0.1-0.6-0.2c-0.1-0.1-0.2-0.3-0.2-0.5
			c0-0.2,0.1-0.4,0.2-0.5c0.2-0.1,0.3-0.2,0.6-0.2C78.6,20.5,78.8,20.6,79,20.7 M77.8,22.5c-0.2,0.1-0.4,0.1-0.5,0.2
			c-0.1,0.1-0.2,0.2-0.2,0.4c0,0.2,0.1,0.3,0.4,0.5c-0.7,0.2-1,0.5-1,1.1c0,0.4,0.2,0.7,0.5,0.9c0.3,0.2,0.8,0.3,1.4,0.3
			c0.6,0,1-0.1,1.4-0.3c0.3-0.2,0.5-0.5,0.5-0.9c0-0.3-0.1-0.5-0.3-0.7c-0.1-0.1-0.2-0.2-0.4-0.3c-0.1-0.1-0.5-0.1-1-0.3
			c-0.3-0.1-0.5-0.1-0.6-0.2c-0.1-0.1-0.2-0.1-0.2-0.2c0-0.2,0.2-0.3,0.5-0.3c0.4-0.1,0.7-0.2,0.9-0.3s0.3-0.3,0.5-0.5
			c0.1-0.2,0.2-0.4,0.2-0.6c0-0.2,0-0.3-0.1-0.5c-0.1-0.1-0.2-0.3-0.3-0.4h0.8v-0.6h-1.7c-0.5,0-1,0.1-1.3,0.4
			c-0.3,0.2-0.5,0.6-0.5,1C76.9,21.8,77.2,22.2,77.8,22.5 M73.9,23.9h0.8v-4h-0.8V23.9z M74,18.3c-0.1,0.1-0.1,0.2-0.1,0.3
			c0,0.1,0,0.2,0.1,0.3c0.1,0.1,0.2,0.1,0.3,0.1c0.1,0,0.2,0,0.3-0.1c0.1-0.1,0.1-0.2,0.1-0.3c0-0.1,0-0.2-0.1-0.3
			c-0.1-0.1-0.2-0.1-0.3-0.1C74.2,18.1,74.1,18.2,74,18.3 M70.6,22.5l-4.1-4.8h-0.7v6.1h0.8v-4.7l4.1,4.7h0.8v-6.1h-0.8V22.5z"/>
		<path clip-path="url(#SVGID_2_)" fill="#FFFFFF" d="M155.7,8.1V6.6h-4V4.8h3.9V3.3h-3.9V1.6h4V0.1H150v8H155.7z M144.8,8.1V6.6
			h-3.4V0.1h-1.7v8H144.8z M134.4,8.1V6.6H131V0.1h-1.7v8H134.4z M123.9,8.1V6.6h-4V4.8h3.9V3.3h-3.9V1.6h4V0.1h-5.7v8H123.9z
			 M112.6,8.1v-8h-1.7v5l-3.7-5h-1.8v8h1.7V2.9l3.8,5.2H112.6z M97.7,5.3h-2.5l1.2-3.4L97.7,5.3z M100.6,8.1l-3.1-8h-2.1l-3.1,8h1.9
			l0.5-1.4h3.4l0.5,1.4H100.6z M85,8.3c1.6,0,2.8-0.9,2.8-2.8V0.1h-1.7v5.4c0,0.8-0.5,1.3-1.2,1.3c-0.6,0-1-0.3-1.3-0.6l-0.7,1.3
			C83.5,8.1,84.2,8.3,85,8.3 M71.6,8.1l-3.4-4.2l3.2-3.8h-2.1l-2.8,3.6V0.1h-1.7v8h1.7V5.7l0.6-0.7l2.4,3.2H71.6z M56.3,8.3
			c1.8,0,2.8-1,3.3-2l-1.5-0.7c-0.3,0.7-1.1,1.2-1.9,1.2c-1.5,0-2.5-1.1-2.5-2.6c0-1.5,1.1-2.6,2.5-2.6c0.8,0,1.5,0.5,1.9,1.2
			L59.7,2c-0.6-1-1.6-2-3.3-2C53.9,0,52,1.7,52,4.1C52,6.6,53.9,8.3,56.3,8.3 M46.8,0.1h-1.7v8h1.7V0.1z M36.8,3.8H35V1.6h1.8
			C37.4,1.6,38,2,38,2.7C38,3.4,37.4,3.8,36.8,3.8 M39.7,8.1l-1.8-3c0.9-0.2,1.8-1,1.8-2.4c0-1.5-1-2.6-2.7-2.6h-3.7v8H35V5.3h1.2
			l1.6,2.8H39.7z M25.8,8.1V1.6h2.3V0.1h-6.4v1.5H24v6.5H25.8z M15.2,5.3h-2.5L14,1.8L15.2,5.3z M18.1,8.1l-3.1-8h-2.1l-3.1,8h1.9
			l0.5-1.4h3.4l0.5,1.4H18.1z M3.5,3.8H1.7V1.6h1.8c0.7,0,1.2,0.4,1.2,1.1C4.7,3.4,4.2,3.8,3.5,3.8 M1.7,8.1V5.3h2
			c1.7,0,2.7-1.2,2.7-2.6c0-1.4-0.9-2.6-2.7-2.6H0v8H1.7z"/>
	</g>
</g>
<g id="Layer_3" display="none">
	<g display="inline">
		<defs>
			<rect id="SVGID_3_" x="13" y="0" width="128.4" height="25.9"/>
		</defs>
		<clipPath id="SVGID_4_">
			<use xlink:href="#SVGID_3_"  overflow="visible"/>
		</clipPath>
		<path clip-path="url(#SVGID_4_)" fill="#FFFFFF" d="M95.3,24.2c0.2,0.1,0.4,0.3,0.4,0.5c0,0.2-0.1,0.3-0.3,0.4
			c-0.2,0.1-0.5,0.2-0.8,0.2c-0.8,0-1.1-0.2-1.1-0.6c0-0.2,0.1-0.3,0.3-0.4c0.2-0.1,0.4-0.2,0.7-0.2C94.7,24.1,95,24.1,95.3,24.2
			 M95.1,20.7c0.2,0.1,0.2,0.3,0.2,0.5c0,0.2-0.1,0.4-0.2,0.5S94.7,22,94.5,22c-0.2,0-0.4-0.1-0.6-0.2c-0.2-0.1-0.2-0.3-0.2-0.5
			c0-0.2,0.1-0.4,0.2-0.5c0.2-0.1,0.3-0.2,0.6-0.2C94.7,20.5,94.9,20.6,95.1,20.7 M93.9,22.5c-0.2,0-0.4,0.1-0.5,0.2
			c-0.1,0.1-0.2,0.2-0.2,0.4c0,0.2,0.1,0.3,0.4,0.5c-0.7,0.2-1,0.5-1,1.1c0,0.4,0.2,0.7,0.5,0.9c0.3,0.2,0.8,0.3,1.4,0.3
			c0.6,0,1-0.1,1.4-0.3c0.3-0.2,0.5-0.5,0.5-0.9c0-0.3-0.1-0.5-0.3-0.7c-0.1-0.1-0.2-0.2-0.4-0.3c-0.1-0.1-0.5-0.1-1-0.3
			c-0.3-0.1-0.5-0.1-0.6-0.2C94.1,23.2,94,23.1,94,23c0-0.2,0.2-0.3,0.5-0.3c0.4-0.1,0.7-0.2,0.9-0.3c0.2-0.1,0.3-0.3,0.5-0.5
			c0.1-0.2,0.2-0.4,0.2-0.6c0-0.2,0-0.3-0.1-0.5c-0.1-0.1-0.2-0.3-0.3-0.4h0.8v-0.6h-1.7c-0.5,0-1,0.1-1.3,0.4
			c-0.3,0.2-0.5,0.6-0.5,1C93,21.8,93.3,22.2,93.9,22.5 M87.3,19.8v4h0.8V21c0.3-0.4,0.6-0.6,1-0.6c0.3,0,0.5,0.1,0.6,0.3
			c0.1,0.2,0.2,0.5,0.2,0.9v2.3h0.8v-2.3c0-0.5-0.1-0.9-0.2-1.1c-0.1-0.2-0.3-0.4-0.5-0.5c-0.2-0.1-0.5-0.2-0.7-0.2
			c-0.5,0-0.9,0.2-1.2,0.6v-0.5H87.3z M83.9,23.9h0.8v-4h-0.8V23.9z M83.9,18.3c-0.1,0.1-0.1,0.2-0.1,0.3c0,0.1,0,0.2,0.1,0.3
			c0.1,0.1,0.2,0.1,0.3,0.1c0.1,0,0.2,0,0.3-0.1c0.1-0.1,0.1-0.2,0.1-0.3c0-0.1,0-0.2-0.1-0.3c-0.1-0.1-0.2-0.1-0.3-0.1
			C84.1,18.1,84,18.2,83.9,18.3 M77.9,19.8v4h0.8V21c0.3-0.4,0.6-0.6,1-0.6c0.3,0,0.5,0.1,0.6,0.3c0.1,0.2,0.2,0.5,0.2,0.9v2.3h0.8
			v-2.3c0-0.5-0.1-0.9-0.2-1.1c-0.1-0.2-0.3-0.4-0.5-0.5c-0.2-0.1-0.5-0.2-0.7-0.2c-0.5,0-0.9,0.2-1.2,0.6v-0.5H77.9z M73,19.8v4
			h0.8v-2.1c0-0.3,0.1-0.6,0.3-0.9c0.2-0.2,0.4-0.4,0.7-0.4c0.2,0,0.5,0.1,0.8,0.4l0.4-0.7c-0.3-0.3-0.6-0.5-0.9-0.5
			c-0.4,0-0.8,0.3-1.2,0.9l0,0.1v-0.9H73z M69.4,20.9c0.3,0.3,0.4,0.6,0.4,1c0,0.4-0.1,0.7-0.4,1c-0.3,0.2-0.6,0.4-1,0.4
			c-0.4,0-0.7-0.1-1-0.4c-0.3-0.2-0.4-0.6-0.4-0.9c0-0.4,0.1-0.7,0.4-1s0.6-0.4,0.9-0.4C68.8,20.5,69.1,20.7,69.4,20.9 M66.9,20.4
			c-0.4,0.4-0.6,0.9-0.6,1.5c0,0.6,0.2,1.1,0.6,1.5c0.4,0.4,0.9,0.6,1.5,0.6c0.6,0,1.1-0.2,1.6-0.6c0.4-0.4,0.6-0.9,0.6-1.5
			c0-0.6-0.2-1.1-0.6-1.5c-0.4-0.4-0.9-0.6-1.5-0.6C67.8,19.8,67.3,20,66.9,20.4 M61,20.3l-2-2.5h-0.8v6.1H59v-4.8l1.9,2.4h0.2
			l1.9-2.4v4.8h0.9v-6.1H63L61,20.3z"/>
		<path clip-path="url(#SVGID_4_)" fill="#FFFFFF" d="M138.2,8.3c2.2,0,3.2-1.1,3.2-2.6c0-3-4.6-2.1-4.6-3.4c0-0.5,0.4-0.8,1.1-0.8
			c0.8,0,1.7,0.3,2.3,0.9l0.9-1.2c-0.8-0.7-1.8-1.1-3.1-1.1c-1.9,0-3,1.1-3,2.4c0,3,4.6,2,4.6,3.5c0,0.5-0.5,0.9-1.4,0.9
			c-1.1,0-2-0.5-2.5-1.1L134.8,7C135.5,7.8,136.6,8.3,138.2,8.3 M129.7,8.1v-8H128v3.1h-3.8V0.1h-1.7v8h1.7V4.8h3.8v3.4H129.7z
			 M114,8.3c1.8,0,2.8-1,3.3-2l-1.5-0.7c-0.3,0.7-1.1,1.2-1.9,1.2c-1.5,0-2.5-1.1-2.5-2.6c0-1.5,1.1-2.6,2.5-2.6
			c0.8,0,1.5,0.5,1.9,1.2l1.5-0.7c-0.6-1-1.6-2-3.3-2c-2.4,0-4.3,1.7-4.3,4.1C109.8,6.6,111.6,8.3,114,8.3 M100.9,8.3
			c2.4,0,3.6-1.4,3.6-3.3V0.1h-1.7v4.8c0,1.1-0.6,1.9-1.9,1.9C99.7,6.8,99,6,99,4.9V0.1h-1.7v4.8C97.3,6.9,98.5,8.3,100.9,8.3
			 M88.1,8.1V4.8h3.9V3.3h-3.9V1.6h4V0.1h-5.7v8H88.1z M73.9,8.1V6.6h-3.4V0.1h-1.7v8H73.9z M63.4,8.1V6.6h-4V4.8h3.9V3.3h-3.9V1.6
			h4V0.1h-5.7v8H63.4z M52.1,0.1h-1.7v8h1.7V0.1z M44.7,8.1v-8H43v5l-3.7-5h-1.8v8h1.7V2.9l3.8,5.2H44.7z M29.8,5.3h-2.5l1.2-3.4
			L29.8,5.3z M32.8,8.1l-3.1-8h-2.1l-3.1,8h1.9l0.5-1.4h3.4l0.5,1.4H32.8z M16.2,6.6h-1.5v-5h1.5c1.6,0,2.5,1.1,2.5,2.5
			C18.7,5.5,17.7,6.6,16.2,6.6 M16.2,8.1c2.5,0,4.2-1.6,4.2-4c0-2.4-1.7-4-4.2-4H13v8H16.2z"/>
	</g>
</g>
<g id="Layer_2">
	<g>
		<defs>
			<rect id="SVGID_5_" x="19" y="1" width="118.2" height="23.9"/>
		</defs>
		<clipPath id="SVGID_6_">
			<use xlink:href="#SVGID_5_"  overflow="visible"/>
		</clipPath>
		<path clip-path="url(#SVGID_6_)" fill="#FFFFFF" d="M97.9,20.8v4h0.8V22c0.3-0.4,0.6-0.6,1-0.6c0.3,0,0.5,0.1,0.6,0.3
			c0.1,0.2,0.2,0.5,0.2,0.9v2.3h0.8v-2.3c0-0.5-0.1-0.9-0.2-1.1c-0.1-0.2-0.3-0.4-0.5-0.5c-0.2-0.1-0.5-0.2-0.7-0.2
			c-0.5,0-0.9,0.2-1.2,0.6v-0.5H97.9z M94.6,21.9c0.3,0.3,0.4,0.6,0.4,1c0,0.4-0.1,0.7-0.4,1c-0.2,0.2-0.6,0.4-1,0.4
			c-0.4,0-0.7-0.1-1-0.4c-0.3-0.2-0.4-0.6-0.4-0.9c0-0.4,0.1-0.7,0.4-1c0.2-0.3,0.6-0.4,0.9-0.4C94,21.5,94.4,21.7,94.6,21.9
			 M92.1,21.4c-0.4,0.4-0.6,0.9-0.6,1.5c0,0.6,0.2,1.1,0.6,1.5c0.4,0.4,0.9,0.6,1.5,0.6c0.6,0,1.1-0.2,1.6-0.6
			c0.4-0.4,0.6-0.9,0.6-1.5c0-0.6-0.2-1.1-0.6-1.5c-0.4-0.4-0.9-0.6-1.5-0.6C93.1,20.8,92.5,21,92.1,21.4 M88.4,21.9
			c0.3,0.3,0.4,0.6,0.4,1c0,0.4-0.1,0.7-0.4,1c-0.2,0.2-0.6,0.4-1,0.4c-0.4,0-0.7-0.1-1-0.4c-0.3-0.2-0.4-0.6-0.4-0.9
			c0-0.4,0.1-0.7,0.4-1c0.2-0.3,0.6-0.4,0.9-0.4C87.8,21.5,88.1,21.7,88.4,21.9 M85.9,21.4c-0.4,0.4-0.6,0.9-0.6,1.5
			c0,0.6,0.2,1.1,0.6,1.5c0.4,0.4,0.9,0.6,1.5,0.6c0.6,0,1.1-0.2,1.6-0.6c0.4-0.4,0.6-0.9,0.6-1.5c0-0.6-0.2-1.1-0.6-1.5
			c-0.4-0.4-0.9-0.6-1.5-0.6C86.8,20.8,86.3,21,85.9,21.4 M79.7,20.8v4h0.8V22c0.3-0.4,0.6-0.6,1-0.6c0.3,0,0.5,0.1,0.6,0.3
			c0.1,0.2,0.2,0.5,0.2,0.9v2.3h0.8v-2.3c0-0.5-0.1-0.9-0.2-1.1c-0.1-0.2-0.3-0.4-0.5-0.5c-0.2-0.1-0.5-0.2-0.7-0.2
			c-0.5,0-0.9,0.2-1.2,0.6v-0.5H79.7z M75,20.8v4h0.8v-2.1c0-0.3,0.1-0.6,0.3-0.9c0.2-0.2,0.4-0.4,0.7-0.4c0.2,0,0.5,0.1,0.8,0.4
			l0.4-0.7c-0.3-0.3-0.6-0.5-0.9-0.5c-0.4,0-0.8,0.3-1.2,0.9l0,0.1v-0.9H75z M70.3,21.7c0.2-0.2,0.4-0.3,0.7-0.3
			c0.3,0,0.5,0.1,0.7,0.3c0.2,0.2,0.3,0.4,0.3,0.7h-2C70,22.1,70.2,21.9,70.3,21.7 M72.8,22.8c0-0.6-0.2-1.1-0.5-1.5
			c-0.3-0.4-0.7-0.6-1.3-0.6c-0.6,0-1,0.2-1.4,0.6c-0.3,0.4-0.5,0.9-0.5,1.5c0,0.4,0.1,0.8,0.2,1.1c0.2,0.3,0.4,0.6,0.7,0.7
			c0.3,0.2,0.6,0.3,1.1,0.3c0.3,0,0.6,0,0.9-0.1c0.2-0.1,0.5-0.2,0.7-0.4v-0.8c-0.4,0.3-0.9,0.5-1.5,0.5c-0.4,0-0.7-0.1-0.9-0.3
			c-0.2-0.2-0.4-0.5-0.4-0.9h2.8V22.8z M64.5,21.5h0.7v1.8c0,0.4,0,0.6,0.1,0.7c0,0.1,0.1,0.2,0.1,0.3c0,0.1,0.1,0.2,0.2,0.2
			c0.2,0.2,0.5,0.3,0.9,0.3c0.4,0,0.7-0.1,1-0.3v-0.7c-0.3,0.2-0.6,0.3-0.9,0.3c-0.4,0-0.6-0.2-0.6-0.7v-2h1.3v-0.7H66V20L64.5,21.5
			L64.5,21.5z M61.1,20.8v0.7h0.6v3.3h0.8v-3.3h0.7v-0.7h-0.7v-0.2c0-0.4,0.1-0.7,0.2-0.9c0.1-0.2,0.3-0.2,0.7-0.2
			c0.1,0,0.2,0,0.4,0.1v-0.8c-0.2-0.1-0.4-0.1-0.6-0.1c-0.4,0-0.7,0.2-1,0.5c-0.3,0.3-0.4,0.8-0.4,1.5v0.2H61.1z M55.8,22.3l0.9-2.2
			l1,2.2H55.8z M53.8,24.9h0.9l0.8-1.8h2.6l0.8,1.8h0.9L57,18.7h-0.6L53.8,24.9z"/>
		<path clip-path="url(#SVGID_6_)" fill="#FFFFFF" d="M134.8,9.1V2.6h2.3V1.1h-6.4v1.5h2.3v6.5H134.8z M123.8,9.1V2.6h2.3V1.1h-6.4
			v1.5h2.3v6.5H123.8z M111,7.8c-1.5,0-2.4-1.1-2.4-2.6c0-1.5,0.9-2.6,2.4-2.6c1.5,0,2.4,1.1,2.4,2.6C113.5,6.6,112.5,7.8,111,7.8
			 M111,9.3c2.4,0,4.2-1.7,4.2-4.1c0-2.4-1.8-4.1-4.2-4.1c-2.4,0-4.2,1.7-4.2,4.1C106.8,7.6,108.6,9.3,111,9.3 M98.8,9.3
			c1.8,0,2.8-1,3.3-2l-1.5-0.7c-0.3,0.7-1.1,1.2-1.9,1.2c-1.5,0-2.5-1.1-2.5-2.6c0-1.5,1.1-2.6,2.5-2.6c0.8,0,1.5,0.5,1.9,1.2
			l1.5-0.7c-0.6-1-1.6-2-3.3-2c-2.4,0-4.3,1.7-4.3,4.1C94.5,7.6,96.4,9.3,98.8,9.3 M86.5,9.3c2.2,0,3.2-1.1,3.2-2.6
			c0-3-4.6-2.1-4.6-3.4c0-0.5,0.4-0.8,1.1-0.8c0.8,0,1.7,0.3,2.3,0.9l0.9-1.2C88.7,1.4,87.6,1,86.4,1c-1.9,0-3,1.1-3,2.4
			c0,3,4.6,2,4.6,3.5c0,0.5-0.5,0.9-1.4,0.9c-1.1,0-2-0.5-2.5-1.1L83.1,8C83.8,8.8,84.9,9.3,86.5,9.3 M71.1,9.1V7.6h-4V5.8H71V4.3
			h-3.9V2.6h4V1.1h-5.7v8H71.1z M60.5,9.1l-3.4-4.2l3.2-3.8h-2.1l-2.8,3.6V1.1h-1.7v8h1.7V6.7L56,5.9l2.4,3.2H60.5z M46,6.3h-2.5
			l1.2-3.4L46,6.3z M48.9,9.1l-3.1-8h-2.1l-3.1,8h1.9L43,7.8h3.4l0.5,1.4H48.9z M36.1,9.1V7.6h-3.4V1.1H31v8H36.1z M22.9,7.7h-2.2
			V5.8h2.2c0.7,0,1,0.4,1,0.9C23.9,7.3,23.5,7.7,22.9,7.7 M22.8,4.3h-2.1V2.6h2.1c0.6,0,0.9,0.4,0.9,0.9C23.8,4,23.4,4.3,22.8,4.3
			 M23.3,9.1c1.5,0,2.3-1,2.3-2.2c0-1-0.7-1.8-1.5-2c0.8-0.2,1.4-0.8,1.4-1.8c0-1.1-0.8-2-2.3-2H19v8H23.3z"/>
	</g>
</g>
</svg>
