<?xml version="1.0" encoding="utf-8"?>
<!-- Generator: Adobe Illustrator 18.1.1, SVG Export Plug-In . SVG Version: 6.00 Build 0)  -->
<svg version="1.1" id="Layer_1" xmlns="http://www.w3.org/2000/svg" xmlns:xlink="http://www.w3.org/1999/xlink" x="0px" y="0px"
	 viewBox="0 0 155.7 25.9" enable-background="new 0 0 155.7 25.9" xml:space="preserve">
<g>
	<defs>
		<rect id="SVGID_1_" x="0" y="0" width="155.7" height="25.9"/>
	</defs>
	<clipPath id="SVGID_2_">
		<use xlink:href="#SVGID_1_"  overflow="visible"/>
	</clipPath>
	<path clip-path="url(#SVGID_2_)" fill="#FFFFFF" d="M87.4,20.5h0.7v1.8c0,0.4,0,0.6,0.1,0.7c0,0.1,0.1,0.2,0.1,0.3
		c0.1,0.1,0.1,0.2,0.2,0.2c0.2,0.2,0.5,0.3,0.9,0.3c0.4,0,0.7-0.1,1-0.3v-0.7c-0.3,0.2-0.6,0.3-0.9,0.3c-0.4,0-0.6-0.2-0.6-0.7v-2
		h1.3v-0.7h-1.3V19L87.4,20.5L87.4,20.5z M82.2,23.9H83V21c0.2-0.2,0.4-0.4,0.5-0.5c0.2-0.1,0.3-0.1,0.5-0.1c0.2,0,0.4,0.1,0.6,0.3
		c0.1,0.2,0.2,0.4,0.2,0.7v2.5h0.8v-2.3c0-0.5-0.1-0.8-0.2-1.1c-0.1-0.2-0.3-0.4-0.5-0.6c-0.2-0.1-0.5-0.2-0.7-0.2
		c-0.5,0-0.9,0.2-1.2,0.6v-2.6h-0.8V23.9z M79.2,24.2c0.2,0.1,0.4,0.3,0.4,0.5c0,0.2-0.1,0.3-0.3,0.4s-0.5,0.2-0.8,0.2
		c-0.8,0-1.1-0.2-1.1-0.6c0-0.2,0.1-0.3,0.3-0.4c0.2-0.1,0.4-0.2,0.7-0.2C78.6,24.1,78.9,24.1,79.2,24.2 M79,20.7
		c0.2,0.1,0.2,0.3,0.2,0.5c0,0.2-0.1,0.4-0.2,0.5c-0.2,0.1-0.3,0.2-0.6,0.2c-0.2,0-0.4-0.1-0.6-0.2c-0.1-0.1-0.2-0.3-0.2-0.5
		c0-0.2,0.1-0.4,0.2-0.5c0.2-0.1,0.3-0.2,0.6-0.2C78.6,20.5,78.8,20.6,79,20.7 M77.8,22.5c-0.2,0.1-0.4,0.1-0.5,0.2
		c-0.1,0.1-0.2,0.2-0.2,0.4c0,0.2,0.1,0.3,0.4,0.5c-0.7,0.2-1,0.5-1,1.1c0,0.4,0.2,0.7,0.5,0.9c0.3,0.2,0.8,0.3,1.4,0.3
		c0.6,0,1-0.1,1.4-0.3c0.3-0.2,0.5-0.5,0.5-0.9c0-0.3-0.1-0.5-0.3-0.7c-0.1-0.1-0.2-0.2-0.4-0.3c-0.1-0.1-0.5-0.1-1-0.3
		c-0.3-0.1-0.5-0.1-0.6-0.2c-0.1-0.1-0.2-0.1-0.2-0.2c0-0.2,0.2-0.3,0.5-0.3c0.4-0.1,0.7-0.2,0.9-0.3s0.3-0.3,0.5-0.5
		c0.1-0.2,0.2-0.4,0.2-0.6c0-0.2,0-0.3-0.1-0.5c-0.1-0.1-0.2-0.3-0.3-0.4h0.8v-0.6h-1.7c-0.5,0-1,0.1-1.3,0.4
		c-0.3,0.2-0.5,0.6-0.5,1C76.9,21.8,77.2,22.2,77.8,22.5 M73.9,23.9h0.8v-4h-0.8V23.9z M74,18.3c-0.1,0.1-0.1,0.2-0.1,0.3
		c0,0.1,0,0.2,0.1,0.3c0.1,0.1,0.2,0.1,0.3,0.1c0.1,0,0.2,0,0.3-0.1c0.1-0.1,0.1-0.2,0.1-0.3c0-0.1,0-0.2-0.1-0.3
		c-0.1-0.1-0.2-0.1-0.3-0.1C74.2,18.1,74.1,18.2,74,18.3 M70.6,22.5l-4.1-4.8h-0.7v6.1h0.8v-4.7l4.1,4.7h0.8v-6.1h-0.8V22.5z"/>
	<path clip-path="url(#SVGID_2_)" fill="#FFFFFF" d="M155.7,8.1V6.6h-4V4.8h3.9V3.3h-3.9V1.6h4V0.1H150v8H155.7z M144.8,8.1V6.6
		h-3.4V0.1h-1.7v8H144.8z M134.4,8.1V6.6H131V0.1h-1.7v8H134.4z M123.9,8.1V6.6h-4V4.8h3.9V3.3h-3.9V1.6h4V0.1h-5.7v8H123.9z
		 M112.6,8.1v-8h-1.7v5l-3.7-5h-1.8v8h1.7V2.9l3.8,5.2H112.6z M97.7,5.3h-2.5l1.2-3.4L97.7,5.3z M100.6,8.1l-3.1-8h-2.1l-3.1,8h1.9
		l0.5-1.4h3.4l0.5,1.4H100.6z M85,8.3c1.6,0,2.8-0.9,2.8-2.8V0.1h-1.7v5.4c0,0.8-0.5,1.3-1.2,1.3c-0.6,0-1-0.3-1.3-0.6l-0.7,1.3
		C83.5,8.1,84.2,8.3,85,8.3 M71.6,8.1l-3.4-4.2l3.2-3.8h-2.1l-2.8,3.6V0.1h-1.7v8h1.7V5.7l0.6-0.7l2.4,3.2H71.6z M56.3,8.3
		c1.8,0,2.8-1,3.3-2l-1.5-0.7c-0.3,0.7-1.1,1.2-1.9,1.2c-1.5,0-2.5-1.1-2.5-2.6c0-1.5,1.1-2.6,2.5-2.6c0.8,0,1.5,0.5,1.9,1.2L59.7,2
		c-0.6-1-1.6-2-3.3-2C53.9,0,52,1.7,52,4.1C52,6.6,53.9,8.3,56.3,8.3 M46.8,0.1h-1.7v8h1.7V0.1z M36.8,3.8H35V1.6h1.8
		C37.4,1.6,38,2,38,2.7C38,3.4,37.4,3.8,36.8,3.8 M39.7,8.1l-1.8-3c0.9-0.2,1.8-1,1.8-2.4c0-1.5-1-2.6-2.7-2.6h-3.7v8H35V5.3h1.2
		l1.6,2.8H39.7z M25.8,8.1V1.6h2.3V0.1h-6.4v1.5H24v6.5H25.8z M15.2,5.3h-2.5L14,1.8L15.2,5.3z M18.1,8.1l-3.1-8h-2.1l-3.1,8h1.9
		l0.5-1.4h3.4l0.5,1.4H18.1z M3.5,3.8H1.7V1.6h1.8c0.7,0,1.2,0.4,1.2,1.1C4.7,3.4,4.2,3.8,3.5,3.8 M1.7,8.1V5.3h2
		c1.7,0,2.7-1.2,2.7-2.6c0-1.4-0.9-2.6-2.7-2.6H0v8H1.7z"/>
</g>
</svg>
