<?xml version="1.0" encoding="utf-8"?>
<!-- Generator: Adobe Illustrator 18.1.1, SVG Export Plug-In . SVG Version: 6.00 Build 0)  -->
<svg version="1.1" id="Layer_1" xmlns="http://www.w3.org/2000/svg" xmlns:xlink="http://www.w3.org/1999/xlink" x="0px" y="0px"
	 viewBox="0 0 68.8 22.9" enable-background="new 0 0 68.8 22.9" xml:space="preserve">
<g>
	<path fill="#FFFFFF" d="M1.9,11C0.7,11,0,10.2,0,8.9V6.6h1.1V9c0,0.6,0.2,0.9,0.8,0.9S2.6,9.6,2.6,9V0.2h1.1v8.7
		C3.8,10.1,3.1,11,1.9,11z"/>
	<path fill="#FFFFFF" d="M5.2,10.8V0.2h3.4v1.1H6.4v3.6H8v1H6.4v3.9h2.2v1.1H5.2z"/>
	<path fill="#FFFFFF" d="M13.7,10.9c-0.8,0-1.1-0.3-1.1-1.2V7c0-0.5-0.3-0.9-0.7-0.9H11v4.7H9.9V0.2H12c1,0,1.8,0.5,1.8,1.9v2
		c0,0.8-0.2,1.3-0.9,1.5c0.7,0.2,0.9,0.8,0.9,1.5v2.6c0,0.3,0.1,0.4,0.3,0.4v0.8H13.7z M12.6,2c0-0.5-0.2-0.8-0.6-0.8H11v3.9h0.8
		c0.4,0,0.7-0.3,0.7-0.9V2z"/>
	<path fill="#FFFFFF" d="M15.2,10.8V0.2h3.4v1.1h-2.2v3.6H18v1h-1.6v3.9h2.2v1.1H15.2z"/>
	<path fill="#FFFFFF" d="M24.4,10.8V2.8l-0.3,1.9l-1,6.2h-1.1l-1-6.2l-0.3-1.9v8.1h-1V0.2h1.6l1,6.6l0.3,1.9L23,6.8l0.9-6.6h1.6
		v10.7H24.4z"/>
	<path fill="#FFFFFF" d="M29.2,6.6v4.2h-1.2V6.6l-1.6-6.5h1.2l1.1,5l1.1-5H31L29.2,6.6z"/>
	<path fill="#FFFFFF" d="M35.7,11c-1.2,0-1.9-0.8-1.9-2V6.6h1.1V9c0,0.6,0.2,0.9,0.8,0.9s0.8-0.3,0.8-0.9V0.2h1.1v8.7
		C37.5,10.1,36.9,11,35.7,11z"/>
	<path fill="#FFFFFF" d="M41.7,10.8l-0.3-2.3h-1.5l-0.3,2.3h-1.1l1.6-10.7h1.2l1.6,10.7H41.7z M40.7,2.7l-0.6,4.8h1.2L40.7,2.7z"/>
	<path fill="#FFFFFF" d="M45.9,11c-1.2,0-2-0.8-2-2.1V0.2H45v8.7c0,0.7,0.3,1,0.9,1s0.9-0.3,0.9-1V0.2h1.1v8.7
		C47.9,10.1,47,11,45.9,11z"/>
	<path fill="#FFFFFF" d="M52.8,10.8l-1.8-5.4l-0.5-1.7v7.1h-1.1V0.2h1L52,5.6l0.5,1.7V0.2h1.1v10.7H52.8z"/>
	<path fill="#FFFFFF" d="M57,11c-1.2,0-2-0.9-2-2.2V2.2C55,1,55.8,0,57,0c1.2,0,2,0.9,2,2.1v1.7h-1V2c0-0.5-0.3-0.9-0.9-0.9
		c-0.6,0-0.9,0.4-0.9,0.9V9c0,0.5,0.3,0.9,0.9,0.9c0.6,0,0.9-0.4,0.9-0.9V7.1h1v1.8C59,10.1,58.3,11,57,11z"/>
	<path fill="#FFFFFF" d="M60.3,10.8V0.2h3.4v1.1h-2.2v3.6H63v1h-1.6v3.9h2.2v1.1H60.3z"/>
	<path fill="#FFFFFF" d="M67.1,6.6v4.2H66V6.6l-1.6-6.5h1.2l1.1,5l1.1-5h1.1L67.1,6.6z"/>
</g>
<g>
	<path fill="#D0D2D3" d="M15.3,16H16l3.1,6.9h-1l-0.9-2h-2.9l-0.9,2h-1L15.3,16z M16.7,19.9l-1.1-2.5l-1,2.5H16.7z"/>
	<path fill="#D0D2D3" d="M20,18.3v-0.3c0-0.7,0.2-1.3,0.5-1.6s0.7-0.5,1.1-0.5c0.2,0,0.4,0,0.7,0.1v0.9c-0.1-0.1-0.3-0.1-0.4-0.1
		c-0.3,0-0.6,0.1-0.7,0.3s-0.2,0.5-0.2,1v0.3h0.8v0.8h-0.8v3.7H20v-3.7h-0.6v-0.8H20z"/>
	<path fill="#D0D2D3" d="M21.9,19l1.7-1.6v0.9H25v0.8h-1.4v2.2c0,0.5,0.2,0.8,0.6,0.8c0.3,0,0.7-0.1,1-0.3v0.8
		c-0.3,0.2-0.7,0.3-1.1,0.3c-0.4,0-0.7-0.1-1-0.4c-0.1-0.1-0.2-0.2-0.2-0.2c-0.1-0.1-0.1-0.2-0.1-0.4c0-0.1-0.1-0.4-0.1-0.8v-2
		L21.9,19L21.9,19z"/>
	<path fill="#D0D2D3" d="M29.9,20.7h-3.2c0,0.4,0.2,0.8,0.4,1s0.6,0.4,1,0.4c0.6,0,1.1-0.2,1.6-0.5v0.9c-0.3,0.2-0.5,0.3-0.8,0.4
		s-0.6,0.1-0.9,0.1c-0.5,0-0.9-0.1-1.2-0.3s-0.6-0.5-0.7-0.8c-0.2-0.3-0.3-0.7-0.3-1.2c0-0.7,0.2-1.2,0.6-1.7
		c0.4-0.4,0.9-0.6,1.5-0.6c0.6,0,1.1,0.2,1.4,0.6s0.5,1,0.5,1.7V20.7z M26.8,20.1H29c0-0.4-0.1-0.6-0.3-0.8S28.3,19,27.9,19
		s-0.6,0.1-0.8,0.3S26.8,19.8,26.8,20.1z"/>
	<path fill="#D0D2D3" d="M32,18.3v1l0-0.1c0.4-0.7,0.9-1,1.3-1c0.3,0,0.7,0.2,1,0.5l-0.5,0.8c-0.3-0.3-0.6-0.4-0.9-0.4
		c-0.3,0-0.5,0.1-0.7,0.4s-0.3,0.6-0.3,1v2.3h-0.9v-4.5H32z"/>
	<path fill="#D0D2D3" d="M36.1,18.3v0.6c0.4-0.4,0.8-0.7,1.4-0.7c0.3,0,0.5,0.1,0.8,0.2c0.2,0.1,0.4,0.3,0.5,0.6
		c0.1,0.3,0.2,0.7,0.2,1.2v2.6h-0.9v-2.6c0-0.5-0.1-0.8-0.2-1c-0.1-0.2-0.4-0.3-0.7-0.3c-0.4,0-0.8,0.2-1.1,0.6v3.2h-0.9v-4.5H36.1z
		"/>
	<path fill="#D0D2D3" d="M42.6,18.3c0.7,0,1.3,0.2,1.7,0.7c0.5,0.4,0.7,1,0.7,1.7c0,0.6-0.2,1.2-0.7,1.6c-0.5,0.4-1,0.6-1.7,0.6
		c-0.7,0-1.2-0.2-1.7-0.7c-0.5-0.4-0.7-1-0.7-1.6c0-0.7,0.2-1.2,0.7-1.6C41.3,18.5,41.9,18.3,42.6,18.3z M42.5,19.1
		c-0.4,0-0.8,0.1-1,0.4S41,20.2,41,20.6c0,0.4,0.1,0.8,0.4,1.1c0.3,0.3,0.6,0.4,1.1,0.4c0.4,0,0.8-0.1,1.1-0.4
		c0.3-0.3,0.4-0.6,0.4-1.1c0-0.4-0.1-0.8-0.4-1.1C43.3,19.3,42.9,19.1,42.5,19.1z"/>
	<path fill="#D0D2D3" d="M48.3,18.3c0.7,0,1.3,0.2,1.7,0.7c0.5,0.4,0.7,1,0.7,1.7c0,0.6-0.2,1.2-0.7,1.6c-0.5,0.4-1,0.6-1.7,0.6
		c-0.7,0-1.2-0.2-1.7-0.7c-0.5-0.4-0.7-1-0.7-1.6c0-0.7,0.2-1.2,0.7-1.6C47,18.5,47.6,18.3,48.3,18.3z M48.2,19.1
		c-0.4,0-0.8,0.1-1.1,0.4s-0.4,0.6-0.4,1.1c0,0.4,0.1,0.8,0.4,1.1c0.3,0.3,0.6,0.4,1.1,0.4c0.4,0,0.8-0.1,1.1-0.4
		c0.3-0.3,0.4-0.6,0.4-1.1c0-0.4-0.1-0.8-0.4-1.1C49,19.3,48.7,19.1,48.2,19.1z"/>
	<path fill="#D0D2D3" d="M52.7,18.3v0.6c0.4-0.4,0.8-0.7,1.4-0.7c0.3,0,0.5,0.1,0.8,0.2c0.2,0.1,0.4,0.3,0.5,0.6
		c0.1,0.3,0.2,0.7,0.2,1.2v2.6h-0.9v-2.6c0-0.5-0.1-0.8-0.2-1c-0.1-0.2-0.4-0.3-0.7-0.3c-0.4,0-0.8,0.2-1.1,0.6v3.2h-0.9v-4.5H52.7z
		"/>
</g>
</svg>
