<?xml version="1.0" encoding="utf-8"?>
<!-- Generator: Adobe Illustrator 18.1.1, SVG Export Plug-In . SVG Version: 6.00 Build 0)  -->
<svg version="1.1" id="Layer_1" xmlns="http://www.w3.org/2000/svg" xmlns:xlink="http://www.w3.org/1999/xlink" x="0px" y="0px"
	 viewBox="0 0 137.8 31.7" enable-background="new 0 0 137.8 31.7" xml:space="preserve">
<g>
	<defs>
		<rect id="SVGID_1_" x="0" y="0" width="137.8" height="31.7"/>
	</defs>
	<clipPath id="SVGID_2_">
		<use xlink:href="#SVGID_1_"  overflow="visible"/>
	</clipPath>
	<line clip-path="url(#SVGID_2_)" fill="none" stroke="#E62933" stroke-width="1.765" x1="0.3" y1="30.8" x2="137.5" y2="30.8"/>
	<g clip-path="url(#SVGID_2_)">
		<path fill="#FFFFFF" d="M7.5,25.2V13.6l-0.4,2.7l-1.4,9H4.2l-1.5-9l-0.4-2.7v11.7H0.9V9.8h2.4l1.4,9.5L5,22l0.4-2.7l1.4-9.5H9
			v15.4H7.5z"/>
		<path fill="#FFFFFF" d="M14.5,19.1v6.1h-1.7v-6.1l-2.4-9.3h1.7l1.6,7.2l1.6-7.2H17L14.5,19.1z"/>
	</g>
	<g clip-path="url(#SVGID_2_)">
		<path fill="#FFFFFF" d="M16.8,25c0.6,0,1.9-0.2,2.4-0.3c0.9-0.3,1.2-0.9,1.4-1.6l5-18.1c0.2-0.7,0.2-1.3-0.5-1.7
			c-0.6-0.2-1.7-0.4-2.2-0.5L23,2.7h10.1c4.4,0,6.7,1.8,6.7,5c-0.1,4.6-4.7,7.2-11,7.2h-1.6L24.9,23c-0.2,0.7-0.1,1.2,0.6,1.6
			c0.4,0.2,1.7,0.4,2.3,0.5l0,0.2h-11L16.8,25z M28.8,14.5c4,0,6.5-2.7,6.6-6.7C35.4,4.7,34.1,3,31.7,3h-1.3l-3.2,11.5H28.8z"/>
		<path fill="#FFFFFF" d="M37,20.3c0-3.9,3.7-10.6,9.7-10.6c1.8,0,3.3,0.9,3.3,2.5c0,3.2-3.3,5.1-8.6,5.7c-0.3,1.2-0.4,2.7-0.4,3.8
			c0,1.8,0.7,3,2.1,3c2.5,0,4.5-2.1,5.8-4.6l0.3,0.1c-2,3.8-4.4,5.3-6.8,5.3C39.7,25.7,37,24.3,37,20.3z M46.9,12.2
			c0.1-1.5-0.4-2.1-1.1-2.1c-1.7,0-3.6,3.8-4.5,7.6C45.4,17.2,46.8,14.3,46.9,12.2z"/>
		<path fill="#FFFFFF" d="M50.4,20.5c0-4.7,4.4-10.7,9.2-10.7c1.6,0,2.6,1.4,2.8,2.6h0.1l0.8-2.4H67l-3.8,11
			c-0.6,1.6-0.8,2.6-0.9,3.2c0,0.7,0.3,0.9,0.8,0.9c1.5,0,2.9-1.8,4-4.6l0.3,0.1c-1.2,2.9-2.5,5-4.9,5c-1.8,0-3.3-1-3-3.5l-0.1,0
			c-1.2,2.2-3,3.6-4.8,3.6C52.6,25.7,50.4,24.3,50.4,20.5z M59.5,21.4l2.7-8.3c-0.3-1.8-1.1-2.7-2.3-2.7c-2.7,0-5.7,7.4-5.6,12.1
			c0,1.6,0.5,2.2,1.4,2.2C56.9,24.7,58.2,23.6,59.5,21.4z"/>
		<path fill="#FFFFFF" d="M76.2,22.8c0-1.4,0.9-3.6,0.9-4.6c0-1.1-0.4-1.7-1.6-1.7c-0.3,0-0.7,0-1.1,0.1l-2.8,8.6h-3.7l6.5-20.5
			c0.4-1.1,0.5-1.8,0.5-2.2c0-0.7-0.6-1-1.3-1.1c-0.9-0.1-1.3-0.1-2.1-0.1V1.1l8-0.3l-5,15.5c0.3,0,0.8,0,1.2,0
			c3.5,0,2.8-6.5,7.2-6.5c1.9,0,2.6,1,2.6,2.2s-0.9,2.4-2.2,2.4c-0.9,0-1.7-0.6-1.7-1.3c0-2,2-1.6,2.2-2.4c-0.2-0.5-0.5-0.7-1.1-0.7
			c-2.4,0-2.1,5.3-6.1,6.3c2,0.3,3.9,1.1,3.9,3.1c0,1.6-0.8,3.5-0.8,4.5c0,0.7,0.2,1,0.9,1c1.6,0,2.9-1.7,3.9-4.5l0.4,0.1
			c-1.2,2.9-2.4,5-5,5C77.7,25.6,76.2,24.8,76.2,22.8z"/>
	</g>
</g>
<g>
	<defs>
		<rect id="SVGID_3_" x="0" y="0" width="137.8" height="31.7"/>
	</defs>
	<clipPath id="SVGID_4_">
		<use xlink:href="#SVGID_3_"  overflow="visible"/>
	</clipPath>
	<g clip-path="url(#SVGID_4_)">
		<path fill="#FFFFFF" d="M95,25.2V13.6l-0.4,2.7l-1.4,9h-1.5l-1.5-9l-0.4-2.7v11.7h-1.5V9.8h2.4l1.4,9.5l0.4,2.7l0.4-2.7l1.4-9.5
			h2.3v15.4H95z"/>
		<path fill="#FFFFFF" d="M101.7,25.5c-1.8,0-3-1.3-3-3.2v-9.4c0-1.8,1.2-3.2,3-3.2c1.8,0,3,1.4,3,3.2v9.4
			C104.6,24.1,103.5,25.5,101.7,25.5z M103,12.6c0-0.8-0.5-1.4-1.3-1.4c-0.9,0-1.3,0.6-1.3,1.4v9.9c0,0.8,0.4,1.4,1.3,1.4
			c0.9,0,1.3-0.6,1.3-1.4V12.6z"/>
		<path fill="#FFFFFF" d="M113.4,25.2V13.6l-0.4,2.7l-1.4,9h-1.5l-1.5-9l-0.4-2.7v11.7h-1.5V9.8h2.4l1.4,9.5l0.4,2.7l0.4-2.7
			l1.4-9.5h2.3v15.4H113.4z"/>
		<path fill="#FFFFFF" d="M117.3,25.2V9.8h4.9v1.5h-3.2v5.1h2.3V18h-2.3v5.7h3.2v1.5H117.3z"/>
		<path fill="#FFFFFF" d="M129,25.2l-2.6-7.8l-0.7-2.5v10.3h-1.6V9.8h1.5l2.4,7.9l0.7,2.5V9.8h1.6v15.4H129z"/>
		<path fill="#FFFFFF" d="M135.6,11.4v13.8h-1.6V11.4h-2.1V9.8h5.7v1.6H135.6z"/>
	</g>
</g>
</svg>
