<?xml version="1.0" encoding="utf-8"?>
<!-- Generator: Adobe Illustrator 18.1.1, SVG Export Plug-In . SVG Version: 6.00 Build 0)  -->
<svg version="1.1" id="Layer_1" xmlns="http://www.w3.org/2000/svg" xmlns:xlink="http://www.w3.org/1999/xlink" x="0px" y="0px"
	 viewBox="0 0 105.1 13.1" enable-background="new 0 0 105.1 13.1" xml:space="preserve">
<polygon fill="#FFFFFF" points="48.4,0.1 47,3 47,0.1 45.7,0.1 45.7,7.3 47,7.3 47,5.5 47.5,4.5 48.4,7.3 49.9,7.3 48.4,2.9 
	49.8,0.1 "/>
<polygon fill="#FFFFFF" points="3.6,0.1 2.9,3.2 2.6,4.6 2.4,3.2 1.7,0.1 0,0.1 0,7.3 1.2,7.3 1.2,3.1 1.4,4.1 2.1,7.3 3.1,7.3 
	3.8,4.1 4,3.1 4,7.3 5.3,7.3 5.3,0.1 "/>
<polygon fill="#FFFFFF" points="12.4,0.1 11.4,3 10.4,0.1 8.9,0.1 10.7,4.9 10.7,7.3 12,7.3 12,5 13.8,0.1 "/>
<g>
	<defs>
		<rect id="SVGID_1_" x="0" y="0" width="105.1" height="13.1"/>
	</defs>
	<clipPath id="SVGID_2_">
		<use xlink:href="#SVGID_1_"  overflow="visible"/>
	</clipPath>
	<path clip-path="url(#SVGID_2_)" fill="#FFFFFF" d="M24,3.7c0.6,0,0.8-0.3,0.8-1.2c0-0.9-0.2-1.2-0.9-1.2h-0.6v2.3H24z M22,0.1h2
		c1.7,0,2.2,0.8,2.2,2.4c0,1.6-0.5,2.4-2.1,2.4h-0.7v2.4H22V0.1z"/>
</g>
<polygon fill="#FFFFFF" points="30,0.1 30,7.3 33.6,7.3 33.6,6 31.4,6 31.4,4.2 33.5,4.2 33.5,3 31.4,3 31.4,1.3 33.6,1.3 33.6,0.1 
	"/>
<polygon fill="#FFFFFF" points="61.8,0.1 61.1,3.2 60.9,4.6 60.6,3.2 59.9,0.1 58.2,0.1 58.2,7.3 59.4,7.3 59.4,3.1 59.6,4.1 
	60.3,7.3 61.3,7.3 62,4.1 62.2,3.1 62.2,7.3 63.5,7.3 63.5,0.1 "/>
<g>
	<defs>
		<rect id="SVGID_3_" x="0" y="0" width="105.1" height="13.1"/>
	</defs>
	<clipPath id="SVGID_4_">
		<use xlink:href="#SVGID_3_"  overflow="visible"/>
	</clipPath>
	<path clip-path="url(#SVGID_4_)" fill="#FFFFFF" d="M70.7,3.7c0-1.8-0.1-2.4-0.9-2.4s-0.9,0.6-0.9,2.4c0,1.8,0.1,2.4,0.9,2.4
		S70.7,5.5,70.7,3.7 M68.1,6.8c-0.6-0.6-0.7-1.7-0.7-3.1c0-1.4,0-2.4,0.6-3C68.4,0.2,69,0,69.7,0c0.8,0,1.3,0.2,1.7,0.6
		c0.6,0.6,0.6,1.7,0.6,3.1c0,1.4,0,2.5-0.7,3.1c-0.3,0.3-0.9,0.6-1.6,0.6C69,7.3,68.5,7.1,68.1,6.8"/>
</g>
<polygon fill="#FFFFFF" points="79.6,0.1 78.9,3.2 78.6,4.6 78.4,3.2 77.7,0.1 76,0.1 76,7.3 77.2,7.3 77.2,3.1 77.4,4.1 78.1,7.3 
	79.1,7.3 79.8,4.1 80,3.1 80,7.3 81.3,7.3 81.3,0.1 "/>
<polygon fill="#FFFFFF" points="85.4,0.1 85.4,7.3 88.9,7.3 88.9,6 86.8,6 86.8,4.2 88.9,4.2 88.9,3 86.8,3 86.8,1.3 88.9,1.3 
	88.9,0.1 "/>
<polygon fill="#FFFFFF" points="95.9,0.1 95.9,3.9 95.5,3 94.3,0.1 92.9,0.1 92.9,7.3 94.2,7.3 94.2,3.1 94.5,4 95.9,7.3 97.1,7.3 
	97.1,0.1 "/>
<polygon fill="#FFFFFF" points="100.9,0.1 100.9,1.3 102.3,1.3 102.3,7.3 103.7,7.3 103.7,1.3 105.1,1.3 105.1,0.1 "/>
<polygon fill="#FFFFFF" points="38.8,0.1 37.2,7.3 38.5,7.3 39.6,2.2 40.6,7.3 42,7.3 40.4,0.1 "/>
<g>
	<defs>
		<rect id="SVGID_5_" x="0" y="0" width="105.1" height="13.1"/>
	</defs>
	<clipPath id="SVGID_6_">
		<use xlink:href="#SVGID_5_"  overflow="visible"/>
	</clipPath>
	
		<line clip-path="url(#SVGID_6_)" fill="none" stroke="#EC1C24" stroke-width="0.911" stroke-miterlimit="10" x1="105.1" y1="12.7" x2="0" y2="12.7"/>
</g>
</svg>
