<?xml version="1.0" encoding="utf-8"?>
<!-- Generator: Adobe Illustrator 18.1.1, SVG Export Plug-In . SVG Version: 6.00 Build 0)  -->
<svg version="1.1" id="Layer_1" xmlns="http://www.w3.org/2000/svg" xmlns:xlink="http://www.w3.org/1999/xlink" x="0px" y="0px"
	 viewBox="0 0 83.5 30" enable-background="new 0 0 83.5 30" xml:space="preserve">
<g>
	<defs>
		<rect id="SVGID_1_" x="0" y="0" width="83.5" height="30"/>
	</defs>
	<clipPath id="SVGID_2_">
		<use xlink:href="#SVGID_1_"  overflow="visible"/>
	</clipPath>
	<g clip-path="url(#SVGID_2_)">
		<defs>
			<rect id="SVGID_3_" x="0" y="0" width="83.5" height="30"/>
		</defs>
		<clipPath id="SVGID_4_">
			<use xlink:href="#SVGID_3_"  overflow="visible"/>
		</clipPath>
		<g opacity="0.5" clip-path="url(#SVGID_4_)">
			<g>
				<defs>
					<rect id="SVGID_5_" x="-9" y="-7" width="101.5" height="38"/>
				</defs>
				<clipPath id="SVGID_6_">
					<use xlink:href="#SVGID_5_"  overflow="visible"/>
				</clipPath>
				<polygon clip-path="url(#SVGID_6_)" fill="#231F20" points="12.5,0 0,15.6 11.6,30 83.5,30 83.5,0 				"/>
			</g>
		</g>
	</g>
	<g clip-path="url(#SVGID_2_)">
		<path fill="#FFFFFF" d="M31.8,21.1V12l-0.3,2.1l-1.1,7h-1.2l-1.1-7L27.8,12v9.1h-1.2v-12h1.9l1.1,7.4l0.3,2.1l0.3-2.1l1.1-7.4H33
			v12H31.8z"/>
		<path fill="#FFFFFF" d="M36.9,21.3c-1.4,0-2.3-1-2.3-2.5v-7.3c0-1.4,0.9-2.5,2.3-2.5s2.3,1.1,2.3,2.5v7.3
			C39.2,20.3,38.3,21.3,36.9,21.3z M37.9,11.3c0-0.6-0.4-1.1-1-1.1s-1,0.5-1,1.1V19c0,0.6,0.3,1.1,1,1.1s1-0.5,1-1.1V11.3z"/>
		<path fill="#FFFFFF" d="M45.2,21.2c-0.9,0-1.2-0.3-1.2-1.3v-3.1c0-0.6-0.3-1-0.8-1h-1v5.3h-1.3v-12h2.4c1.1,0,2,0.6,2,2.2v2.3
			c0,0.9-0.3,1.5-1,1.7c0.7,0.2,1,0.9,1,1.7v2.9c0,0.3,0.1,0.5,0.3,0.5v0.9H45.2z M43.9,11.2c0-0.6-0.2-0.8-0.7-0.8h-1v4.4h0.9
			c0.5,0,0.8-0.4,0.8-1V11.2z"/>
		<path fill="#FFFFFF" d="M50.6,21.1l-2-6.1L48,13.1v8h-1.2v-12H48l1.9,6.2l0.5,1.9V9.1h1.2v12H50.6z"/>
		<path fill="#FFFFFF" d="M53.2,21.1v-12h1.3v12H53.2z"/>
		<path fill="#FFFFFF" d="M60.1,21.1l-2-6.1l-0.6-1.9v8h-1.2v-12h1.2l1.9,6.2l0.5,1.9V9.1H61v12H60.1z"/>
		<path fill="#FFFFFF" d="M66.6,21.1l-0.3-0.7c-0.3,0.6-0.9,0.9-1.6,0.9c-1.2,0-2.1-0.9-2.1-2.5v-7.4c0-1.4,0.9-2.5,2.3-2.5
			s2.2,1,2.2,2.5V13h-1.2v-1.8c0-0.5-0.3-1-1-1s-1,0.5-1,1V19c0,0.6,0.3,1.1,1,1.1c0.7,0,1-0.5,1-1.1v-2.7h-1v-1.1h2.2v6H66.6z"/>
	</g>
</g>
</svg>
