<?xml version="1.0" encoding="utf-8"?>
<!-- Generator: Adobe Illustrator 18.1.1, SVG Export Plug-In . SVG Version: 6.00 Build 0)  -->
<svg version="1.1" id="Layer_1" xmlns="http://www.w3.org/2000/svg" xmlns:xlink="http://www.w3.org/1999/xlink" x="0px" y="0px"
	 viewBox="0 0 20.2 12.3" enable-background="new 0 0 20.2 12.3" xml:space="preserve">
<g>
	<defs>
		<rect id="SVGID_1_" y="0" width="20.2" height="12.3"/>
	</defs>
	<clipPath id="SVGID_2_">
		<use xlink:href="#SVGID_1_"  overflow="visible"/>
	</clipPath>
	<g clip-path="url(#SVGID_2_)">
		<defs>
			<rect id="SVGID_3_" x="0" y="0" width="20.2" height="12.3"/>
		</defs>
		<clipPath id="SVGID_4_">
			<use xlink:href="#SVGID_3_"  overflow="visible"/>
		</clipPath>
		<g opacity="0.75" clip-path="url(#SVGID_4_)">
			<g>
				<defs>
					<rect id="SVGID_5_" x="-17" y="-1.6" width="53.5" height="15"/>
				</defs>
				<clipPath id="SVGID_6_">
					<use xlink:href="#SVGID_5_"  overflow="visible"/>
				</clipPath>
				<line clip-path="url(#SVGID_6_)" fill="none" stroke="#FFFFFF" stroke-width="0.954" x1="19.5" y1="11.8" x2="0" y2="11.8"/>
			</g>
		</g>
		<path clip-path="url(#SVGID_4_)" fill="#FFFFFF" d="M19,7.3V0.8h1.1V0.1h-3.1v0.7h1.1v6.5H19z M16,7.3V0.1h-0.8v3.1h-1.7V0.1h-0.8
			v7.2h0.8V4h1.7v3.3H16z M9.7,7.4c0.6,0,1.1-0.3,1.5-0.9V3.7H9.5v0.7h1v1.9C10.3,6.6,10,6.7,9.7,6.7c-0.7,0-1-1.2-1-3
			c0-1.8,0.3-3,1-3c0.5,0,0.7,0.4,0.8,0.9l0.7-0.3C10.9,0.6,10.5,0,9.7,0C8.3,0,7.8,1.5,7.8,3.7C7.8,5.9,8.3,7.4,9.7,7.4 M6.4,0.1
			H5.6v7.2h0.8V0.1z M4,7.3V0.1H3.2V5L1.5,0.1H0.7v7.2h0.8v-5l1.8,5H4z"/>
	</g>
</g>
</svg>
