<?xml version="1.0" encoding="utf-8"?>
<!-- Generator: Adobe Illustrator 18.1.1, SVG Export Plug-In . SVG Version: 6.00 Build 0)  -->
<svg version="1.1" id="Layer_1" xmlns="http://www.w3.org/2000/svg" xmlns:xlink="http://www.w3.org/1999/xlink" x="0px" y="0px"
	 viewBox="0 0 39.6 12.3" enable-background="new 0 0 39.6 12.3" xml:space="preserve">
<g>
	<defs>
		<rect id="SVGID_1_" x="0" y="0" width="39.6" height="12.3"/>
	</defs>
	<clipPath id="SVGID_2_">
		<use xlink:href="#SVGID_1_"  overflow="visible"/>
	</clipPath>
	<g clip-path="url(#SVGID_2_)">
		<defs>
			<rect id="SVGID_3_" x="0" y="0" width="39.6" height="12.3"/>
		</defs>
		<clipPath id="SVGID_4_">
			<use xlink:href="#SVGID_3_"  overflow="visible"/>
		</clipPath>
		<g opacity="0.75" clip-path="url(#SVGID_4_)">
			<g>
				<defs>
					<rect id="SVGID_5_" x="-17" y="-1.6" width="73.6" height="15"/>
				</defs>
				<clipPath id="SVGID_6_">
					<use xlink:href="#SVGID_5_"  overflow="visible"/>
				</clipPath>
				<line clip-path="url(#SVGID_6_)" fill="none" stroke="#FFFFFF" stroke-width="0.954" x1="39.6" y1="11.8" x2="0" y2="11.8"/>
			</g>
		</g>
		<path clip-path="url(#SVGID_4_)" fill="#FFFFFF" d="M39.2,7.3V0.1h-0.8V5l-1.7-4.9h-0.8v7.2h0.8v-5l1.8,5H39.2z M32.7,6.7
			c-0.8,0-1-1.4-1-3c0-1.6,0.3-3,1-3c0.8,0,1,1.4,1,3C33.7,5.3,33.4,6.7,32.7,6.7 M32.7,7.4c1.4,0,1.9-1.7,1.9-3.7
			C34.5,1.7,34,0,32.7,0c-1.4,0-1.9,1.7-1.9,3.7C30.8,5.8,31.3,7.4,32.7,7.4 M27.8,6.7c-0.8,0-1-1.4-1-3c0-1.6,0.3-3,1-3
			c0.8,0,1,1.4,1,3C28.8,5.3,28.5,6.7,27.8,6.7 M27.8,7.4c1.4,0,1.9-1.7,1.9-3.7c0-2.1-0.5-3.7-1.9-3.7c-1.4,0-1.9,1.7-1.9,3.7
			C25.9,5.8,26.4,7.4,27.8,7.4 M24.5,7.3V0.1h-0.8V5L22,0.1h-0.8v7.2H22v-5l1.8,5H24.5z M17.9,3.7h-0.6V0.8h0.6c0.6,0,1,0.6,1,1.4
			S18.6,3.7,17.9,3.7 M19.8,7.3l-1.1-3.1c0.4-0.2,1-0.7,1-2c0-1.3-0.7-2.1-1.7-2.1h-1.5v7.2h0.8V4.4H18l0.9,2.9H19.8z M15.2,7.3V6.6
			h-1.9V4h1.8V3.3h-1.8V0.8h1.9V0.1h-2.7v7.2H15.2z M10.3,7.3V0.8h1.1V0.1H8.3v0.7h1.1v6.5H10.3z M5.6,7.3V4h1.8V3.3H5.6V0.8h1.9
			V0.1H4.8v7.2H5.6z M2.6,4.9H1.3L2,1.1L2.6,4.9z M3.9,7.3L2.4,0.1H1.5L0.1,7.3h0.8l0.3-1.7h1.5L3,7.3H3.9z"/>
	</g>
</g>
</svg>
