<?xml version="1.0" encoding="utf-8"?>
<!-- Generator: Adobe Illustrator 18.1.1, SVG Export Plug-In . SVG Version: 6.00 Build 0)  -->
<svg version="1.1" id="Layer_1" xmlns="http://www.w3.org/2000/svg" xmlns:xlink="http://www.w3.org/1999/xlink" x="0px" y="0px"
	 viewBox="0 0 172.1 131.7" enable-background="new 0 0 172.1 131.7" xml:space="preserve">
<g>
	<defs>
		<rect id="SVGID_1_" y="0" width="172.1" height="131.7"/>
	</defs>
	<clipPath id="SVGID_2_">
		<use xlink:href="#SVGID_1_"  overflow="visible"/>
	</clipPath>
	<g clip-path="url(#SVGID_2_)">
		<path fill="#FFFFFF" d="M8.6,39.6H1.9V6.3h6.6c3.1,0,5.5,1.5,5.5,6v5.5c0,2.5-0.8,4.2-2.8,4.8c2.1,0.7,2.9,2.4,2.9,4.9v6.2
			C14.1,38.1,11.7,39.6,8.6,39.6z M10.4,12c0-1.5-0.6-2.3-1.9-2.3h-3v11.5h2.5c1.5,0,2.4-1,2.4-2.7V12z M10.5,26.9
			c0-1.7-0.9-2.7-2.4-2.7H5.5v12h3c1.3,0,2-0.8,2-2.3V26.9z"/>
		<path fill="#FFFFFF" d="M30.4,39.9c-2.4,0-3.4-0.8-3.4-3.6v-8.6c0-1.7-0.8-2.8-2.3-2.8H22v14.7h-3.7V6.3h6.6c3.1,0,5.6,1.5,5.6,6
			v6.4c0,2.5-0.7,4.1-2.8,4.8c2.1,0.7,2.9,2.6,2.9,4.7v8.1c0,0.9,0.2,1.3,0.9,1.3v2.5H30.4z M26.9,12c0-1.5-0.7-2.3-2-2.3H22v12.1
			h2.6c1.4,0,2.3-1,2.3-2.8V12z"/>
		<path fill="#FFFFFF" d="M35,39.6V6.3h3.7v33.3H35z"/>
		<path fill="#FFFFFF" d="M51.8,39.6l-0.9-7.2h-4.6l-1,7.2h-3.4l5.1-33.3h3.8l4.9,33.3H51.8z M48.7,14.2l-2,14.9h3.7L48.7,14.2z"/>
		<path fill="#FFFFFF" d="M69.4,39.6l-5.7-16.9l-1.6-5.4v22.2h-3.4V6.3H62l5.2,17.1l1.5,5.4V6.3h3.4v33.3H69.4z"/>
		<path fill="#FFFFFF" d="M97.8,39.6V14.4L97,20.2l-3.1,19.4h-3.4l-3.1-19.4l-0.8-5.8v25.2h-3.2V6.3h5.2l3,20.6l0.8,5.8l0.8-5.8
			l3-20.6h5v33.3H97.8z"/>
		<path fill="#FFFFFF" d="M114.4,39.6l-0.9-7.2h-4.6l-1,7.2h-3.4l5-33.3h3.8l4.8,33.3H114.4z M111.3,14.2L109.3,29h3.7L111.3,14.2z"
			/>
		<path fill="#FFFFFF" d="M124.1,36.2h7.8v3.4h-11.8v-1.9l8.2-28h-7.8V6.3h11.8v1.9L124.1,36.2z"/>
		<path fill="#FFFFFF" d="M138.5,36.2h7.8v3.4h-11.8v-1.9l8.2-28H135V6.3h11.8v1.9L138.5,36.2z"/>
		<path fill="#FFFFFF" d="M158.7,39.6l-0.9-7.2h-4.6l-1,7.2h-3.4l5-33.3h3.8l4.9,33.3H158.7z M155.6,14.2l-2,14.9h3.7L155.6,14.2z"
			/>
	</g>
</g>
<g>
	<defs>
		<rect id="SVGID_3_" y="0" width="172.1" height="131.7"/>
	</defs>
	<clipPath id="SVGID_4_">
		<use xlink:href="#SVGID_3_"  overflow="visible"/>
	</clipPath>
	<g clip-path="url(#SVGID_4_)">
		<path fill="#FFFFFF" d="M1.5,50h7.3v1.7H3.5v3.8h5.3v1.7H3.5v6.4h-2V50z"/>
		<path fill="#FFFFFF" d="M11.9,50.8c0.3,0,0.5,0.1,0.8,0.3s0.3,0.4,0.3,0.7c0,0.3-0.1,0.5-0.3,0.7s-0.5,0.3-0.8,0.3
			c-0.3,0-0.5-0.1-0.7-0.3s-0.3-0.5-0.3-0.7c0-0.3,0.1-0.5,0.3-0.7S11.7,50.8,11.9,50.8z M11.1,54.6h1.8v9h-1.8V54.6z"/>
		<path fill="#FFFFFF" d="M14.5,56l3.3-3.3v1.9h2.8v1.6h-2.8v4.4c0,1,0.4,1.5,1.3,1.5c0.6,0,1.3-0.2,2-0.6v1.7
			c-0.7,0.4-1.4,0.6-2.2,0.6c-0.8,0-1.5-0.2-2-0.7c-0.2-0.1-0.3-0.3-0.4-0.5s-0.2-0.4-0.3-0.7s-0.1-0.8-0.1-1.7v-4h-1.6V56z"/>
		<path fill="#FFFFFF" d="M24.6,54.6v1.1c0.8-0.9,1.7-1.3,2.7-1.3c0.6,0,1.1,0.1,1.6,0.4s0.8,0.7,1.1,1.2s0.4,1.3,0.4,2.4v5.1h-1.8
			v-5.1c0-0.9-0.1-1.6-0.4-2s-0.7-0.6-1.4-0.6c-0.8,0-1.6,0.4-2.1,1.3v6.4h-1.8v-9H24.6z"/>
		<path fill="#FFFFFF" d="M40.9,59.3h-6.3c0,0.9,0.3,1.5,0.9,2.1s1.2,0.8,2.1,0.8c1.2,0,2.3-0.4,3.2-1.1v1.7
			c-0.5,0.4-1.1,0.6-1.6,0.8s-1.2,0.2-1.9,0.2c-1,0-1.8-0.2-2.4-0.6s-1.1-1-1.5-1.7s-0.6-1.5-0.6-2.4c0-1.4,0.4-2.5,1.2-3.3
			s1.8-1.3,3-1.3c1.2,0,2.1,0.4,2.9,1.2s1.1,2,1.1,3.3V59.3z M34.6,58.2h4.5c0-0.7-0.3-1.3-0.6-1.6S37.6,56,37,56s-1.2,0.2-1.6,0.6
			S34.7,57.5,34.6,58.2z"/>
		<path fill="#FFFFFF" d="M42.8,63V61c0.5,0.4,1,0.6,1.5,0.9s1,0.3,1.3,0.3c0.4,0,0.7-0.1,1-0.3s0.4-0.4,0.4-0.7
			c0-0.3-0.1-0.5-0.3-0.6s-0.5-0.4-1.1-0.7c-1.1-0.6-1.9-1.2-2.3-1.6s-0.5-0.9-0.5-1.5c0-0.7,0.3-1.3,0.8-1.7s1.2-0.7,2.1-0.7
			c0.9,0,1.8,0.2,2.7,0.7v1.8c-1.1-0.6-1.9-1-2.6-1c-0.3,0-0.6,0.1-0.8,0.2s-0.3,0.3-0.3,0.6c0,0.2,0.1,0.4,0.3,0.6
			c0.2,0.2,0.5,0.4,1,0.7l0.6,0.4c1.5,0.8,2.2,1.8,2.2,2.8c0,0.7-0.3,1.3-0.9,1.8s-1.3,0.7-2.2,0.7c-0.5,0-1-0.1-1.4-0.2
			S43.4,63.3,42.8,63z"/>
		<path fill="#FFFFFF" d="M50.9,63V61c0.5,0.4,1,0.6,1.5,0.9s1,0.3,1.3,0.3c0.4,0,0.7-0.1,1-0.3s0.4-0.4,0.4-0.7
			c0-0.3-0.1-0.5-0.3-0.6s-0.5-0.4-1.1-0.7c-1.1-0.6-1.9-1.2-2.3-1.6s-0.5-0.9-0.5-1.5c0-0.7,0.3-1.3,0.8-1.7s1.2-0.7,2.1-0.7
			c0.9,0,1.8,0.2,2.7,0.7v1.8c-1.1-0.6-1.9-1-2.6-1c-0.3,0-0.6,0.1-0.8,0.2s-0.3,0.3-0.3,0.6c0,0.2,0.1,0.4,0.3,0.6
			c0.2,0.2,0.5,0.4,1,0.7l0.6,0.4c1.5,0.8,2.2,1.8,2.2,2.8c0,0.7-0.3,1.3-0.9,1.8s-1.3,0.7-2.2,0.7c-0.5,0-1-0.1-1.4-0.2
			S51.5,63.3,50.9,63z"/>
		<path fill="#FFFFFF" d="M65.5,63.6V49.9h4.3c1.3,0,2.3,0.4,3.1,1.1s1.2,1.6,1.2,2.8c0,0.8-0.2,1.5-0.6,2.1s-0.9,1.1-1.6,1.3
			s-1.7,0.4-3,0.4h-1.4v5.9H65.5z M69.5,51.7h-2v4.3h2.1c0.8,0,1.4-0.2,1.8-0.6s0.6-0.9,0.6-1.6C72.1,52.4,71.2,51.7,69.5,51.7z"/>
		<path fill="#FFFFFF" d="M77.9,54.6v2.1l0.1-0.2c0.9-1.4,1.7-2.1,2.6-2.1c0.7,0,1.4,0.3,2.1,1L81.7,57c-0.6-0.6-1.2-0.9-1.7-0.9
			c-0.6,0-1.1,0.3-1.5,0.8s-0.6,1.2-0.6,1.9v4.7h-1.8v-9H77.9z"/>
		<path fill="#FFFFFF" d="M88.1,54.6c1.4,0,2.5,0.4,3.4,1.3s1.4,2,1.4,3.3c0,1.3-0.5,2.4-1.4,3.2s-2.1,1.3-3.5,1.3
			c-1.3,0-2.5-0.4-3.4-1.3s-1.4-2-1.4-3.3c0-1.3,0.5-2.4,1.4-3.3S86.7,54.6,88.1,54.6z M88,56.2c-0.9,0-1.6,0.3-2.1,0.8
			s-0.8,1.3-0.8,2.1c0,0.9,0.3,1.6,0.8,2.1s1.3,0.8,2.2,0.8c0.9,0,1.6-0.3,2.1-0.8S91,60,91,59.2c0-0.9-0.3-1.6-0.9-2.1
			S88.9,56.2,88,56.2z"/>
		<path fill="#FFFFFF" d="M95.4,54.6v-0.5c0-1.4,0.3-2.5,0.9-3.2c0.6-0.7,1.4-1.1,2.2-1.1c0.4,0,0.8,0.1,1.3,0.2v1.7
			c-0.3-0.1-0.6-0.2-0.8-0.2c-0.7,0-1.2,0.2-1.4,0.6c-0.3,0.4-0.4,1-0.4,2v0.5h1.6v1.6h-1.6v7.4h-1.8v-7.4h-1.3v-1.6H95.4z"/>
		<path fill="#FFFFFF" d="M108.1,59.3h-6.3c0,0.9,0.3,1.5,0.9,2.1c0.5,0.5,1.2,0.8,2.1,0.8c1.2,0,2.3-0.4,3.2-1.1v1.7
			c-0.5,0.4-1.1,0.6-1.6,0.8s-1.2,0.2-1.9,0.2c-1,0-1.8-0.2-2.4-0.6c-0.6-0.4-1.1-1-1.5-1.7c-0.4-0.7-0.6-1.5-0.6-2.4
			c0-1.4,0.4-2.5,1.2-3.3c0.8-0.9,1.8-1.3,3-1.3c1.2,0,2.1,0.4,2.9,1.2c0.7,0.8,1.1,2,1.1,3.3V59.3z M101.8,58.2h4.5
			c0-0.7-0.3-1.3-0.6-1.6c-0.4-0.4-0.9-0.6-1.5-0.6c-0.6,0-1.2,0.2-1.6,0.6C102.2,56.9,101.9,57.5,101.8,58.2z"/>
		<path fill="#FFFFFF" d="M110,63V61c0.5,0.4,1,0.6,1.5,0.9s1,0.3,1.3,0.3c0.4,0,0.7-0.1,1-0.3s0.4-0.4,0.4-0.7
			c0-0.3-0.1-0.5-0.3-0.6s-0.5-0.4-1.1-0.7c-1.1-0.6-1.9-1.2-2.3-1.6s-0.5-0.9-0.5-1.5c0-0.7,0.3-1.3,0.8-1.7s1.2-0.7,2.1-0.7
			c0.9,0,1.8,0.2,2.7,0.7v1.8c-1.1-0.6-1.9-1-2.6-1c-0.3,0-0.6,0.1-0.8,0.2s-0.3,0.3-0.3,0.6c0,0.2,0.1,0.4,0.3,0.6
			c0.2,0.2,0.5,0.4,1,0.7l0.6,0.4c1.5,0.8,2.2,1.8,2.2,2.8c0,0.7-0.3,1.3-0.9,1.8s-1.3,0.7-2.2,0.7c-0.5,0-1-0.1-1.4-0.2
			S110.6,63.3,110,63z"/>
		<path fill="#FFFFFF" d="M118.1,63V61c0.5,0.4,1,0.6,1.5,0.9c0.5,0.2,1,0.3,1.3,0.3c0.4,0,0.7-0.1,1-0.3c0.3-0.2,0.4-0.4,0.4-0.7
			c0-0.3-0.1-0.5-0.3-0.6c-0.2-0.2-0.5-0.4-1.1-0.7c-1.1-0.6-1.9-1.2-2.2-1.6c-0.4-0.5-0.5-0.9-0.5-1.5c0-0.7,0.3-1.3,0.8-1.7
			s1.2-0.7,2.1-0.7c0.9,0,1.8,0.2,2.7,0.7v1.8c-1.1-0.6-1.9-1-2.6-1c-0.3,0-0.6,0.1-0.8,0.2c-0.2,0.1-0.3,0.3-0.3,0.6
			c0,0.2,0.1,0.4,0.3,0.6c0.2,0.2,0.5,0.4,1,0.7l0.6,0.4c1.5,0.8,2.2,1.8,2.2,2.8c0,0.7-0.3,1.3-0.9,1.8s-1.3,0.7-2.2,0.7
			c-0.5,0-1-0.1-1.4-0.2C119.2,63.5,118.7,63.3,118.1,63z"/>
		<path fill="#FFFFFF" d="M127.5,50.8c0.3,0,0.5,0.1,0.8,0.3s0.3,0.4,0.3,0.7c0,0.3-0.1,0.5-0.3,0.7s-0.5,0.3-0.8,0.3
			c-0.3,0-0.5-0.1-0.7-0.3s-0.3-0.5-0.3-0.7c0-0.3,0.1-0.5,0.3-0.7S127.2,50.8,127.5,50.8z M126.6,54.6h1.8v9h-1.8V54.6z"/>
		<path fill="#FFFFFF" d="M135.7,54.6c1.4,0,2.5,0.4,3.4,1.3c0.9,0.9,1.4,2,1.4,3.3c0,1.3-0.5,2.4-1.4,3.2s-2.1,1.3-3.5,1.3
			c-1.3,0-2.5-0.4-3.4-1.3c-0.9-0.9-1.4-2-1.4-3.3c0-1.3,0.5-2.4,1.4-3.3C133.1,55,134.3,54.6,135.7,54.6z M135.6,56.2
			c-0.9,0-1.6,0.3-2.1,0.8s-0.8,1.3-0.8,2.1c0,0.9,0.3,1.6,0.8,2.1c0.6,0.5,1.3,0.8,2.2,0.8c0.9,0,1.6-0.3,2.1-0.8s0.8-1.3,0.8-2.1
			c0-0.9-0.3-1.6-0.9-2.1C137.2,56.5,136.4,56.2,135.6,56.2z"/>
		<path fill="#FFFFFF" d="M144.6,54.6v1.1c0.8-0.9,1.7-1.3,2.7-1.3c0.6,0,1.1,0.1,1.6,0.4s0.8,0.7,1.1,1.2s0.4,1.3,0.4,2.4v5.1h-1.8
			v-5.1c0-0.9-0.1-1.6-0.4-2s-0.7-0.6-1.4-0.6c-0.8,0-1.6,0.4-2.1,1.3v6.4h-1.8v-9H144.6z"/>
		<path fill="#FFFFFF" d="M158.8,58.2V62c0,0.3,0.1,0.5,0.3,0.5c0.2,0,0.6-0.2,1-0.5v1.1c-0.4,0.3-0.7,0.4-1,0.5s-0.5,0.1-0.8,0.1
			c-0.8,0-1.2-0.3-1.3-0.9c-0.8,0.6-1.6,0.9-2.4,0.9c-0.6,0-1.1-0.2-1.6-0.6c-0.4-0.4-0.6-0.9-0.6-1.6c0-0.6,0.2-1.1,0.6-1.5
			c0.4-0.4,1-0.8,1.7-1.1l2.3-0.8v-0.5c0-1.1-0.5-1.6-1.6-1.6c-1,0-1.9,0.5-2.8,1.5v-1.9c0.7-0.8,1.7-1.2,3-1.2c1,0,1.7,0.3,2.3,0.8
			c0.2,0.2,0.4,0.4,0.5,0.6s0.3,0.5,0.3,0.8C158.8,56.9,158.8,57.4,158.8,58.2z M157.1,61.8v-2.7l-1.2,0.5c-0.6,0.2-1,0.5-1.3,0.7
			c-0.3,0.2-0.4,0.5-0.4,0.9c0,0.4,0.1,0.7,0.4,0.9c0.2,0.2,0.5,0.4,0.9,0.4C156.1,62.5,156.6,62.3,157.1,61.8z"/>
		<path fill="#FFFFFF" d="M162.2,50h1.8v13.6h-1.8V50z"/>
	</g>
	<g clip-path="url(#SVGID_4_)">
		<path fill="#FFFFFF" d="M5.6,82.3h0.8v6.1H5.6l-4.1-4.7v4.7H0.7v-6.1h0.7l4.1,4.8V82.3z"/>
		<path fill="#FFFFFF" d="M10.1,86v1.7c0,0.1,0,0.2,0.1,0.2c0.1,0,0.2-0.1,0.5-0.2v0.5c-0.2,0.1-0.3,0.2-0.4,0.2
			c-0.1,0-0.2,0.1-0.3,0.1c-0.3,0-0.5-0.1-0.6-0.4c-0.3,0.3-0.7,0.4-1.1,0.4c-0.3,0-0.5-0.1-0.7-0.3c-0.2-0.2-0.3-0.4-0.3-0.7
			c0-0.3,0.1-0.5,0.3-0.7c0.2-0.2,0.4-0.4,0.8-0.5l1-0.4v-0.2c0-0.5-0.2-0.7-0.7-0.7c-0.4,0-0.9,0.2-1.3,0.7v-0.9
			c0.3-0.4,0.8-0.5,1.3-0.5c0.4,0,0.8,0.1,1.1,0.3c0.1,0.1,0.2,0.2,0.2,0.3c0.1,0.1,0.1,0.2,0.1,0.4C10.1,85.5,10.1,85.7,10.1,86z
			 M9.3,87.7v-1.2l-0.5,0.2c-0.3,0.1-0.5,0.2-0.6,0.3c-0.1,0.1-0.2,0.2-0.2,0.4c0,0.2,0.1,0.3,0.2,0.4S8.5,88,8.6,88
			C8.9,88,9.1,87.9,9.3,87.7z"/>
		<path fill="#FFFFFF" d="M14.7,85.5v2.9h-0.8v-2.2c0-0.4-0.1-0.8-0.2-0.9c-0.1-0.2-0.3-0.3-0.6-0.3c-0.2,0-0.3,0-0.5,0.1
			c-0.1,0.1-0.3,0.2-0.5,0.4v2.9h-0.8v-4h0.8v0.5c0.4-0.4,0.8-0.6,1.2-0.6c0.5,0,0.9,0.2,1.2,0.7c0.4-0.5,0.9-0.7,1.3-0.7
			c0.4,0,0.7,0.1,1,0.4c0.3,0.3,0.4,0.7,0.4,1.3v2.4h-0.8v-2.4c0-0.3-0.1-0.6-0.2-0.8S15.9,85,15.7,85C15.3,85,15,85.2,14.7,85.5z"
			/>
		<path fill="#FFFFFF" d="M23.4,86v1.7c0,0.1,0,0.2,0.1,0.2c0.1,0,0.2-0.1,0.5-0.2v0.5c-0.2,0.1-0.3,0.2-0.4,0.2
			c-0.1,0-0.2,0.1-0.3,0.1c-0.3,0-0.5-0.1-0.6-0.4c-0.3,0.3-0.7,0.4-1.1,0.4c-0.3,0-0.5-0.1-0.7-0.3c-0.2-0.2-0.3-0.4-0.3-0.7
			c0-0.3,0.1-0.5,0.3-0.7c0.2-0.2,0.4-0.4,0.8-0.5l1-0.4v-0.2c0-0.5-0.2-0.7-0.7-0.7c-0.4,0-0.9,0.2-1.3,0.7v-0.9
			c0.3-0.4,0.8-0.5,1.3-0.5c0.4,0,0.8,0.1,1.1,0.3c0.1,0.1,0.2,0.2,0.2,0.3c0.1,0.1,0.1,0.2,0.1,0.4C23.4,85.5,23.4,85.7,23.4,86z
			 M22.6,87.7v-1.2l-0.5,0.2c-0.3,0.1-0.5,0.2-0.6,0.3c-0.1,0.1-0.2,0.2-0.2,0.4c0,0.2,0.1,0.3,0.2,0.4s0.2,0.2,0.4,0.2
			C22.2,88,22.4,87.9,22.6,87.7z"/>
		<path fill="#FFFFFF" d="M27.4,82.3h0.8v6.1h-1.7c-0.6,0-1.1-0.2-1.4-0.6c-0.4-0.4-0.5-0.9-0.5-1.5c0-0.6,0.2-1.1,0.6-1.5
			c0.4-0.4,0.9-0.6,1.4-0.6c0.3,0,0.6,0.1,0.9,0.2V82.3z M27.4,87.8v-2.6c-0.2-0.1-0.5-0.2-0.8-0.2c-0.4,0-0.7,0.1-1,0.4
			s-0.4,0.6-0.4,1.1c0,0.4,0.1,0.7,0.3,1c0.1,0.1,0.3,0.2,0.4,0.3s0.4,0.1,0.7,0.1H27.4z"/>
		<path fill="#FFFFFF" d="M29.7,82.7c0.1,0,0.2,0,0.3,0.1s0.1,0.2,0.1,0.3c0,0.1,0,0.2-0.1,0.3s-0.2,0.1-0.3,0.1
			c-0.1,0-0.2,0-0.3-0.1c-0.1-0.1-0.1-0.2-0.1-0.3c0-0.1,0-0.2,0.1-0.3C29.5,82.8,29.6,82.7,29.7,82.7z M29.3,84.4h0.8v4h-0.8V84.4z
			"/>
		<path fill="#FFFFFF" d="M33.7,82.3h0.8v2.4c0.3-0.3,0.7-0.4,1.1-0.4c0.5,0,0.9,0.2,1.3,0.6s0.5,0.9,0.5,1.5c0,0.7-0.2,1.2-0.6,1.6
			c-0.4,0.4-0.9,0.6-1.6,0.6c-0.3,0-0.5,0-0.8-0.1c-0.3-0.1-0.5-0.1-0.7-0.2V82.3z M34.5,85.5v2.2c0.3,0.1,0.6,0.1,0.8,0.1
			c0.4,0,0.6-0.1,0.9-0.4c0.2-0.3,0.3-0.6,0.3-1c0-0.4-0.1-0.7-0.3-1s-0.5-0.4-0.8-0.4C35.2,85.1,34.8,85.2,34.5,85.5z"/>
		<path fill="#FFFFFF" d="M41.7,86.5h-2.8c0,0.4,0.1,0.7,0.4,0.9s0.5,0.3,0.9,0.3c0.5,0,1-0.2,1.5-0.5v0.8c-0.2,0.2-0.5,0.3-0.7,0.4
			c-0.2,0.1-0.5,0.1-0.9,0.1c-0.4,0-0.8-0.1-1.1-0.3c-0.3-0.2-0.5-0.4-0.7-0.7c-0.2-0.3-0.2-0.7-0.2-1.1c0-0.6,0.2-1.1,0.5-1.5
			c0.3-0.4,0.8-0.6,1.4-0.6c0.5,0,1,0.2,1.3,0.6s0.5,0.9,0.5,1.5V86.5z M38.9,86h2c0-0.3-0.1-0.6-0.3-0.7S40.2,85,40,85
			s-0.5,0.1-0.7,0.3C39.1,85.5,39,85.7,38.9,86z"/>
		<path fill="#FFFFFF" d="M45.1,86v1.7c0,0.1,0,0.2,0.1,0.2c0.1,0,0.2-0.1,0.5-0.2v0.5c-0.2,0.1-0.3,0.2-0.4,0.2
			c-0.1,0-0.2,0.1-0.3,0.1c-0.3,0-0.5-0.1-0.6-0.4c-0.3,0.3-0.7,0.4-1.1,0.4c-0.3,0-0.5-0.1-0.7-0.3c-0.2-0.2-0.3-0.4-0.3-0.7
			c0-0.3,0.1-0.5,0.3-0.7c0.2-0.2,0.4-0.4,0.8-0.5l1-0.4v-0.2c0-0.5-0.2-0.7-0.7-0.7c-0.4,0-0.9,0.2-1.3,0.7v-0.9
			c0.3-0.4,0.8-0.5,1.3-0.5c0.4,0,0.8,0.1,1.1,0.3c0.1,0.1,0.2,0.2,0.2,0.3c0.1,0.1,0.1,0.2,0.1,0.4C45.1,85.5,45.1,85.7,45.1,86z
			 M44.3,87.7v-1.2l-0.5,0.2c-0.3,0.1-0.5,0.2-0.6,0.3c-0.1,0.1-0.2,0.2-0.2,0.4c0,0.2,0.1,0.3,0.2,0.4s0.2,0.2,0.4,0.2
			C43.9,88,44.1,87.9,44.3,87.7z"/>
		<path fill="#FFFFFF" d="M48.3,84.4h1.5v6.1h-0.8v-2.1c-0.3,0.1-0.6,0.1-0.9,0.1c-0.6,0-1.1-0.2-1.4-0.6c-0.4-0.4-0.6-0.9-0.6-1.5
			c0-0.6,0.2-1.1,0.6-1.5S47.7,84.4,48.3,84.4z M49.1,87.7v-2.5h-0.5c-0.3,0-0.6,0-0.7,0c-0.1,0-0.2,0.1-0.3,0.1
			c-0.1,0.1-0.2,0.1-0.2,0.2c-0.2,0.2-0.3,0.6-0.3,0.9c0,0.4,0.1,0.8,0.4,1s0.6,0.4,1,0.4c0.1,0,0.2,0,0.2,0c0.1,0,0.2,0,0.4-0.1
			L49.1,87.7L49.1,87.7z"/>
		<path fill="#FFFFFF" d="M53.5,88.5v-0.5c-0.2,0.2-0.4,0.3-0.6,0.4c-0.2,0.1-0.4,0.2-0.7,0.2c-0.3,0-0.5-0.1-0.7-0.2
			c-0.2-0.1-0.4-0.3-0.5-0.5c-0.1-0.2-0.2-0.6-0.2-1.1v-2.3h0.8v2.3c0,0.4,0.1,0.7,0.2,0.9c0.1,0.2,0.3,0.3,0.6,0.3
			c0.4,0,0.7-0.2,1-0.6v-2.9h0.8v4H53.5z"/>
		<path fill="#FFFFFF" d="M58,86v1.7c0,0.1,0,0.2,0.1,0.2c0.1,0,0.2-0.1,0.5-0.2v0.5c-0.2,0.1-0.3,0.2-0.4,0.2
			c-0.1,0-0.2,0.1-0.3,0.1c-0.3,0-0.5-0.1-0.6-0.4c-0.3,0.3-0.7,0.4-1.1,0.4c-0.3,0-0.5-0.1-0.7-0.3c-0.2-0.2-0.3-0.4-0.3-0.7
			c0-0.3,0.1-0.5,0.3-0.7c0.2-0.2,0.4-0.4,0.8-0.5l1-0.4v-0.2c0-0.5-0.2-0.7-0.7-0.7c-0.4,0-0.9,0.2-1.3,0.7v-0.9
			c0.3-0.4,0.8-0.5,1.3-0.5c0.4,0,0.8,0.1,1.1,0.3c0.1,0.1,0.2,0.2,0.2,0.3c0.1,0.1,0.1,0.2,0.1,0.4C58,85.5,58,85.7,58,86z
			 M57.2,87.7v-1.2l-0.5,0.2c-0.3,0.1-0.5,0.2-0.6,0.3c-0.1,0.1-0.2,0.2-0.2,0.4c0,0.2,0.1,0.3,0.2,0.4s0.2,0.2,0.4,0.2
			C56.7,88,57,87.9,57.2,87.7z"/>
		<path fill="#FFFFFF" d="M62.7,86.5h-2.8c0,0.4,0.1,0.7,0.4,0.9s0.5,0.3,0.9,0.3c0.5,0,1-0.2,1.5-0.5v0.8c-0.2,0.2-0.5,0.3-0.7,0.4
			c-0.2,0.1-0.5,0.1-0.9,0.1c-0.4,0-0.8-0.1-1.1-0.3c-0.3-0.2-0.5-0.4-0.7-0.7c-0.2-0.3-0.2-0.7-0.2-1.1c0-0.6,0.2-1.1,0.5-1.5
			c0.3-0.4,0.8-0.6,1.4-0.6c0.5,0,1,0.2,1.3,0.6s0.5,0.9,0.5,1.5V86.5z M59.9,86h2c0-0.3-0.1-0.6-0.3-0.7S61.2,85,61,85
			s-0.5,0.1-0.7,0.3C60.1,85.5,59.9,85.7,59.9,86z"/>
		<path fill="#FFFFFF" d="M66.9,84.4v0.5c0.4-0.4,0.8-0.6,1.2-0.6c0.3,0,0.5,0.1,0.7,0.2c0.2,0.1,0.4,0.3,0.5,0.5
			c0.1,0.2,0.2,0.6,0.2,1.1v2.3h-0.8v-2.3c0-0.4-0.1-0.7-0.2-0.9c-0.1-0.2-0.3-0.3-0.6-0.3c-0.4,0-0.7,0.2-1,0.6v2.9h-0.8v-4H66.9z"
			/>
		<path fill="#FFFFFF" d="M74,86.5h-2.8c0,0.4,0.1,0.7,0.4,0.9s0.5,0.3,0.9,0.3c0.5,0,1-0.2,1.5-0.5v0.8c-0.2,0.2-0.5,0.3-0.7,0.4
			c-0.2,0.1-0.5,0.1-0.9,0.1c-0.4,0-0.8-0.1-1.1-0.3c-0.3-0.2-0.5-0.4-0.7-0.7c-0.2-0.3-0.2-0.7-0.2-1.1c0-0.6,0.2-1.1,0.5-1.5
			c0.3-0.4,0.8-0.6,1.4-0.6c0.5,0,1,0.2,1.3,0.6s0.5,0.9,0.5,1.5V86.5z M71.2,86h2c0-0.3-0.1-0.6-0.3-0.7S72.6,85,72.3,85
			s-0.5,0.1-0.7,0.3C71.4,85.5,71.3,85.7,71.2,86z"/>
		<path fill="#FFFFFF" d="M78.2,85.5v2.9h-0.8v-2.2c0-0.4-0.1-0.8-0.2-0.9c-0.1-0.2-0.3-0.3-0.6-0.3c-0.2,0-0.3,0-0.5,0.1
			c-0.1,0.1-0.3,0.2-0.5,0.4v2.9h-0.8v-4h0.8v0.5c0.4-0.4,0.8-0.6,1.2-0.6c0.5,0,0.9,0.2,1.2,0.7c0.4-0.5,0.9-0.7,1.3-0.7
			c0.4,0,0.7,0.1,1,0.4c0.3,0.3,0.4,0.7,0.4,1.3v2.4h-0.8v-2.4c0-0.3-0.1-0.6-0.2-0.8S79.4,85,79.1,85C78.8,85,78.5,85.2,78.2,85.5z
			"/>
		<path fill="#FFFFFF" d="M84.3,82.3h0.8v6.1h-0.8V82.3z"/>
		<path fill="#FFFFFF" d="M86.7,82.7c0.1,0,0.2,0,0.3,0.1s0.1,0.2,0.1,0.3c0,0.1,0,0.2-0.1,0.3s-0.2,0.1-0.3,0.1
			c-0.1,0-0.2,0-0.3-0.1c-0.1-0.1-0.1-0.2-0.1-0.3c0-0.1,0-0.2,0.1-0.3C86.5,82.8,86.6,82.7,86.7,82.7z M86.3,84.4h0.8v4h-0.8V84.4z
			"/>
		<path fill="#FFFFFF" d="M90.2,84.4h1.5v6.1h-0.8v-2.1c-0.3,0.1-0.6,0.1-0.9,0.1c-0.6,0-1.1-0.2-1.4-0.6c-0.4-0.4-0.6-0.9-0.6-1.5
			c0-0.6,0.2-1.1,0.6-1.5S89.5,84.4,90.2,84.4z M90.9,87.7v-2.5h-0.5c-0.3,0-0.6,0-0.7,0c-0.1,0-0.2,0.1-0.3,0.1
			c-0.1,0.1-0.2,0.1-0.2,0.2c-0.2,0.2-0.3,0.6-0.3,0.9c0,0.4,0.1,0.8,0.4,1s0.6,0.4,1,0.4c0.1,0,0.2,0,0.2,0c0.1,0,0.2,0,0.4-0.1
			L90.9,87.7L90.9,87.7z"/>
		<path fill="#FFFFFF" d="M95.4,88.5v-0.5c-0.2,0.2-0.4,0.3-0.6,0.4c-0.2,0.1-0.4,0.2-0.7,0.2c-0.3,0-0.5-0.1-0.7-0.2
			c-0.2-0.1-0.4-0.3-0.5-0.5c-0.1-0.2-0.2-0.6-0.2-1.1v-2.3h0.8v2.3c0,0.4,0.1,0.7,0.2,0.9c0.1,0.2,0.3,0.3,0.6,0.3
			c0.4,0,0.7-0.2,1-0.6v-2.9h0.8v4H95.4z"/>
		<path fill="#FFFFFF" d="M97.7,82.7c0.1,0,0.2,0,0.3,0.1s0.1,0.2,0.1,0.3c0,0.1,0,0.2-0.1,0.3s-0.2,0.1-0.3,0.1
			c-0.1,0-0.2,0-0.3-0.1c-0.1-0.1-0.1-0.2-0.1-0.3c0-0.1,0-0.2,0.1-0.3C97.5,82.8,97.6,82.7,97.7,82.7z M97.3,84.4h0.8v4h-0.8V84.4z
			"/>
		<path fill="#FFFFFF" d="M99.2,82.3h0.8v2.4c0.3-0.3,0.7-0.4,1.1-0.4c0.5,0,0.9,0.2,1.3,0.6c0.3,0.4,0.5,0.9,0.5,1.5
			c0,0.7-0.2,1.2-0.6,1.6c-0.4,0.4-0.9,0.6-1.6,0.6c-0.3,0-0.5,0-0.8-0.1c-0.3-0.1-0.5-0.1-0.7-0.2V82.3z M100,85.5v2.2
			c0.3,0.1,0.6,0.1,0.8,0.1c0.4,0,0.6-0.1,0.9-0.4c0.2-0.3,0.3-0.6,0.3-1c0-0.4-0.1-0.7-0.3-1s-0.5-0.4-0.8-0.4
			C100.6,85.1,100.3,85.2,100,85.5z"/>
		<path fill="#FFFFFF" d="M106.3,88.5v-0.5c-0.2,0.2-0.4,0.3-0.6,0.4c-0.2,0.1-0.4,0.2-0.7,0.2c-0.3,0-0.5-0.1-0.7-0.2
			c-0.2-0.1-0.4-0.3-0.5-0.5c-0.1-0.2-0.2-0.6-0.2-1.1v-2.3h0.8v2.3c0,0.4,0.1,0.7,0.2,0.9c0.1,0.2,0.3,0.3,0.6,0.3
			c0.4,0,0.7-0.2,1-0.6v-2.9h0.8v4H106.3z"/>
		<path fill="#FFFFFF" d="M108.1,88.2v-0.9c0.2,0.2,0.5,0.3,0.7,0.4c0.2,0.1,0.4,0.1,0.6,0.1c0.2,0,0.3,0,0.4-0.1
			c0.1-0.1,0.2-0.2,0.2-0.3c0-0.1,0-0.2-0.1-0.3c-0.1-0.1-0.2-0.2-0.5-0.3c-0.5-0.3-0.9-0.5-1-0.7c-0.2-0.2-0.2-0.4-0.2-0.7
			c0-0.3,0.1-0.6,0.4-0.8c0.2-0.2,0.6-0.3,0.9-0.3c0.4,0,0.8,0.1,1.2,0.3v0.8c-0.5-0.3-0.9-0.4-1.2-0.4c-0.2,0-0.3,0-0.4,0.1
			c-0.1,0.1-0.1,0.2-0.1,0.3c0,0.1,0,0.2,0.1,0.3s0.2,0.2,0.5,0.3l0.3,0.2c0.7,0.4,1,0.8,1,1.3c0,0.3-0.1,0.6-0.4,0.8
			c-0.3,0.2-0.6,0.3-1,0.3c-0.2,0-0.5,0-0.6-0.1C108.6,88.4,108.3,88.3,108.1,88.2z"/>
		<path fill="#FFFFFF" d="M116.7,84.4h0.9l-1.8,4.1h-0.3l-1.8-4.1h0.9l1.1,2.5L116.7,84.4z"/>
		<path fill="#FFFFFF" d="M121.4,86.5h-2.8c0,0.4,0.2,0.7,0.4,0.9c0.2,0.2,0.5,0.3,0.9,0.3c0.5,0,1-0.2,1.5-0.5v0.8
			c-0.2,0.2-0.5,0.3-0.7,0.4c-0.2,0.1-0.5,0.1-0.8,0.1c-0.4,0-0.8-0.1-1.1-0.3c-0.3-0.2-0.5-0.4-0.7-0.7c-0.2-0.3-0.2-0.7-0.2-1.1
			c0-0.6,0.2-1.1,0.5-1.5c0.3-0.4,0.8-0.6,1.4-0.6c0.5,0,1,0.2,1.3,0.6c0.3,0.4,0.5,0.9,0.5,1.5V86.5z M118.6,86h2
			c0-0.3-0.1-0.6-0.3-0.7s-0.4-0.3-0.7-0.3s-0.5,0.1-0.7,0.3C118.8,85.5,118.6,85.7,118.6,86z"/>
		<path fill="#FFFFFF" d="M123.1,84.4v0.5c0.4-0.4,0.8-0.6,1.2-0.6c0.3,0,0.5,0.1,0.7,0.2c0.2,0.1,0.4,0.3,0.5,0.5
			c0.1,0.2,0.2,0.6,0.2,1.1v2.3h-0.8v-2.3c0-0.4-0.1-0.7-0.2-0.9c-0.1-0.2-0.3-0.3-0.6-0.3c-0.4,0-0.7,0.2-1,0.6v2.9h-0.8v-4H123.1z
			"/>
		<path fill="#FFFFFF" d="M129.5,82.3h0.8v6.1h-1.7c-0.6,0-1.1-0.2-1.4-0.6c-0.4-0.4-0.5-0.9-0.5-1.5c0-0.6,0.2-1.1,0.6-1.5
			c0.4-0.4,0.9-0.6,1.4-0.6c0.3,0,0.6,0.1,0.9,0.2V82.3z M129.5,87.8v-2.6c-0.2-0.1-0.5-0.2-0.8-0.2c-0.4,0-0.7,0.1-1,0.4
			s-0.4,0.6-0.4,1.1c0,0.4,0.1,0.7,0.3,1c0.1,0.1,0.3,0.2,0.4,0.3c0.1,0,0.4,0.1,0.7,0.1H129.5z"/>
		<path fill="#FFFFFF" d="M131.8,82.7c0.1,0,0.2,0,0.3,0.1s0.1,0.2,0.1,0.3c0,0.1,0,0.2-0.1,0.3s-0.2,0.1-0.3,0.1
			c-0.1,0-0.2,0-0.3-0.1c-0.1-0.1-0.1-0.2-0.1-0.3c0-0.1,0-0.2,0.1-0.3C131.5,82.8,131.7,82.7,131.8,82.7z M131.4,84.4h0.8v4h-0.8
			V84.4z"/>
		<path fill="#FFFFFF" d="M137.8,84.4c0.6,0,1.1,0.2,1.5,0.6c0.4,0.4,0.6,0.9,0.6,1.5c0,0.6-0.2,1.1-0.6,1.5
			c-0.4,0.4-0.9,0.6-1.6,0.6c-0.6,0-1.1-0.2-1.5-0.6c-0.4-0.4-0.6-0.9-0.6-1.5c0-0.6,0.2-1.1,0.6-1.5
			C136.6,84.6,137.2,84.4,137.8,84.4z M137.7,85.1c-0.4,0-0.7,0.1-0.9,0.4s-0.4,0.6-0.4,1c0,0.4,0.1,0.7,0.4,0.9
			c0.3,0.2,0.6,0.4,1,0.4c0.4,0,0.7-0.1,1-0.4c0.3-0.2,0.4-0.6,0.4-1c0-0.4-0.1-0.7-0.4-1C138.5,85.3,138.1,85.1,137.7,85.1z"/>
		<path fill="#FFFFFF" d="M143.5,82.3h0.8v6.1h-1.7c-0.6,0-1.1-0.2-1.4-0.6c-0.4-0.4-0.5-0.9-0.5-1.5c0-0.6,0.2-1.1,0.6-1.5
			c0.4-0.4,0.9-0.6,1.4-0.6c0.3,0,0.6,0.1,0.9,0.2V82.3z M143.5,87.8v-2.6c-0.2-0.1-0.5-0.2-0.8-0.2c-0.4,0-0.7,0.1-1,0.4
			s-0.4,0.6-0.4,1.1c0,0.4,0.1,0.7,0.3,1c0.1,0.1,0.3,0.2,0.4,0.3c0.1,0,0.4,0.1,0.7,0.1H143.5z"/>
		<path fill="#FFFFFF" d="M151.3,86.5h-2.8c0,0.4,0.1,0.7,0.4,0.9c0.2,0.2,0.5,0.3,0.9,0.3c0.5,0,1-0.2,1.5-0.5v0.8
			c-0.2,0.2-0.5,0.3-0.7,0.4s-0.5,0.1-0.9,0.1c-0.4,0-0.8-0.1-1.1-0.3c-0.3-0.2-0.5-0.4-0.7-0.7c-0.2-0.3-0.2-0.7-0.2-1.1
			c0-0.6,0.2-1.1,0.5-1.5c0.3-0.4,0.8-0.6,1.4-0.6c0.5,0,1,0.2,1.3,0.6c0.3,0.4,0.5,0.9,0.5,1.5V86.5z M148.5,86h2
			c0-0.3-0.1-0.6-0.3-0.7s-0.4-0.3-0.7-0.3s-0.5,0.1-0.7,0.3S148.6,85.7,148.5,86z"/>
		<path fill="#FFFFFF" d="M151.6,85.1l1.5-1.5v0.8h1.3v0.7h-1.3v2c0,0.5,0.2,0.7,0.6,0.7c0.3,0,0.6-0.1,0.9-0.3v0.7
			c-0.3,0.2-0.6,0.3-1,0.3c-0.4,0-0.7-0.1-0.9-0.3c-0.1-0.1-0.1-0.1-0.2-0.2c0-0.1-0.1-0.2-0.1-0.3c0-0.1-0.1-0.4-0.1-0.7v-1.8
			L151.6,85.1L151.6,85.1z"/>
	</g>
	<g clip-path="url(#SVGID_4_)">
		<path fill="#FFFFFF" d="M3.1,96.8v1.7c0,0.1,0,0.2,0.1,0.2c0.1,0,0.2-0.1,0.5-0.2V99c-0.2,0.1-0.3,0.2-0.4,0.2
			c-0.1,0-0.2,0.1-0.3,0.1c-0.3,0-0.5-0.1-0.6-0.4c-0.3,0.3-0.7,0.4-1.1,0.4c-0.3,0-0.5-0.1-0.7-0.3c-0.2-0.2-0.3-0.4-0.3-0.7
			c0-0.3,0.1-0.5,0.3-0.7c0.2-0.2,0.4-0.4,0.8-0.5l1-0.4v-0.2c0-0.5-0.2-0.7-0.7-0.7c-0.4,0-0.9,0.2-1.3,0.7v-0.9
			c0.3-0.4,0.8-0.5,1.3-0.5c0.4,0,0.8,0.1,1.1,0.3c0.1,0.1,0.2,0.2,0.2,0.3C3,95.9,3.1,96,3.1,96.1C3.1,96.3,3.1,96.5,3.1,96.8z
			 M2.3,98.5v-1.2l-0.5,0.2c-0.3,0.1-0.5,0.2-0.6,0.3C1.1,97.9,1,98,1,98.2c0,0.2,0.1,0.3,0.2,0.4s0.2,0.2,0.4,0.2
			C1.9,98.8,2.1,98.7,2.3,98.5z"/>
		<path fill="#FFFFFF" d="M4.4,93.1h0.8v6.1H4.4V93.1z"/>
		<path fill="#FFFFFF" d="M6.8,93.5c0.1,0,0.2,0,0.3,0.1s0.1,0.2,0.1,0.3c0,0.1,0,0.2-0.1,0.3s-0.2,0.1-0.3,0.1
			c-0.1,0-0.2,0-0.3-0.1c-0.1-0.1-0.1-0.2-0.1-0.3c0-0.1,0-0.2,0.1-0.3C6.6,93.6,6.7,93.5,6.8,93.5z M6.4,95.2h0.8v4H6.4V95.2z"/>
		<path fill="#FFFFFF" d="M10.9,96.8v1.7c0,0.1,0,0.2,0.1,0.2c0.1,0,0.2-0.1,0.5-0.2V99c-0.2,0.1-0.3,0.2-0.4,0.2
			c-0.1,0-0.2,0.1-0.3,0.1c-0.3,0-0.5-0.1-0.6-0.4c-0.3,0.3-0.7,0.4-1.1,0.4c-0.3,0-0.5-0.1-0.7-0.3C8.1,98.9,8,98.6,8,98.3
			c0-0.3,0.1-0.5,0.3-0.7c0.2-0.2,0.4-0.4,0.8-0.5l1-0.4v-0.2c0-0.5-0.2-0.7-0.7-0.7c-0.4,0-0.9,0.2-1.3,0.7v-0.9
			c0.3-0.4,0.8-0.5,1.3-0.5c0.4,0,0.8,0.1,1.1,0.3c0.1,0.1,0.2,0.2,0.2,0.3c0.1,0.1,0.1,0.2,0.1,0.4C10.9,96.3,10.9,96.5,10.9,96.8z
			 M10.1,98.5v-1.2l-0.5,0.2c-0.3,0.1-0.5,0.2-0.6,0.3c-0.1,0.1-0.2,0.2-0.2,0.4c0,0.2,0.1,0.3,0.2,0.4s0.2,0.2,0.4,0.2
			C9.7,98.8,9.9,98.7,10.1,98.5z"/>
		<path fill="#FFFFFF" d="M15.5,96.3v2.9h-0.8V97c0-0.4-0.1-0.8-0.2-0.9c-0.1-0.2-0.3-0.3-0.6-0.3c-0.2,0-0.3,0-0.5,0.1
			c-0.1,0.1-0.3,0.2-0.5,0.4v2.9h-0.8v-4H13v0.5c0.4-0.4,0.8-0.6,1.2-0.6c0.5,0,0.9,0.2,1.2,0.7c0.4-0.5,0.9-0.7,1.3-0.7
			c0.4,0,0.7,0.1,1,0.4c0.3,0.3,0.4,0.7,0.4,1.3v2.4h-0.8v-2.4c0-0.3-0.1-0.6-0.2-0.8s-0.3-0.3-0.6-0.3C16.1,95.8,15.8,96,15.5,96.3
			z"/>
		<path fill="#FFFFFF" d="M22,93.5c0.1,0,0.2,0,0.3,0.1s0.1,0.2,0.1,0.3c0,0.1,0,0.2-0.1,0.3s-0.2,0.1-0.3,0.1c-0.1,0-0.2,0-0.3-0.1
			c-0.1-0.1-0.1-0.2-0.1-0.3c0-0.1,0-0.2,0.1-0.3C21.8,93.6,21.9,93.5,22,93.5z M21.7,95.2h0.8v4h-0.8V95.2z"/>
		<path fill="#FFFFFF" d="M23.6,93.1h0.8v6.1h-0.8V93.1z"/>
		<path fill="#FFFFFF" d="M26,93.5c0.1,0,0.2,0,0.3,0.1s0.1,0.2,0.1,0.3c0,0.1,0,0.2-0.1,0.3s-0.2,0.1-0.3,0.1c-0.1,0-0.2,0-0.3-0.1
			c-0.1-0.1-0.1-0.2-0.1-0.3c0-0.1,0-0.2,0.1-0.3C25.8,93.6,25.9,93.5,26,93.5z M25.6,95.2h0.8v4h-0.8V95.2z"/>
		<path fill="#FFFFFF" d="M27,95.9l1.5-1.5v0.8h1.3v0.7h-1.3v2c0,0.5,0.2,0.7,0.6,0.7c0.3,0,0.6-0.1,0.9-0.3v0.7
			c-0.3,0.2-0.6,0.3-1,0.3c-0.4,0-0.7-0.1-0.9-0.3c-0.1-0.1-0.1-0.1-0.2-0.2c0-0.1-0.1-0.2-0.1-0.3c0-0.1-0.1-0.4-0.1-0.7v-1.8
			L27,95.9L27,95.9z"/>
		<path fill="#FFFFFF" d="M33.9,95.2v0.9l0-0.1c0.4-0.6,0.8-0.9,1.2-0.9c0.3,0,0.6,0.2,0.9,0.5l-0.4,0.7c-0.3-0.3-0.5-0.4-0.8-0.4
			c-0.3,0-0.5,0.1-0.7,0.4c-0.2,0.2-0.3,0.5-0.3,0.9v2.1h-0.8v-4H33.9z"/>
		<path fill="#FFFFFF" d="M39.9,97.3H37c0,0.4,0.1,0.7,0.4,0.9s0.5,0.3,0.9,0.3c0.5,0,1-0.2,1.5-0.5v0.8c-0.2,0.2-0.5,0.3-0.7,0.4
			c-0.2,0.1-0.5,0.1-0.9,0.1c-0.4,0-0.8-0.1-1.1-0.3c-0.3-0.2-0.5-0.4-0.7-0.7c-0.2-0.3-0.2-0.7-0.2-1.1c0-0.6,0.2-1.1,0.5-1.5
			c0.3-0.4,0.8-0.6,1.4-0.6c0.5,0,1,0.2,1.3,0.6s0.5,0.9,0.5,1.5V97.3z M37.1,96.8h2c0-0.3-0.1-0.6-0.3-0.7s-0.4-0.3-0.7-0.3
			s-0.5,0.1-0.7,0.3C37.2,96.3,37.1,96.5,37.1,96.8z"/>
		<path fill="#FFFFFF" d="M43.1,99v-0.9c0.2,0.2,0.5,0.3,0.7,0.4c0.2,0.1,0.4,0.1,0.6,0.1c0.2,0,0.3,0,0.4-0.1s0.2-0.2,0.2-0.3
			c0-0.1,0-0.2-0.1-0.3c-0.1-0.1-0.2-0.2-0.5-0.3c-0.5-0.3-0.9-0.5-1-0.7c-0.2-0.2-0.2-0.4-0.2-0.7c0-0.3,0.1-0.6,0.4-0.8
			c0.2-0.2,0.6-0.3,0.9-0.3c0.4,0,0.8,0.1,1.2,0.3v0.8c-0.5-0.3-0.9-0.4-1.2-0.4c-0.2,0-0.3,0-0.4,0.1c-0.1,0.1-0.1,0.2-0.1,0.3
			c0,0.1,0,0.2,0.1,0.3s0.2,0.2,0.5,0.3l0.3,0.2c0.7,0.4,1,0.8,1,1.3c0,0.3-0.1,0.6-0.4,0.8c-0.3,0.2-0.6,0.3-1,0.3
			c-0.2,0-0.5,0-0.6-0.1C43.6,99.2,43.3,99.1,43.1,99z"/>
		<path fill="#FFFFFF" d="M47.1,93.5c0.1,0,0.2,0,0.3,0.1s0.1,0.2,0.1,0.3c0,0.1,0,0.2-0.1,0.3s-0.2,0.1-0.3,0.1
			c-0.1,0-0.2,0-0.3-0.1c-0.1-0.1-0.1-0.2-0.1-0.3c0-0.1,0-0.2,0.1-0.3C46.9,93.6,47,93.5,47.1,93.5z M46.7,95.2h0.8v4h-0.8V95.2z"
			/>
		<path fill="#FFFFFF" d="M48.1,95.9l1.5-1.5v0.8h1.3v0.7h-1.3v2c0,0.5,0.2,0.7,0.6,0.7c0.3,0,0.6-0.1,0.9-0.3v0.7
			c-0.3,0.2-0.6,0.3-1,0.3c-0.4,0-0.7-0.1-0.9-0.3c-0.1-0.1-0.1-0.1-0.2-0.2c0-0.1-0.1-0.2-0.1-0.3c0-0.1-0.1-0.4-0.1-0.7v-1.8
			L48.1,95.9L48.1,95.9z"/>
		<path fill="#FFFFFF" d="M52.1,93.5c0.1,0,0.2,0,0.3,0.1s0.1,0.2,0.1,0.3c0,0.1,0,0.2-0.1,0.3s-0.2,0.1-0.3,0.1
			c-0.1,0-0.2,0-0.3-0.1c-0.1-0.1-0.1-0.2-0.1-0.3c0-0.1,0-0.2,0.1-0.3C51.9,93.6,52,93.5,52.1,93.5z M51.7,95.2h0.8v4h-0.8V95.2z"
			/>
		<path fill="#FFFFFF" d="M54.1,93.5c0.1,0,0.2,0,0.3,0.1s0.1,0.2,0.1,0.3c0,0.1,0,0.2-0.1,0.3s-0.2,0.1-0.3,0.1
			c-0.1,0-0.2,0-0.3-0.1c-0.1-0.1-0.1-0.2-0.1-0.3c0-0.1,0-0.2,0.1-0.3C53.8,93.6,54,93.5,54.1,93.5z M53.7,95.2h0.8v4h-0.8V95.2z"
			/>
		<path fill="#FFFFFF" d="M55.4,99v-0.9c0.2,0.2,0.5,0.3,0.7,0.4c0.2,0.1,0.4,0.1,0.6,0.1c0.2,0,0.3,0,0.4-0.1s0.2-0.2,0.2-0.3
			c0-0.1,0-0.2-0.1-0.3c-0.1-0.1-0.2-0.2-0.5-0.3c-0.5-0.3-0.9-0.5-1-0.7c-0.2-0.2-0.2-0.4-0.2-0.7c0-0.3,0.1-0.6,0.4-0.8
			c0.2-0.2,0.6-0.3,0.9-0.3c0.4,0,0.8,0.1,1.2,0.3v0.8c-0.5-0.3-0.9-0.4-1.2-0.4c-0.2,0-0.3,0-0.4,0.1c-0.1,0.1-0.1,0.2-0.1,0.3
			c0,0.1,0,0.2,0.1,0.3s0.2,0.2,0.5,0.3l0.3,0.2c0.7,0.4,1,0.8,1,1.3c0,0.3-0.1,0.6-0.4,0.8c-0.3,0.2-0.6,0.3-1,0.3
			c-0.2,0-0.5,0-0.6-0.1C56,99.2,55.7,99.1,55.4,99z"/>
		<path fill="#FFFFFF" d="M62.1,98.3v0.8c-0.4,0.2-0.8,0.2-1.2,0.2c-0.6,0-1.1-0.2-1.5-0.6s-0.6-0.9-0.6-1.5c0-0.6,0.2-1.1,0.5-1.5
			s0.8-0.6,1.4-0.6c0.2,0,0.4,0,0.6,0.1c0.2,0,0.4,0.1,0.6,0.2v0.9c-0.4-0.3-0.8-0.4-1.1-0.4c-0.4,0-0.7,0.1-0.9,0.4
			c-0.2,0.3-0.3,0.6-0.3,1c0,0.4,0.1,0.7,0.4,1c0.2,0.2,0.6,0.4,1,0.4C61.4,98.6,61.7,98.5,62.1,98.3z"/>
		<path fill="#FFFFFF" d="M66,93.5c0.1,0,0.2,0,0.3,0.1s0.1,0.2,0.1,0.3c0,0.1,0,0.2-0.1,0.3s-0.2,0.1-0.3,0.1c-0.1,0-0.2,0-0.3-0.1
			c-0.1-0.1-0.1-0.2-0.1-0.3c0-0.1,0-0.2,0.1-0.3C65.7,93.6,65.8,93.5,66,93.5z M65.6,95.2h0.8v4h-0.8V95.2z"/>
		<path fill="#FFFFFF" d="M71,97.3h-2.8c0,0.4,0.1,0.7,0.4,0.9s0.5,0.3,0.9,0.3c0.5,0,1-0.2,1.5-0.5v0.8c-0.2,0.2-0.5,0.3-0.7,0.4
			c-0.2,0.1-0.5,0.1-0.9,0.1c-0.4,0-0.8-0.1-1.1-0.3c-0.3-0.2-0.5-0.4-0.7-0.7c-0.2-0.3-0.2-0.7-0.2-1.1c0-0.6,0.2-1.1,0.5-1.5
			c0.3-0.4,0.8-0.6,1.4-0.6c0.5,0,1,0.2,1.3,0.6s0.5,0.9,0.5,1.5V97.3z M68.1,96.8h2c0-0.3-0.1-0.6-0.3-0.7s-0.4-0.3-0.7-0.3
			s-0.5,0.1-0.7,0.3C68.3,96.3,68.2,96.5,68.1,96.8z"/>
		<path fill="#FFFFFF" d="M72.6,95.2v0.5c0.4-0.4,0.8-0.6,1.2-0.6c0.3,0,0.5,0.1,0.7,0.2c0.2,0.1,0.4,0.3,0.5,0.5
			c0.1,0.2,0.2,0.6,0.2,1.1v2.3h-0.8V97c0-0.4-0.1-0.7-0.2-0.9c-0.1-0.2-0.3-0.3-0.6-0.3c-0.4,0-0.7,0.2-1,0.6v2.9h-0.8v-4H72.6z"/>
		<path fill="#FFFFFF" d="M79,93.1h0.8v6.1h-1.7c-0.6,0-1.1-0.2-1.4-0.6c-0.4-0.4-0.5-0.9-0.5-1.5c0-0.6,0.2-1.1,0.6-1.5
			c0.4-0.4,0.9-0.6,1.4-0.6c0.3,0,0.6,0.1,0.9,0.2V93.1z M79,98.6V96c-0.2-0.1-0.5-0.2-0.8-0.2c-0.4,0-0.7,0.1-1,0.4
			S77,96.8,77,97.3c0,0.4,0.1,0.7,0.3,1c0.1,0.1,0.3,0.2,0.4,0.3s0.4,0.1,0.7,0.1H79z"/>
		<path fill="#FFFFFF" d="M81.3,93.5c0.1,0,0.2,0,0.3,0.1s0.1,0.2,0.1,0.3c0,0.1,0,0.2-0.1,0.3s-0.2,0.1-0.3,0.1
			c-0.1,0-0.2,0-0.3-0.1c-0.1-0.1-0.1-0.2-0.1-0.3c0-0.1,0-0.2,0.1-0.3C81.1,93.6,81.2,93.5,81.3,93.5z M80.9,95.2h0.8v4h-0.8V95.2z
			"/>
		<path fill="#FFFFFF" d="M82.7,99v-0.9c0.2,0.2,0.5,0.3,0.7,0.4c0.2,0.1,0.4,0.1,0.6,0.1c0.2,0,0.3,0,0.4-0.1s0.2-0.2,0.2-0.3
			c0-0.1,0-0.2-0.1-0.3c-0.1-0.1-0.2-0.2-0.5-0.3c-0.5-0.3-0.9-0.5-1-0.7c-0.2-0.2-0.2-0.4-0.2-0.7c0-0.3,0.1-0.6,0.4-0.8
			c0.2-0.2,0.6-0.3,0.9-0.3c0.4,0,0.8,0.1,1.2,0.3v0.8c-0.5-0.3-0.9-0.4-1.2-0.4c-0.2,0-0.3,0-0.4,0.1c-0.1,0.1-0.1,0.2-0.1,0.3
			c0,0.1,0,0.2,0.1,0.3s0.2,0.2,0.5,0.3l0.3,0.2c0.7,0.4,1,0.8,1,1.3c0,0.3-0.1,0.6-0.4,0.8c-0.3,0.2-0.6,0.3-1,0.3
			c-0.2,0-0.5,0-0.6-0.1C83.2,99.2,83,99.1,82.7,99z"/>
		<path fill="#FFFFFF" d="M92.2,96.3v2.9h-0.8V97c0-0.4-0.1-0.8-0.2-0.9c-0.1-0.2-0.3-0.3-0.6-0.3c-0.2,0-0.3,0-0.5,0.1
			c-0.1,0.1-0.3,0.2-0.5,0.4v2.9h-0.8v-4h0.8v0.5c0.4-0.4,0.8-0.6,1.2-0.6c0.5,0,0.9,0.2,1.2,0.7c0.4-0.5,0.9-0.7,1.3-0.7
			c0.4,0,0.7,0.1,1,0.4c0.3,0.3,0.4,0.7,0.4,1.3v2.4h-0.8v-2.4c0-0.3-0.1-0.6-0.2-0.8s-0.3-0.3-0.6-0.3C92.8,95.8,92.4,96,92.2,96.3
			z"/>
		<path fill="#FFFFFF" d="M97.7,95.2c0.6,0,1.1,0.2,1.5,0.6c0.4,0.4,0.6,0.9,0.6,1.5c0,0.6-0.2,1.1-0.6,1.5
			c-0.4,0.4-0.9,0.6-1.6,0.6c-0.6,0-1.1-0.2-1.5-0.6c-0.4-0.4-0.6-0.9-0.6-1.5c0-0.6,0.2-1.1,0.6-1.5C96.6,95.4,97.1,95.2,97.7,95.2
			z M97.7,95.9c-0.4,0-0.7,0.1-0.9,0.4s-0.4,0.6-0.4,1c0,0.4,0.1,0.7,0.4,0.9c0.3,0.2,0.6,0.4,1,0.4c0.4,0,0.7-0.1,1-0.4
			c0.2-0.2,0.4-0.6,0.4-1c0-0.4-0.1-0.7-0.4-1S98.1,95.9,97.7,95.9z"/>
		<path fill="#FFFFFF" d="M100.8,93.1h0.8v6.1h-0.8V93.1z"/>
		<path fill="#FFFFFF" d="M105.3,99.3v-0.5c-0.2,0.2-0.4,0.3-0.6,0.4c-0.2,0.1-0.4,0.2-0.7,0.2c-0.3,0-0.5-0.1-0.7-0.2
			c-0.2-0.1-0.4-0.3-0.5-0.5c-0.1-0.2-0.2-0.6-0.2-1.1v-2.3h0.8v2.3c0,0.4,0.1,0.7,0.2,0.9c0.1,0.2,0.3,0.3,0.6,0.3
			c0.4,0,0.7-0.2,1-0.6v-2.9h0.8v4H105.3z"/>
		<path fill="#FFFFFF" d="M107.2,101.3v-6.1h1.4c0.7,0,1.3,0.2,1.7,0.5s0.6,0.9,0.6,1.5c0,0.6-0.2,1.1-0.6,1.5s-0.9,0.6-1.4,0.6
			c-0.3,0-0.5-0.1-0.9-0.2v2.2H107.2z M108.6,96H108v2.5c0.2,0.1,0.5,0.2,0.8,0.2c0.4,0,0.7-0.1,0.9-0.4s0.4-0.6,0.4-1
			c0-0.3-0.1-0.5-0.2-0.7c-0.1-0.2-0.3-0.3-0.5-0.4C109.2,96,108.9,96,108.6,96z"/>
		<path fill="#FFFFFF" d="M111.2,95.9l1.5-1.5v0.8h1.3v0.7h-1.3v2c0,0.5,0.2,0.7,0.6,0.7c0.3,0,0.6-0.1,0.9-0.3v0.7
			c-0.3,0.2-0.6,0.3-1,0.3c-0.4,0-0.7-0.1-0.9-0.3c-0.1-0.1-0.1-0.1-0.2-0.2c0-0.1-0.1-0.2-0.1-0.3c0-0.1-0.1-0.4-0.1-0.7v-1.8
			L111.2,95.9L111.2,95.9z"/>
		<path fill="#FFFFFF" d="M117.3,96.8v1.7c0,0.1,0,0.2,0.1,0.2c0.1,0,0.2-0.1,0.5-0.2V99c-0.2,0.1-0.3,0.2-0.4,0.2
			c-0.1,0-0.2,0.1-0.3,0.1c-0.3,0-0.5-0.1-0.6-0.4c-0.3,0.3-0.7,0.4-1.1,0.4c-0.3,0-0.5-0.1-0.7-0.3c-0.2-0.2-0.3-0.4-0.3-0.7
			c0-0.3,0.1-0.5,0.3-0.7c0.2-0.2,0.4-0.4,0.8-0.5l1-0.4v-0.2c0-0.5-0.2-0.7-0.7-0.7c-0.4,0-0.9,0.2-1.3,0.7v-0.9
			c0.3-0.4,0.8-0.5,1.3-0.5c0.4,0,0.8,0.1,1,0.3c0.1,0.1,0.2,0.2,0.2,0.3c0.1,0.1,0.1,0.2,0.1,0.4C117.3,96.3,117.3,96.5,117.3,96.8
			z M116.5,98.5v-1.2l-0.5,0.2c-0.3,0.1-0.5,0.2-0.6,0.3c-0.1,0.1-0.2,0.2-0.2,0.4c0,0.2,0.1,0.3,0.2,0.4s0.2,0.2,0.4,0.2
			C116,98.8,116.3,98.7,116.5,98.5z"/>
		<path fill="#FFFFFF" d="M118,95.9l1.5-1.5v0.8h1.3v0.7h-1.3v2c0,0.5,0.2,0.7,0.6,0.7c0.3,0,0.6-0.1,0.9-0.3v0.7
			c-0.3,0.2-0.6,0.3-1,0.3c-0.4,0-0.7-0.1-0.9-0.3c-0.1-0.1-0.1-0.1-0.2-0.2c0-0.1-0.1-0.2-0.1-0.3c0-0.1-0.1-0.4-0.1-0.7v-1.8
			L118,95.9L118,95.9z"/>
		<path fill="#FFFFFF" d="M122,93.5c0.1,0,0.2,0,0.3,0.1s0.1,0.2,0.1,0.3c0,0.1,0,0.2-0.1,0.3s-0.2,0.1-0.3,0.1
			c-0.1,0-0.2,0-0.3-0.1c-0.1-0.1-0.1-0.2-0.1-0.3c0-0.1,0-0.2,0.1-0.3C121.7,93.6,121.9,93.5,122,93.5z M121.6,95.2h0.8v4h-0.8
			V95.2z"/>
		<path fill="#FFFFFF" d="M128,95.2c0.6,0,1.1,0.2,1.5,0.6c0.4,0.4,0.6,0.9,0.6,1.5c0,0.6-0.2,1.1-0.6,1.5c-0.4,0.4-0.9,0.6-1.6,0.6
			c-0.6,0-1.1-0.2-1.5-0.6c-0.4-0.4-0.6-0.9-0.6-1.5c0-0.6,0.2-1.1,0.6-1.5C126.8,95.4,127.3,95.2,128,95.2z M127.9,95.9
			c-0.4,0-0.7,0.1-0.9,0.4s-0.4,0.6-0.4,1c0,0.4,0.1,0.7,0.4,0.9c0.3,0.2,0.6,0.4,1,0.4c0.4,0,0.7-0.1,1-0.4c0.3-0.2,0.4-0.6,0.4-1
			c0-0.4-0.1-0.7-0.4-1C128.6,96.1,128.3,95.9,127.9,95.9z"/>
		<path fill="#FFFFFF" d="M134,98.3v0.8c-0.4,0.2-0.8,0.2-1.2,0.2c-0.6,0-1.1-0.2-1.5-0.6s-0.6-0.9-0.6-1.5c0-0.6,0.2-1.1,0.5-1.5
			c0.4-0.4,0.8-0.6,1.4-0.6c0.2,0,0.4,0,0.6,0.1c0.2,0,0.4,0.1,0.6,0.2v0.9c-0.4-0.3-0.8-0.4-1.1-0.4c-0.4,0-0.7,0.1-0.9,0.4
			c-0.2,0.3-0.3,0.6-0.3,1c0,0.4,0.1,0.7,0.4,1c0.2,0.2,0.6,0.4,1,0.4C133.3,98.6,133.6,98.5,134,98.3z"/>
		<path fill="#FFFFFF" d="M138,98.3v0.8c-0.4,0.2-0.8,0.2-1.2,0.2c-0.6,0-1.1-0.2-1.5-0.6c-0.4-0.4-0.6-0.9-0.6-1.5
			c0-0.6,0.2-1.1,0.5-1.5s0.8-0.6,1.4-0.6c0.2,0,0.4,0,0.6,0.1c0.2,0,0.4,0.1,0.6,0.2v0.9c-0.4-0.3-0.8-0.4-1.1-0.4
			c-0.4,0-0.7,0.1-0.9,0.4c-0.2,0.3-0.3,0.6-0.3,1c0,0.4,0.1,0.7,0.4,1c0.2,0.2,0.6,0.4,1,0.4C137.2,98.6,137.6,98.5,138,98.3z"/>
		<path fill="#FFFFFF" d="M141.4,96.8v1.7c0,0.1,0,0.2,0.1,0.2c0.1,0,0.2-0.1,0.5-0.2V99c-0.2,0.1-0.3,0.2-0.4,0.2
			c-0.1,0-0.2,0.1-0.3,0.1c-0.3,0-0.5-0.1-0.6-0.4c-0.3,0.3-0.7,0.4-1.1,0.4c-0.3,0-0.5-0.1-0.7-0.3c-0.2-0.2-0.3-0.4-0.3-0.7
			c0-0.3,0.1-0.5,0.3-0.7c0.2-0.2,0.4-0.4,0.8-0.5l1-0.4v-0.2c0-0.5-0.2-0.7-0.7-0.7c-0.4,0-0.9,0.2-1.3,0.7v-0.9
			c0.3-0.4,0.8-0.5,1.3-0.5c0.4,0,0.8,0.1,1.1,0.3c0.1,0.1,0.2,0.2,0.2,0.3c0.1,0.1,0.1,0.2,0.1,0.4
			C141.4,96.3,141.4,96.5,141.4,96.8z M140.6,98.5v-1.2l-0.5,0.2c-0.3,0.1-0.5,0.2-0.6,0.3c-0.1,0.1-0.2,0.2-0.2,0.4
			c0,0.2,0.1,0.3,0.2,0.4s0.2,0.2,0.4,0.2C140.2,98.8,140.4,98.7,140.6,98.5z"/>
		<path fill="#FFFFFF" d="M146.2,97.3h-2.8c0,0.4,0.2,0.7,0.4,0.9s0.5,0.3,0.9,0.3c0.5,0,1-0.2,1.5-0.5v0.8
			c-0.2,0.2-0.5,0.3-0.7,0.4c-0.2,0.1-0.5,0.1-0.8,0.1c-0.4,0-0.8-0.1-1.1-0.3c-0.3-0.2-0.5-0.4-0.7-0.7c-0.2-0.3-0.2-0.7-0.2-1.1
			c0-0.6,0.2-1.1,0.5-1.5c0.3-0.4,0.8-0.6,1.4-0.6c0.5,0,1,0.2,1.3,0.6s0.5,0.9,0.5,1.5V97.3z M143.3,96.8h2c0-0.3-0.1-0.6-0.3-0.7
			s-0.4-0.3-0.7-0.3s-0.5,0.1-0.7,0.3C143.5,96.3,143.4,96.5,143.3,96.8z"/>
	</g>
	<g clip-path="url(#SVGID_4_)">
		<path fill="#FFFFFF" d="M1.4,106v0.5c0.4-0.4,0.8-0.6,1.2-0.6c0.3,0,0.5,0.1,0.7,0.2c0.2,0.1,0.4,0.3,0.5,0.5
			c0.1,0.2,0.2,0.6,0.2,1.1v2.3H3.2v-2.3c0-0.4-0.1-0.7-0.2-0.9c-0.1-0.2-0.3-0.3-0.6-0.3c-0.4,0-0.7,0.2-1,0.6v2.9H0.5v-4H1.4z"/>
		<path fill="#FFFFFF" d="M5.5,104.3c0.1,0,0.2,0,0.3,0.1s0.1,0.2,0.1,0.3c0,0.1,0,0.2-0.1,0.3s-0.2,0.1-0.3,0.1
			c-0.1,0-0.2,0-0.3-0.1C5.1,105,5,104.9,5,104.8c0-0.1,0-0.2,0.1-0.3C5.2,104.4,5.4,104.3,5.5,104.3z M5.1,106h0.8v4H5.1V106z"/>
		<path fill="#FFFFFF" d="M9.6,107.6v1.7c0,0.1,0,0.2,0.1,0.2c0.1,0,0.2-0.1,0.5-0.2v0.5c-0.2,0.1-0.3,0.2-0.4,0.2
			c-0.1,0-0.2,0.1-0.3,0.1c-0.3,0-0.5-0.1-0.6-0.4c-0.3,0.3-0.7,0.4-1.1,0.4c-0.3,0-0.5-0.1-0.7-0.3c-0.2-0.2-0.3-0.4-0.3-0.7
			c0-0.3,0.1-0.5,0.3-0.7c0.2-0.2,0.4-0.4,0.8-0.5l1-0.4v-0.2c0-0.5-0.2-0.7-0.7-0.7c-0.4,0-0.9,0.2-1.3,0.7v-0.9
			c0.3-0.4,0.8-0.5,1.3-0.5c0.4,0,0.8,0.1,1.1,0.3c0.1,0.1,0.2,0.2,0.2,0.3c0.1,0.1,0.1,0.2,0.1,0.4C9.6,107.1,9.6,107.3,9.6,107.6z
			 M8.8,109.3v-1.2l-0.5,0.2c-0.3,0.1-0.5,0.2-0.6,0.3c-0.1,0.1-0.2,0.2-0.2,0.4c0,0.2,0.1,0.3,0.2,0.4s0.2,0.2,0.4,0.2
			C8.3,109.6,8.6,109.5,8.8,109.3z"/>
		<path fill="#FFFFFF" d="M16.1,103.9h0.8v6.1h-1.7c-0.6,0-1.1-0.2-1.4-0.6c-0.4-0.4-0.5-0.9-0.5-1.5c0-0.6,0.2-1.1,0.6-1.5
			c0.4-0.4,0.9-0.6,1.4-0.6c0.3,0,0.6,0.1,0.9,0.2V103.9z M16.1,109.4v-2.6c-0.2-0.1-0.5-0.2-0.8-0.2c-0.4,0-0.7,0.1-1,0.4
			s-0.4,0.6-0.4,1.1c0,0.4,0.1,0.7,0.3,1c0.1,0.1,0.3,0.2,0.4,0.3s0.4,0.1,0.7,0.1H16.1z"/>
		<path fill="#FFFFFF" d="M19.9,106c0.6,0,1.1,0.2,1.5,0.6c0.4,0.4,0.6,0.9,0.6,1.5c0,0.6-0.2,1.1-0.6,1.5c-0.4,0.4-0.9,0.6-1.6,0.6
			c-0.6,0-1.1-0.2-1.5-0.6c-0.4-0.4-0.6-0.9-0.6-1.5c0-0.6,0.2-1.1,0.6-1.5C18.8,106.2,19.3,106,19.9,106z M19.9,106.7
			c-0.4,0-0.7,0.1-0.9,0.4s-0.4,0.6-0.4,1c0,0.4,0.1,0.7,0.4,0.9c0.3,0.2,0.6,0.4,1,0.4c0.4,0,0.7-0.1,1-0.4c0.3-0.2,0.4-0.6,0.4-1
			c0-0.4-0.1-0.7-0.4-1S20.3,106.7,19.9,106.7z"/>
		<path fill="#FFFFFF" d="M23,103.9h0.8v6.1H23V103.9z"/>
		<path fill="#FFFFFF" d="M27.5,110.1v-0.5c-0.2,0.2-0.4,0.3-0.6,0.4c-0.2,0.1-0.4,0.2-0.7,0.2c-0.3,0-0.5-0.1-0.7-0.2
			c-0.2-0.1-0.4-0.3-0.5-0.5c-0.1-0.2-0.2-0.6-0.2-1.1V106h0.8v2.3c0,0.4,0.1,0.7,0.2,0.9c0.1,0.2,0.3,0.3,0.6,0.3
			c0.4,0,0.7-0.2,1-0.6V106h0.8v4H27.5z"/>
		<path fill="#FFFFFF" d="M29.4,112.1V106h1.4c0.7,0,1.3,0.2,1.7,0.5s0.6,0.9,0.6,1.5c0,0.6-0.2,1.1-0.6,1.5s-0.9,0.6-1.4,0.6
			c-0.3,0-0.5-0.1-0.9-0.2v2.2H29.4z M30.7,106.8h-0.6v2.5c0.2,0.1,0.5,0.2,0.8,0.2c0.4,0,0.7-0.1,0.9-0.4s0.4-0.6,0.4-1
			c0-0.3-0.1-0.5-0.2-0.7c-0.1-0.2-0.3-0.3-0.5-0.4C31.4,106.8,31.1,106.8,30.7,106.8z"/>
		<path fill="#FFFFFF" d="M33.3,106.7l1.5-1.5v0.8h1.3v0.7h-1.3v2c0,0.5,0.2,0.7,0.6,0.7c0.3,0,0.6-0.1,0.9-0.3v0.7
			c-0.3,0.2-0.6,0.3-1,0.3c-0.4,0-0.7-0.1-0.9-0.3c-0.1-0.1-0.1-0.1-0.2-0.2c0-0.1-0.1-0.2-0.1-0.3c0-0.1-0.1-0.4-0.1-0.7v-1.8
			L33.3,106.7L33.3,106.7z"/>
		<path fill="#FFFFFF" d="M39.4,107.6v1.7c0,0.1,0,0.2,0.1,0.2c0.1,0,0.2-0.1,0.5-0.2v0.5c-0.2,0.1-0.3,0.2-0.4,0.2
			c-0.1,0-0.2,0.1-0.3,0.1c-0.3,0-0.5-0.1-0.6-0.4c-0.3,0.3-0.7,0.4-1.1,0.4c-0.3,0-0.5-0.1-0.7-0.3c-0.2-0.2-0.3-0.4-0.3-0.7
			c0-0.3,0.1-0.5,0.3-0.7c0.2-0.2,0.4-0.4,0.8-0.5l1-0.4v-0.2c0-0.5-0.2-0.7-0.7-0.7c-0.4,0-0.9,0.2-1.3,0.7v-0.9
			c0.3-0.4,0.8-0.5,1.3-0.5c0.4,0,0.8,0.1,1.1,0.3c0.1,0.1,0.2,0.2,0.2,0.3c0.1,0.1,0.1,0.2,0.1,0.4
			C39.4,107.1,39.4,107.3,39.4,107.6z M38.7,109.3v-1.2l-0.5,0.2c-0.3,0.1-0.5,0.2-0.6,0.3c-0.1,0.1-0.2,0.2-0.2,0.4
			c0,0.2,0.1,0.3,0.2,0.4s0.2,0.2,0.4,0.2C38.2,109.6,38.4,109.5,38.7,109.3z"/>
		<path fill="#FFFFFF" d="M42.7,106.7l1.5-1.5v0.8h1.3v0.7h-1.3v2c0,0.5,0.2,0.7,0.6,0.7c0.3,0,0.6-0.1,0.9-0.3v0.7
			c-0.3,0.2-0.6,0.3-1,0.3c-0.4,0-0.7-0.1-0.9-0.3c-0.1-0.1-0.1-0.1-0.2-0.2c0-0.1-0.1-0.2-0.1-0.3c0-0.1-0.1-0.4-0.1-0.7v-1.8
			L42.7,106.7L42.7,106.7z"/>
		<path fill="#FFFFFF" d="M46.7,104.3c0.1,0,0.2,0,0.3,0.1s0.1,0.2,0.1,0.3c0,0.1,0,0.2-0.1,0.3s-0.2,0.1-0.3,0.1
			c-0.1,0-0.2,0-0.3-0.1c-0.1-0.1-0.1-0.2-0.1-0.3c0-0.1,0-0.2,0.1-0.3C46.4,104.4,46.5,104.3,46.7,104.3z M46.3,106h0.8v4h-0.8V106
			z"/>
		<path fill="#FFFFFF" d="M50.2,106c0.6,0,1.1,0.2,1.5,0.6c0.4,0.4,0.6,0.9,0.6,1.5c0,0.6-0.2,1.1-0.6,1.5c-0.4,0.4-0.9,0.6-1.6,0.6
			c-0.6,0-1.1-0.2-1.5-0.6c-0.4-0.4-0.6-0.9-0.6-1.5c0-0.6,0.2-1.1,0.6-1.5C49,106.2,49.5,106,50.2,106z M50.1,106.7
			c-0.4,0-0.7,0.1-0.9,0.4s-0.4,0.6-0.4,1c0,0.4,0.1,0.7,0.4,0.9c0.3,0.2,0.6,0.4,1,0.4c0.4,0,0.7-0.1,1-0.4c0.3-0.2,0.4-0.6,0.4-1
			c0-0.4-0.1-0.7-0.4-1S50.5,106.7,50.1,106.7z"/>
		<path fill="#FFFFFF" d="M54,106v0.5c0.4-0.4,0.8-0.6,1.2-0.6c0.3,0,0.5,0.1,0.7,0.2c0.2,0.1,0.4,0.3,0.5,0.5
			c0.1,0.2,0.2,0.6,0.2,1.1v2.3h-0.8v-2.3c0-0.4-0.1-0.7-0.2-0.9c-0.1-0.2-0.3-0.3-0.6-0.3c-0.4,0-0.7,0.2-1,0.6v2.9h-0.8v-4H54z"/>
		<path fill="#FFFFFF" d="M57.5,109.8v-0.9c0.2,0.2,0.5,0.3,0.7,0.4c0.2,0.1,0.4,0.1,0.6,0.1c0.2,0,0.3,0,0.4-0.1s0.2-0.2,0.2-0.3
			c0-0.1,0-0.2-0.1-0.3c-0.1-0.1-0.2-0.2-0.5-0.3c-0.5-0.3-0.9-0.5-1-0.7c-0.2-0.2-0.2-0.4-0.2-0.7c0-0.3,0.1-0.6,0.4-0.8
			c0.2-0.2,0.6-0.3,0.9-0.3c0.4,0,0.8,0.1,1.2,0.3v0.8c-0.5-0.3-0.9-0.4-1.2-0.4c-0.2,0-0.3,0-0.4,0.1c-0.1,0.1-0.1,0.2-0.1,0.3
			c0,0.1,0,0.2,0.1,0.3s0.2,0.2,0.5,0.3l0.3,0.2c0.7,0.4,1,0.8,1,1.3c0,0.3-0.1,0.6-0.4,0.8c-0.3,0.2-0.6,0.3-1,0.3
			c-0.2,0-0.5,0-0.6-0.1C58,110,57.8,109.9,57.5,109.8z"/>
		<path fill="#FFFFFF" d="M64.6,108.1h-2.8c0,0.4,0.1,0.7,0.4,0.9s0.5,0.3,0.9,0.3c0.5,0,1-0.2,1.5-0.5v0.8
			c-0.2,0.2-0.5,0.3-0.7,0.4c-0.2,0.1-0.5,0.1-0.9,0.1c-0.4,0-0.8-0.1-1.1-0.3c-0.3-0.2-0.5-0.4-0.7-0.7c-0.2-0.3-0.2-0.7-0.2-1.1
			c0-0.6,0.2-1.1,0.5-1.5c0.3-0.4,0.8-0.6,1.4-0.6c0.5,0,1,0.2,1.3,0.6s0.5,0.9,0.5,1.5V108.1z M61.8,107.6h2c0-0.3-0.1-0.6-0.3-0.7
			s-0.4-0.3-0.7-0.3s-0.5,0.1-0.7,0.3C61.9,107.1,61.8,107.3,61.8,107.6z"/>
		<path fill="#FFFFFF" d="M66.3,106v0.9l0-0.1c0.4-0.6,0.8-0.9,1.2-0.9c0.3,0,0.6,0.2,0.9,0.5l-0.4,0.7c-0.3-0.3-0.5-0.4-0.8-0.4
			c-0.3,0-0.5,0.1-0.7,0.4c-0.2,0.2-0.3,0.5-0.3,0.9v2.1h-0.8v-4H66.3z"/>
		<path fill="#FFFFFF" d="M74.1,110.1v-0.5c-0.2,0.2-0.4,0.3-0.6,0.4c-0.2,0.1-0.4,0.2-0.7,0.2c-0.3,0-0.5-0.1-0.7-0.2
			c-0.2-0.1-0.4-0.3-0.5-0.5c-0.1-0.2-0.2-0.6-0.2-1.1V106h0.8v2.3c0,0.4,0.1,0.7,0.2,0.9c0.1,0.2,0.3,0.3,0.6,0.3
			c0.4,0,0.7-0.2,1-0.6V106h0.8v4H74.1z"/>
		<path fill="#FFFFFF" d="M79.3,107.1v2.9h-0.8v-2.2c0-0.4-0.1-0.8-0.2-0.9c-0.1-0.2-0.3-0.3-0.6-0.3c-0.2,0-0.3,0-0.5,0.1
			c-0.1,0.1-0.3,0.2-0.5,0.4v2.9H76v-4h0.8v0.5c0.4-0.4,0.8-0.6,1.2-0.6c0.5,0,0.9,0.2,1.2,0.7c0.4-0.5,0.9-0.7,1.3-0.7
			c0.4,0,0.7,0.1,1,0.4c0.3,0.3,0.4,0.7,0.4,1.3v2.4h-0.8v-2.4c0-0.3-0.1-0.6-0.2-0.8s-0.3-0.3-0.6-0.3
			C79.9,106.6,79.6,106.8,79.3,107.1z"/>
		<path fill="#FFFFFF" d="M84.9,106h1.5v6.1h-0.8V110c-0.3,0.1-0.6,0.1-0.9,0.1c-0.6,0-1.1-0.2-1.4-0.6c-0.4-0.4-0.6-0.9-0.6-1.5
			c0-0.6,0.2-1.1,0.6-1.5S84.2,106,84.9,106z M85.6,109.3v-2.5h-0.5c-0.3,0-0.6,0-0.7,0c-0.1,0-0.2,0.1-0.3,0.1
			c-0.1,0.1-0.2,0.1-0.2,0.2c-0.2,0.2-0.3,0.6-0.3,0.9c0,0.4,0.1,0.8,0.4,1s0.6,0.4,1,0.4c0.1,0,0.2,0,0.2,0c0.1,0,0.2,0,0.4-0.1
			L85.6,109.3L85.6,109.3z"/>
		<path fill="#FFFFFF" d="M90,110.1v-0.5c-0.2,0.2-0.4,0.3-0.6,0.4c-0.2,0.1-0.4,0.2-0.7,0.2c-0.3,0-0.5-0.1-0.7-0.2
			c-0.2-0.1-0.4-0.3-0.5-0.5c-0.1-0.2-0.2-0.6-0.2-1.1V106h0.8v2.3c0,0.4,0.1,0.7,0.2,0.9c0.1,0.2,0.3,0.3,0.6,0.3
			c0.4,0,0.7-0.2,1-0.6V106h0.8v4H90z"/>
		<path fill="#FFFFFF" d="M92.4,104.3c0.1,0,0.2,0,0.3,0.1s0.1,0.2,0.1,0.3c0,0.1,0,0.2-0.1,0.3s-0.2,0.1-0.3,0.1
			c-0.1,0-0.2,0-0.3-0.1c-0.1-0.1-0.1-0.2-0.1-0.3c0-0.1,0-0.2,0.1-0.3C92.1,104.4,92.2,104.3,92.4,104.3z M92,106h0.8v4H92V106z"/>
		<path fill="#FFFFFF" d="M96.5,107.6v1.7c0,0.1,0,0.2,0.1,0.2c0.1,0,0.2-0.1,0.5-0.2v0.5c-0.2,0.1-0.3,0.2-0.4,0.2
			c-0.1,0-0.2,0.1-0.3,0.1c-0.3,0-0.5-0.1-0.6-0.4c-0.3,0.3-0.7,0.4-1.1,0.4c-0.3,0-0.5-0.1-0.7-0.3c-0.2-0.2-0.3-0.4-0.3-0.7
			c0-0.3,0.1-0.5,0.3-0.7c0.2-0.2,0.4-0.4,0.8-0.5l1-0.4v-0.2c0-0.5-0.2-0.7-0.7-0.7c-0.4,0-0.9,0.2-1.3,0.7v-0.9
			c0.3-0.4,0.8-0.5,1.3-0.5c0.4,0,0.8,0.1,1.1,0.3c0.1,0.1,0.2,0.2,0.2,0.3c0.1,0.1,0.1,0.2,0.1,0.4
			C96.5,107.1,96.5,107.3,96.5,107.6z M95.7,109.3v-1.2l-0.5,0.2c-0.3,0.1-0.5,0.2-0.6,0.3c-0.1,0.1-0.2,0.2-0.2,0.4
			c0,0.2,0.1,0.3,0.2,0.4s0.2,0.2,0.4,0.2C95.2,109.6,95.5,109.5,95.7,109.3z"/>
		<path fill="#FFFFFF" d="M101.1,107.1v2.9h-0.8v-2.2c0-0.4-0.1-0.8-0.2-0.9c-0.1-0.2-0.3-0.3-0.6-0.3c-0.2,0-0.3,0-0.5,0.1
			c-0.1,0.1-0.3,0.2-0.5,0.4v2.9h-0.8v-4h0.8v0.5c0.4-0.4,0.8-0.6,1.2-0.6c0.5,0,0.9,0.2,1.2,0.7c0.4-0.5,0.9-0.7,1.3-0.7
			c0.4,0,0.7,0.1,1,0.4c0.3,0.3,0.4,0.7,0.4,1.3v2.4h-0.8v-2.4c0-0.3-0.1-0.6-0.2-0.8c-0.1-0.2-0.3-0.3-0.6-0.3
			C101.7,106.6,101.4,106.8,101.1,107.1z"/>
		<path fill="#FFFFFF" d="M108.1,106v0.9l0-0.1c0.4-0.6,0.8-0.9,1.2-0.9c0.3,0,0.6,0.2,0.9,0.5l-0.4,0.7c-0.3-0.3-0.5-0.4-0.8-0.4
			c-0.3,0-0.5,0.1-0.7,0.4c-0.2,0.2-0.3,0.5-0.3,0.9v2.1h-0.8v-4H108.1z"/>
		<path fill="#FFFFFF" d="M114,108.1h-2.8c0,0.4,0.1,0.7,0.4,0.9s0.5,0.3,0.9,0.3c0.5,0,1-0.2,1.5-0.5v0.8c-0.2,0.2-0.5,0.3-0.7,0.4
			c-0.2,0.1-0.5,0.1-0.9,0.1c-0.4,0-0.8-0.1-1.1-0.3c-0.3-0.2-0.5-0.4-0.7-0.7c-0.2-0.3-0.2-0.7-0.2-1.1c0-0.6,0.2-1.1,0.5-1.5
			c0.3-0.4,0.8-0.6,1.4-0.6c0.5,0,1,0.2,1.3,0.6s0.5,0.9,0.5,1.5V108.1z M111.2,107.6h2c0-0.3-0.1-0.6-0.3-0.7s-0.4-0.3-0.7-0.3
			s-0.5,0.1-0.7,0.3C111.4,107.1,111.3,107.3,111.2,107.6z"/>
		<path fill="#FFFFFF" d="M115.3,104.3c0.1,0,0.2,0,0.3,0.1s0.1,0.2,0.1,0.3c0,0.1,0,0.2-0.1,0.3s-0.2,0.1-0.3,0.1
			c-0.1,0-0.2,0-0.3-0.1c-0.1-0.1-0.1-0.2-0.1-0.3c0-0.1,0-0.2,0.1-0.3C115.1,104.4,115.2,104.3,115.3,104.3z M114.9,106h0.8v4h-0.8
			V106z"/>
		<path fill="#FFFFFF" d="M119.4,110.1v-0.5c-0.2,0.2-0.4,0.3-0.6,0.4c-0.2,0.1-0.4,0.2-0.7,0.2c-0.3,0-0.5-0.1-0.7-0.2
			c-0.2-0.1-0.4-0.3-0.5-0.5c-0.1-0.2-0.2-0.6-0.2-1.1V106h0.8v2.3c0,0.4,0.1,0.7,0.2,0.9c0.1,0.2,0.3,0.3,0.6,0.3
			c0.4,0,0.7-0.2,1-0.6V106h0.8v4H119.4z"/>
		<path fill="#FFFFFF" d="M122.2,106v0.9l0-0.1c0.4-0.6,0.8-0.9,1.2-0.9c0.3,0,0.6,0.2,0.9,0.5l-0.4,0.7c-0.3-0.3-0.5-0.4-0.8-0.4
			c-0.3,0-0.5,0.1-0.7,0.4c-0.2,0.2-0.3,0.5-0.3,0.9v2.1h-0.8v-4H122.2z"/>
		<path fill="#FFFFFF" d="M125,104.8l0.6-1c0.5,0,0.8,0.1,1.1,0.4c0.2,0.2,0.4,0.6,0.4,0.9c0,0.2,0,0.5-0.1,0.7
			c-0.1,0.3-0.3,0.6-0.6,1.2c-0.4,0.6-0.6,1-0.6,1.3c0,0,0,0.1,0,0.2c-0.2-0.1-0.3-0.2-0.4-0.3c-0.1-0.1-0.1-0.3-0.1-0.5
			c0-0.2,0-0.4,0.1-0.5c0.1-0.2,0.2-0.4,0.5-0.9c0.3-0.4,0.4-0.7,0.4-1c0-0.2-0.1-0.3-0.2-0.4c-0.1-0.1-0.3-0.2-0.5-0.2
			C125.3,104.6,125.1,104.7,125,104.8z M126.3,109.6c0,0.1-0.1,0.3-0.2,0.4c-0.1,0.1-0.2,0.2-0.4,0.2c-0.1,0-0.3,0-0.4-0.2
			c-0.1-0.1-0.2-0.2-0.2-0.4c0-0.2,0.1-0.3,0.2-0.4s0.2-0.2,0.4-0.2c0.2,0,0.3,0.1,0.4,0.2C126.2,109.3,126.3,109.4,126.3,109.6z"/>
		<path fill="#FFFFFF" d="M136.7,110.4l-0.9,0.9c-0.3,0-0.6-0.1-0.9-0.1c-0.3-0.1-0.6-0.2-0.9-0.3c-0.3-0.1-0.7-0.4-1.2-0.8
			c-0.7-0.1-1.4-0.5-1.8-1.1c-0.5-0.6-0.7-1.2-0.7-2c0-0.9,0.3-1.7,0.9-2.3s1.4-0.9,2.4-0.9c0.9,0,1.7,0.3,2.4,0.9
			c0.6,0.6,0.9,1.3,0.9,2.2c0,0.8-0.2,1.4-0.7,2c-0.5,0.6-1.1,0.9-1.8,1.1l0.2,0.1c0.7,0.3,1.2,0.4,1.6,0.4
			C136.3,110.6,136.5,110.5,136.7,110.4z M133.6,104.7c-0.7,0-1.3,0.2-1.7,0.7c-0.5,0.4-0.7,1-0.7,1.7c0,0.7,0.2,1.2,0.7,1.6
			c0.5,0.4,1,0.7,1.7,0.7c0.7,0,1.2-0.2,1.7-0.7c0.5-0.4,0.7-1,0.7-1.7c0-0.7-0.2-1.2-0.7-1.7S134.3,104.7,133.6,104.7z"/>
		<path fill="#FFFFFF" d="M140.4,110.1v-0.5c-0.2,0.2-0.4,0.3-0.6,0.4c-0.2,0.1-0.4,0.2-0.7,0.2c-0.3,0-0.5-0.1-0.7-0.2
			c-0.2-0.1-0.4-0.3-0.5-0.5c-0.1-0.2-0.2-0.6-0.2-1.1V106h0.8v2.3c0,0.4,0.1,0.7,0.2,0.9c0.1,0.2,0.3,0.3,0.6,0.3
			c0.4,0,0.7-0.2,1-0.6V106h0.8v4H140.4z"/>
		<path fill="#FFFFFF" d="M142.8,104.3c0.1,0,0.2,0,0.3,0.1s0.1,0.2,0.1,0.3c0,0.1,0,0.2-0.1,0.3s-0.2,0.1-0.3,0.1
			c-0.1,0-0.2,0-0.3-0.1c-0.1-0.1-0.1-0.2-0.1-0.3c0-0.1,0-0.2,0.1-0.3C142.5,104.4,142.6,104.3,142.8,104.3z M142.4,106h0.8v4h-0.8
			V106z"/>
		<path fill="#FFFFFF" d="M144.3,103.9h0.8v2.4c0.3-0.3,0.7-0.4,1.1-0.4c0.5,0,0.9,0.2,1.3,0.6s0.5,0.9,0.5,1.5
			c0,0.7-0.2,1.2-0.6,1.6c-0.4,0.4-0.9,0.6-1.6,0.6c-0.3,0-0.5,0-0.8-0.1c-0.3-0.1-0.5-0.1-0.7-0.2V103.9z M145.1,107.1v2.2
			c0.3,0.1,0.6,0.1,0.8,0.1c0.4,0,0.6-0.1,0.9-0.4c0.2-0.3,0.3-0.6,0.3-1c0-0.4-0.1-0.7-0.3-1c-0.2-0.3-0.5-0.4-0.8-0.4
			C145.7,106.7,145.4,106.8,145.1,107.1z"/>
		<path fill="#FFFFFF" d="M151.4,110.1v-0.5c-0.2,0.2-0.4,0.3-0.6,0.4c-0.2,0.1-0.4,0.2-0.7,0.2c-0.3,0-0.5-0.1-0.7-0.2
			c-0.2-0.1-0.4-0.3-0.5-0.5c-0.1-0.2-0.2-0.6-0.2-1.1V106h0.8v2.3c0,0.4,0.1,0.7,0.2,0.9c0.1,0.2,0.3,0.3,0.6,0.3
			c0.4,0,0.7-0.2,1-0.6V106h0.8v4H151.4z"/>
		<path fill="#FFFFFF" d="M153.1,109.8v-0.9c0.2,0.2,0.5,0.3,0.7,0.4c0.2,0.1,0.4,0.1,0.6,0.1c0.2,0,0.3,0,0.4-0.1s0.2-0.2,0.2-0.3
			c0-0.1,0-0.2-0.1-0.3c-0.1-0.1-0.2-0.2-0.5-0.3c-0.5-0.3-0.9-0.5-1-0.7c-0.2-0.2-0.2-0.4-0.2-0.7c0-0.3,0.1-0.6,0.4-0.8
			c0.2-0.2,0.6-0.3,0.9-0.3c0.4,0,0.8,0.1,1.2,0.3v0.8c-0.5-0.3-0.9-0.4-1.2-0.4c-0.2,0-0.3,0-0.4,0.1c-0.1,0.1-0.1,0.2-0.1,0.3
			c0,0.1,0,0.2,0.1,0.3c0.1,0.1,0.2,0.2,0.5,0.3l0.3,0.2c0.7,0.4,1,0.8,1,1.3c0,0.3-0.1,0.6-0.4,0.8c-0.3,0.2-0.6,0.3-1,0.3
			c-0.2,0-0.5,0-0.6-0.1C153.6,110,153.4,109.9,153.1,109.8z"/>
	</g>
	<g clip-path="url(#SVGID_4_)">
		<path fill="#FFFFFF" d="M3.9,117.9v2.9H3.1v-2.2c0-0.4-0.1-0.8-0.2-0.9c-0.1-0.2-0.3-0.3-0.6-0.3c-0.2,0-0.3,0-0.5,0.1
			c-0.1,0.1-0.3,0.2-0.5,0.4v2.9H0.5v-4h0.8v0.5c0.4-0.4,0.8-0.6,1.2-0.6c0.5,0,0.9,0.2,1.2,0.7c0.4-0.5,0.9-0.7,1.3-0.7
			c0.4,0,0.7,0.1,1,0.4c0.3,0.3,0.4,0.7,0.4,1.3v2.4H5.6v-2.4c0-0.3-0.1-0.6-0.2-0.8s-0.3-0.3-0.6-0.3
			C4.5,117.4,4.2,117.6,3.9,117.9z"/>
		<path fill="#FFFFFF" d="M10,118.4v1.7c0,0.1,0,0.2,0.1,0.2c0.1,0,0.2-0.1,0.5-0.2v0.5c-0.2,0.1-0.3,0.2-0.4,0.2
			c-0.1,0-0.2,0.1-0.3,0.1c-0.3,0-0.5-0.1-0.6-0.4c-0.3,0.3-0.7,0.4-1.1,0.4c-0.3,0-0.5-0.1-0.7-0.3c-0.2-0.2-0.3-0.4-0.3-0.7
			c0-0.3,0.1-0.5,0.3-0.7c0.2-0.2,0.4-0.4,0.8-0.5l1-0.4v-0.2c0-0.5-0.2-0.7-0.7-0.7c-0.4,0-0.9,0.2-1.3,0.7v-0.9
			c0.3-0.4,0.8-0.5,1.3-0.5c0.4,0,0.8,0.1,1.1,0.3c0.1,0.1,0.2,0.2,0.2,0.3c0.1,0.1,0.1,0.2,0.1,0.4C10,117.9,10,118.1,10,118.4z
			 M9.3,120.1v-1.2l-0.5,0.2c-0.3,0.1-0.5,0.2-0.6,0.3C8,119.5,8,119.6,8,119.8c0,0.2,0.1,0.3,0.2,0.4s0.2,0.2,0.4,0.2
			C8.8,120.4,9,120.3,9.3,120.1z"/>
		<path fill="#FFFFFF" d="M11.1,118.2c0-0.4,0.2-0.8,0.5-1c0.3-0.3,0.7-0.4,1.3-0.4h1.7v0.6h-0.8c0.2,0.2,0.3,0.3,0.3,0.4
			s0.1,0.3,0.1,0.5c0,0.2-0.1,0.4-0.2,0.6c-0.1,0.2-0.3,0.4-0.5,0.5c-0.2,0.1-0.5,0.2-0.9,0.3c-0.3,0-0.5,0.1-0.5,0.3
			c0,0.1,0.1,0.2,0.2,0.2c0.1,0.1,0.3,0.1,0.6,0.2c0.5,0.1,0.8,0.2,1,0.3s0.3,0.1,0.4,0.3c0.2,0.2,0.3,0.4,0.3,0.7
			c0,0.4-0.2,0.7-0.5,0.9c-0.3,0.2-0.8,0.3-1.4,0.3c-0.6,0-1-0.1-1.4-0.3c-0.3-0.2-0.5-0.5-0.5-0.9c0-0.5,0.3-0.9,1-1.1
			c-0.3-0.2-0.4-0.3-0.4-0.5c0-0.1,0.1-0.2,0.2-0.4s0.3-0.2,0.5-0.2C11.4,119.2,11.1,118.8,11.1,118.2z M12.5,121
			c-0.3,0-0.5,0.1-0.7,0.2c-0.2,0.1-0.3,0.3-0.3,0.4c0,0.4,0.4,0.6,1.1,0.6c0.4,0,0.6-0.1,0.8-0.2c0.2-0.1,0.3-0.3,0.3-0.4
			c0-0.2-0.1-0.3-0.4-0.5C13.2,121.1,12.8,121,12.5,121z M12.6,117.5c-0.2,0-0.4,0.1-0.6,0.2s-0.2,0.3-0.2,0.5
			c0,0.2,0.1,0.4,0.2,0.5c0.1,0.1,0.3,0.2,0.6,0.2c0.2,0,0.4-0.1,0.6-0.2c0.2-0.1,0.2-0.3,0.2-0.5c0-0.2-0.1-0.4-0.2-0.5
			S12.9,117.5,12.6,117.5z"/>
		<path fill="#FFFFFF" d="M16,116.8v0.5c0.4-0.4,0.8-0.6,1.2-0.6c0.3,0,0.5,0.1,0.7,0.2c0.2,0.1,0.4,0.3,0.5,0.5
			c0.1,0.2,0.2,0.6,0.2,1.1v2.3h-0.8v-2.3c0-0.4-0.1-0.7-0.2-0.9c-0.1-0.2-0.3-0.3-0.6-0.3c-0.4,0-0.7,0.2-1,0.6v2.9h-0.8v-4H16z"/>
		<path fill="#FFFFFF" d="M20.1,115.1c0.1,0,0.2,0,0.3,0.1s0.1,0.2,0.1,0.3c0,0.1,0,0.2-0.1,0.3s-0.2,0.1-0.3,0.1
			c-0.1,0-0.2,0-0.3-0.1c-0.1-0.1-0.1-0.2-0.1-0.3c0-0.1,0-0.2,0.1-0.3C19.9,115.2,20,115.1,20.1,115.1z M19.7,116.8h0.8v4h-0.8
			V116.8z"/>
		<path fill="#FFFFFF" d="M25,117.9v2.9h-0.8v-2.2c0-0.4-0.1-0.8-0.2-0.9c-0.1-0.2-0.3-0.3-0.6-0.3c-0.2,0-0.3,0-0.5,0.1
			c-0.1,0.1-0.3,0.2-0.5,0.4v2.9h-0.8v-4h0.8v0.5c0.4-0.4,0.8-0.6,1.2-0.6c0.5,0,0.9,0.2,1.2,0.7c0.4-0.5,0.9-0.7,1.3-0.7
			c0.4,0,0.7,0.1,1,0.4c0.3,0.3,0.4,0.7,0.4,1.3v2.4h-0.8v-2.4c0-0.3-0.1-0.6-0.2-0.8s-0.3-0.3-0.6-0.3
			C25.6,117.4,25.3,117.6,25,117.9z"/>
		<path fill="#FFFFFF" d="M29,115.1c0.1,0,0.2,0,0.3,0.1s0.1,0.2,0.1,0.3c0,0.1,0,0.2-0.1,0.3s-0.2,0.1-0.3,0.1
			c-0.1,0-0.2,0-0.3-0.1c-0.1-0.1-0.1-0.2-0.1-0.3c0-0.1,0-0.2,0.1-0.3C28.8,115.2,28.9,115.1,29,115.1z M28.6,116.8h0.8v4h-0.8
			V116.8z"/>
		<path fill="#FFFFFF" d="M31.4,116.8v0.5c0.4-0.4,0.8-0.6,1.2-0.6c0.3,0,0.5,0.1,0.7,0.2c0.2,0.1,0.4,0.3,0.5,0.5
			c0.1,0.2,0.2,0.6,0.2,1.1v2.3h-0.8v-2.3c0-0.4-0.1-0.7-0.2-0.9c-0.1-0.2-0.3-0.3-0.6-0.3c-0.4,0-0.7,0.2-1,0.6v2.9h-0.8v-4H31.4z"
			/>
		<path fill="#FFFFFF" d="M37.6,120.9v-0.5c-0.2,0.2-0.4,0.3-0.6,0.4c-0.2,0.1-0.4,0.2-0.7,0.2c-0.3,0-0.5-0.1-0.7-0.2
			c-0.2-0.1-0.4-0.3-0.5-0.5c-0.1-0.2-0.2-0.6-0.2-1.1v-2.3h0.8v2.3c0,0.4,0.1,0.7,0.2,0.9c0.1,0.2,0.3,0.3,0.6,0.3
			c0.4,0,0.7-0.2,1-0.6v-2.9h0.8v4H37.6z"/>
		<path fill="#FFFFFF" d="M42.8,117.9v2.9H42v-2.2c0-0.4-0.1-0.8-0.2-0.9c-0.1-0.2-0.3-0.3-0.6-0.3c-0.2,0-0.3,0-0.5,0.1
			c-0.1,0.1-0.3,0.2-0.5,0.4v2.9h-0.8v-4h0.8v0.5c0.4-0.4,0.8-0.6,1.2-0.6c0.5,0,0.9,0.2,1.2,0.7c0.4-0.5,0.9-0.7,1.3-0.7
			c0.4,0,0.7,0.1,1,0.4c0.3,0.3,0.4,0.7,0.4,1.3v2.4h-0.8v-2.4c0-0.3-0.1-0.6-0.2-0.8s-0.3-0.3-0.6-0.3
			C43.4,117.4,43.1,117.6,42.8,117.9z"/>
		<path fill="#FFFFFF" d="M51.6,114.7h0.8v6.1h-1.7c-0.6,0-1.1-0.2-1.4-0.6c-0.4-0.4-0.5-0.9-0.5-1.5c0-0.6,0.2-1.1,0.6-1.5
			c0.4-0.4,0.9-0.6,1.4-0.6c0.3,0,0.6,0.1,0.9,0.2V114.7z M51.6,120.2v-2.6c-0.2-0.1-0.5-0.2-0.8-0.2c-0.4,0-0.7,0.1-1,0.4
			s-0.4,0.6-0.4,1.1c0,0.4,0.1,0.7,0.3,1c0.1,0.1,0.3,0.2,0.4,0.3s0.4,0.1,0.7,0.1H51.6z"/>
		<path fill="#FFFFFF" d="M53.9,115.1c0.1,0,0.2,0,0.3,0.1s0.1,0.2,0.1,0.3c0,0.1,0,0.2-0.1,0.3s-0.2,0.1-0.3,0.1
			c-0.1,0-0.2,0-0.3-0.1c-0.1-0.1-0.1-0.2-0.1-0.3c0-0.1,0-0.2,0.1-0.3C53.7,115.2,53.8,115.1,53.9,115.1z M53.5,116.8h0.8v4h-0.8
			V116.8z"/>
		<path fill="#FFFFFF" d="M54.9,117.5l1.5-1.5v0.8h1.3v0.7h-1.3v2c0,0.5,0.2,0.7,0.6,0.7c0.3,0,0.6-0.1,0.9-0.3v0.7
			c-0.3,0.2-0.6,0.3-1,0.3c-0.4,0-0.7-0.1-0.9-0.3c-0.1-0.1-0.1-0.1-0.2-0.2c0-0.1-0.1-0.2-0.1-0.3c0-0.1-0.1-0.4-0.1-0.7v-1.8
			L54.9,117.5L54.9,117.5z"/>
		<path fill="#FFFFFF" d="M58.9,115.1c0.1,0,0.2,0,0.3,0.1s0.1,0.2,0.1,0.3c0,0.1,0,0.2-0.1,0.3s-0.2,0.1-0.3,0.1
			c-0.1,0-0.2,0-0.3-0.1c-0.1-0.1-0.1-0.2-0.1-0.3c0-0.1,0-0.2,0.1-0.3C58.7,115.2,58.8,115.1,58.9,115.1z M58.5,116.8h0.8v4h-0.8
			V116.8z"/>
		<path fill="#FFFFFF" d="M60.3,120.6v-0.9c0.2,0.2,0.5,0.3,0.7,0.4c0.2,0.1,0.4,0.1,0.6,0.1c0.2,0,0.3,0,0.4-0.1s0.2-0.2,0.2-0.3
			c0-0.1,0-0.2-0.1-0.3c-0.1-0.1-0.2-0.2-0.5-0.3c-0.5-0.3-0.9-0.5-1-0.7c-0.2-0.2-0.2-0.4-0.2-0.7c0-0.3,0.1-0.6,0.4-0.8
			c0.2-0.2,0.6-0.3,0.9-0.3c0.4,0,0.8,0.1,1.2,0.3v0.8c-0.5-0.3-0.9-0.4-1.2-0.4c-0.2,0-0.3,0-0.4,0.1c-0.1,0.1-0.1,0.2-0.1,0.3
			c0,0.1,0,0.2,0.1,0.3s0.2,0.2,0.5,0.3l0.3,0.2c0.7,0.4,1,0.8,1,1.3c0,0.3-0.1,0.6-0.4,0.8c-0.3,0.2-0.6,0.3-1,0.3
			c-0.2,0-0.5,0-0.6-0.1C60.8,120.8,60.5,120.7,60.3,120.6z"/>
		<path fill="#FFFFFF" d="M69.7,117.9v2.9h-0.8v-2.2c0-0.4-0.1-0.8-0.2-0.9c-0.1-0.2-0.3-0.3-0.6-0.3c-0.2,0-0.3,0-0.5,0.1
			c-0.1,0.1-0.3,0.2-0.5,0.4v2.9h-0.8v-4h0.8v0.5c0.4-0.4,0.8-0.6,1.2-0.6c0.5,0,0.9,0.2,1.2,0.7c0.4-0.5,0.9-0.7,1.3-0.7
			c0.4,0,0.7,0.1,1,0.4c0.3,0.3,0.4,0.7,0.4,1.3v2.4h-0.8v-2.4c0-0.3-0.1-0.6-0.2-0.8s-0.3-0.3-0.6-0.3
			C70.3,117.4,70,117.6,69.7,117.9z"/>
		<path fill="#FFFFFF" d="M75.9,118.4v1.7c0,0.1,0,0.2,0.1,0.2c0.1,0,0.2-0.1,0.5-0.2v0.5c-0.2,0.1-0.3,0.2-0.4,0.2
			c-0.1,0-0.2,0.1-0.3,0.1c-0.3,0-0.5-0.1-0.6-0.4c-0.3,0.3-0.7,0.4-1.1,0.4c-0.3,0-0.5-0.1-0.7-0.3c-0.2-0.2-0.3-0.4-0.3-0.7
			c0-0.3,0.1-0.5,0.3-0.7c0.2-0.2,0.4-0.4,0.8-0.5l1-0.4v-0.2c0-0.5-0.2-0.7-0.7-0.7c-0.4,0-0.9,0.2-1.3,0.7v-0.9
			c0.3-0.4,0.8-0.5,1.3-0.5c0.4,0,0.8,0.1,1.1,0.3c0.1,0.1,0.2,0.2,0.2,0.3c0.1,0.1,0.1,0.2,0.1,0.4
			C75.9,117.9,75.9,118.1,75.9,118.4z M75.1,120.1v-1.2l-0.5,0.2c-0.3,0.1-0.5,0.2-0.6,0.3c-0.1,0.1-0.2,0.2-0.2,0.4
			c0,0.2,0.1,0.3,0.2,0.4s0.2,0.2,0.4,0.2C74.7,120.4,74.9,120.3,75.1,120.1z"/>
		<path fill="#FFFFFF" d="M80,116.8h1l-1.7,2l1.8,2.1h-1l-1.3-1.5l-1.2,1.5h-1l1.7-2l-1.7-2h1l1.2,1.4L80,116.8z"/>
		<path fill="#FFFFFF" d="M82.1,115.1c0.1,0,0.2,0,0.3,0.1s0.1,0.2,0.1,0.3c0,0.1,0,0.2-0.1,0.3s-0.2,0.1-0.3,0.1
			c-0.1,0-0.2,0-0.3-0.1c-0.1-0.1-0.1-0.2-0.1-0.3c0-0.1,0-0.2,0.1-0.3C81.9,115.2,82,115.1,82.1,115.1z M81.7,116.8h0.8v4h-0.8
			V116.8z"/>
		<path fill="#FFFFFF" d="M87,117.9v2.9h-0.8v-2.2c0-0.4-0.1-0.8-0.2-0.9c-0.1-0.2-0.3-0.3-0.6-0.3c-0.2,0-0.3,0-0.5,0.1
			c-0.1,0.1-0.3,0.2-0.5,0.4v2.9h-0.8v-4h0.8v0.5c0.4-0.4,0.8-0.6,1.2-0.6c0.5,0,0.9,0.2,1.2,0.7c0.4-0.5,0.9-0.7,1.3-0.7
			c0.4,0,0.7,0.1,1,0.4c0.3,0.3,0.4,0.7,0.4,1.3v2.4h-0.8v-2.4c0-0.3-0.1-0.6-0.2-0.8s-0.3-0.3-0.6-0.3
			C87.6,117.4,87.3,117.6,87,117.9z"/>
		<path fill="#FFFFFF" d="M93.1,120.9v-0.5c-0.2,0.2-0.4,0.3-0.6,0.4c-0.2,0.1-0.4,0.2-0.7,0.2c-0.3,0-0.5-0.1-0.7-0.2
			c-0.2-0.1-0.4-0.3-0.5-0.5c-0.1-0.2-0.2-0.6-0.2-1.1v-2.3h0.8v2.3c0,0.4,0.1,0.7,0.2,0.9c0.1,0.2,0.3,0.3,0.6,0.3
			c0.4,0,0.7-0.2,1-0.6v-2.9h0.8v4H93.1z"/>
		<path fill="#FFFFFF" d="M94.8,120.6v-0.9c0.2,0.2,0.5,0.3,0.7,0.4c0.2,0.1,0.4,0.1,0.6,0.1c0.2,0,0.3,0,0.4-0.1
			c0.1-0.1,0.2-0.2,0.2-0.3c0-0.1,0-0.2-0.1-0.3c-0.1-0.1-0.2-0.2-0.5-0.3c-0.5-0.3-0.9-0.5-1-0.7c-0.2-0.2-0.2-0.4-0.2-0.7
			c0-0.3,0.1-0.6,0.4-0.8c0.2-0.2,0.6-0.3,0.9-0.3c0.4,0,0.8,0.1,1.2,0.3v0.8c-0.5-0.3-0.9-0.4-1.2-0.4c-0.2,0-0.3,0-0.4,0.1
			c-0.1,0.1-0.1,0.2-0.1,0.3c0,0.1,0,0.2,0.1,0.3s0.2,0.2,0.5,0.3l0.3,0.2c0.7,0.4,1,0.8,1,1.3c0,0.3-0.1,0.6-0.4,0.8
			c-0.3,0.2-0.6,0.3-1,0.3c-0.2,0-0.5,0-0.6-0.1C95.4,120.8,95.1,120.7,94.8,120.6z"/>
		<path fill="#FFFFFF" d="M101.2,114.7h0.8v6.1h-1.7c-0.6,0-1.1-0.2-1.4-0.6c-0.4-0.4-0.5-0.9-0.5-1.5c0-0.6,0.2-1.1,0.6-1.5
			c0.4-0.4,0.9-0.6,1.4-0.6c0.3,0,0.6,0.1,0.9,0.2V114.7z M101.2,120.2v-2.6c-0.2-0.1-0.5-0.2-0.8-0.2c-0.4,0-0.7,0.1-1,0.4
			s-0.4,0.6-0.4,1.1c0,0.4,0.1,0.7,0.3,1c0.1,0.1,0.3,0.2,0.4,0.3c0.1,0,0.4,0.1,0.7,0.1H101.2z"/>
		<path fill="#FFFFFF" d="M105.6,118.4v1.7c0,0.1,0,0.2,0.1,0.2c0.1,0,0.2-0.1,0.5-0.2v0.5c-0.2,0.1-0.3,0.2-0.4,0.2
			c-0.1,0-0.2,0.1-0.3,0.1c-0.3,0-0.5-0.1-0.6-0.4c-0.3,0.3-0.7,0.4-1.1,0.4c-0.3,0-0.5-0.1-0.7-0.3c-0.2-0.2-0.3-0.4-0.3-0.7
			c0-0.3,0.1-0.5,0.3-0.7c0.2-0.2,0.4-0.4,0.8-0.5l1-0.4v-0.2c0-0.5-0.2-0.7-0.7-0.7c-0.4,0-0.9,0.2-1.3,0.7v-0.9
			c0.3-0.4,0.8-0.5,1.3-0.5c0.4,0,0.8,0.1,1.1,0.3c0.1,0.1,0.2,0.2,0.2,0.3c0.1,0.1,0.1,0.2,0.1,0.4
			C105.6,117.9,105.6,118.1,105.6,118.4z M104.8,120.1v-1.2l-0.5,0.2c-0.3,0.1-0.5,0.2-0.6,0.3c-0.1,0.1-0.2,0.2-0.2,0.4
			c0,0.2,0.1,0.3,0.2,0.4s0.2,0.2,0.4,0.2C104.4,120.4,104.6,120.3,104.8,120.1z"/>
		<path fill="#FFFFFF" d="M110.2,117.9v2.9h-0.8v-2.2c0-0.4-0.1-0.8-0.2-0.9c-0.1-0.2-0.3-0.3-0.6-0.3c-0.2,0-0.3,0-0.5,0.1
			c-0.1,0.1-0.3,0.2-0.5,0.4v2.9h-0.8v-4h0.8v0.5c0.4-0.4,0.8-0.6,1.2-0.6c0.5,0,0.9,0.2,1.2,0.7c0.4-0.5,0.9-0.7,1.3-0.7
			c0.4,0,0.7,0.1,1,0.4c0.3,0.3,0.4,0.7,0.4,1.3v2.4H112v-2.4c0-0.3-0.1-0.6-0.2-0.8c-0.1-0.2-0.3-0.3-0.6-0.3
			C110.8,117.4,110.5,117.6,110.2,117.9z"/>
		<path fill="#FFFFFF" d="M113.7,121.9v-0.2c0.1-0.1,0.2-0.3,0.3-0.4c0.1-0.1,0.1-0.3,0.1-0.5c-0.3-0.1-0.5-0.3-0.5-0.6
			c0-0.2,0.1-0.3,0.2-0.4c0.1-0.1,0.2-0.2,0.4-0.2c0.2,0,0.3,0.1,0.4,0.2s0.2,0.4,0.2,0.6c0,0.3-0.1,0.6-0.3,0.9
			S114.1,121.8,113.7,121.9z"/>
		<path fill="#FFFFFF" d="M119.3,116.8h1.5v6.1h-0.8v-2.1c-0.3,0.1-0.6,0.1-0.9,0.1c-0.6,0-1-0.2-1.4-0.6s-0.6-0.9-0.6-1.5
			c0-0.6,0.2-1.1,0.6-1.5S118.7,116.8,119.3,116.8z M120.1,120.1v-2.5h-0.5c-0.3,0-0.6,0-0.7,0c-0.1,0-0.2,0.1-0.3,0.1
			c-0.1,0.1-0.2,0.1-0.2,0.2c-0.2,0.2-0.3,0.6-0.3,0.9c0,0.4,0.1,0.8,0.4,1s0.6,0.4,1,0.4c0.1,0,0.2,0,0.2,0c0.1,0,0.2,0,0.4-0.1
			L120.1,120.1L120.1,120.1z"/>
		<path fill="#FFFFFF" d="M124.5,120.9v-0.5c-0.2,0.2-0.4,0.3-0.6,0.4c-0.2,0.1-0.4,0.2-0.7,0.2c-0.3,0-0.5-0.1-0.7-0.2
			c-0.2-0.1-0.4-0.3-0.5-0.5c-0.1-0.2-0.2-0.6-0.2-1.1v-2.3h0.8v2.3c0,0.4,0.1,0.7,0.2,0.9c0.1,0.2,0.3,0.3,0.6,0.3
			c0.4,0,0.7-0.2,1-0.6v-2.9h0.8v4H124.5z"/>
		<path fill="#FFFFFF" d="M126.8,115.1c0.1,0,0.2,0,0.3,0.1s0.1,0.2,0.1,0.3c0,0.1,0,0.2-0.1,0.3s-0.2,0.1-0.3,0.1
			c-0.1,0-0.2,0-0.3-0.1c-0.1-0.1-0.1-0.2-0.1-0.3c0-0.1,0-0.2,0.1-0.3C126.6,115.2,126.7,115.1,126.8,115.1z M126.4,116.8h0.8v4
			h-0.8V116.8z"/>
		<path fill="#FFFFFF" d="M130.9,118.4v1.7c0,0.1,0,0.2,0.1,0.2c0.1,0,0.2-0.1,0.5-0.2v0.5c-0.2,0.1-0.3,0.2-0.4,0.2
			c-0.1,0-0.2,0.1-0.3,0.1c-0.3,0-0.5-0.1-0.6-0.4c-0.3,0.3-0.7,0.4-1.1,0.4c-0.3,0-0.5-0.1-0.7-0.3c-0.2-0.2-0.3-0.4-0.3-0.7
			c0-0.3,0.1-0.5,0.3-0.7c0.2-0.2,0.4-0.4,0.8-0.5l1-0.4v-0.2c0-0.5-0.2-0.7-0.7-0.7c-0.4,0-0.9,0.2-1.3,0.7v-0.9
			c0.3-0.4,0.8-0.5,1.3-0.5c0.4,0,0.8,0.1,1,0.3c0.1,0.1,0.2,0.2,0.2,0.3c0.1,0.1,0.1,0.2,0.1,0.4
			C130.9,117.9,130.9,118.1,130.9,118.4z M130.2,120.1v-1.2l-0.5,0.2c-0.3,0.1-0.5,0.2-0.6,0.3c-0.1,0.1-0.2,0.2-0.2,0.4
			c0,0.2,0.1,0.3,0.2,0.4c0.1,0.1,0.2,0.2,0.4,0.2C129.7,120.4,129.9,120.3,130.2,120.1z"/>
		<path fill="#FFFFFF" d="M137.4,114.7h0.8v6.1h-1.7c-0.6,0-1.1-0.2-1.4-0.6c-0.4-0.4-0.5-0.9-0.5-1.5c0-0.6,0.2-1.1,0.6-1.5
			c0.4-0.4,0.9-0.6,1.4-0.6c0.3,0,0.6,0.1,0.9,0.2V114.7z M137.4,120.2v-2.6c-0.2-0.1-0.5-0.2-0.8-0.2c-0.4,0-0.7,0.1-1,0.4
			s-0.4,0.6-0.4,1.1c0,0.4,0.1,0.7,0.3,1c0.1,0.1,0.3,0.2,0.4,0.3c0.1,0,0.4,0.1,0.7,0.1H137.4z"/>
		<path fill="#FFFFFF" d="M142.8,118.9h-2.8c0,0.4,0.1,0.7,0.4,0.9s0.5,0.3,0.9,0.3c0.5,0,1-0.2,1.5-0.5v0.8
			c-0.2,0.2-0.5,0.3-0.7,0.4c-0.2,0.1-0.5,0.1-0.9,0.1c-0.4,0-0.8-0.1-1.1-0.3c-0.3-0.2-0.5-0.4-0.7-0.7c-0.2-0.3-0.2-0.7-0.2-1.1
			c0-0.6,0.2-1.1,0.5-1.5c0.3-0.4,0.8-0.6,1.4-0.6c0.5,0,1,0.2,1.3,0.6s0.5,0.9,0.5,1.5V118.9z M140,118.4h2c0-0.3-0.1-0.6-0.3-0.7
			s-0.4-0.3-0.7-0.3s-0.5,0.1-0.7,0.3C140.1,117.9,140,118.1,140,118.4z"/>
		<path fill="#FFFFFF" d="M143.7,114.7h0.8v6.1h-0.8V114.7z"/>
		<path fill="#FFFFFF" d="M146,115.1c0.1,0,0.2,0,0.3,0.1s0.1,0.2,0.1,0.3c0,0.1,0,0.2-0.1,0.3s-0.2,0.1-0.3,0.1
			c-0.1,0-0.2,0-0.3-0.1c-0.1-0.1-0.1-0.2-0.1-0.3c0-0.1,0-0.2,0.1-0.3C145.8,115.2,145.9,115.1,146,115.1z M145.6,116.8h0.8v4h-0.8
			V116.8z"/>
		<path fill="#FFFFFF" d="M147,117.5l1.5-1.5v0.8h1.3v0.7h-1.3v2c0,0.5,0.2,0.7,0.6,0.7c0.3,0,0.6-0.1,0.9-0.3v0.7
			c-0.3,0.2-0.6,0.3-1,0.3c-0.4,0-0.7-0.1-0.9-0.3c-0.1-0.1-0.1-0.1-0.2-0.2c-0.1-0.1-0.1-0.2-0.1-0.3c0-0.1-0.1-0.4-0.1-0.7v-1.8
			L147,117.5L147,117.5z"/>
	</g>
	<g clip-path="url(#SVGID_4_)">
		<path fill="#FFFFFF" d="M0.6,125.5h0.8v6.1H0.6V125.5z"/>
		<path fill="#FFFFFF" d="M3,125.9c0.1,0,0.2,0,0.3,0.1s0.1,0.2,0.1,0.3c0,0.1,0,0.2-0.1,0.3s-0.2,0.1-0.3,0.1c-0.1,0-0.2,0-0.3-0.1
			c-0.1-0.1-0.1-0.2-0.1-0.3c0-0.1,0-0.2,0.1-0.3C2.7,126,2.8,125.9,3,125.9z M2.6,127.6h0.8v4H2.6V127.6z"/>
		<path fill="#FFFFFF" d="M6.4,127.6h1.5v6.1H7.1v-2.1c-0.3,0.1-0.6,0.1-0.9,0.1c-0.6,0-1.1-0.2-1.4-0.6c-0.4-0.4-0.6-0.9-0.6-1.5
			c0-0.6,0.2-1.1,0.6-1.5S5.8,127.6,6.4,127.6z M7.1,130.9v-2.5H6.6c-0.3,0-0.6,0-0.7,0c-0.1,0-0.2,0.1-0.3,0.1
			c-0.1,0.1-0.2,0.1-0.2,0.2c-0.2,0.2-0.3,0.6-0.3,0.9c0,0.4,0.1,0.8,0.4,1s0.6,0.4,1,0.4c0.1,0,0.2,0,0.2,0c0.1,0,0.2,0,0.4-0.1
			L7.1,130.9L7.1,130.9z"/>
		<path fill="#FFFFFF" d="M11.6,131.7v-0.5c-0.2,0.2-0.4,0.3-0.6,0.4c-0.2,0.1-0.4,0.2-0.7,0.2c-0.3,0-0.5-0.1-0.7-0.2
			c-0.2-0.1-0.4-0.3-0.5-0.5c-0.1-0.2-0.2-0.6-0.2-1.1v-2.3h0.8v2.3c0,0.4,0.1,0.7,0.2,0.9c0.1,0.2,0.3,0.3,0.6,0.3
			c0.4,0,0.7-0.2,1-0.6v-2.9h0.8v4H11.6z"/>
		<path fill="#FFFFFF" d="M13.9,125.9c0.1,0,0.2,0,0.3,0.1s0.1,0.2,0.1,0.3c0,0.1,0,0.2-0.1,0.3s-0.2,0.1-0.3,0.1
			c-0.1,0-0.2,0-0.3-0.1c-0.1-0.1-0.1-0.2-0.1-0.3c0-0.1,0-0.2,0.1-0.3C13.7,126,13.8,125.9,13.9,125.9z M13.5,127.6h0.8v4h-0.8
			V127.6z"/>
		<path fill="#FFFFFF" d="M18,129.2v1.7c0,0.1,0,0.2,0.1,0.2c0.1,0,0.2-0.1,0.5-0.2v0.5c-0.2,0.1-0.3,0.2-0.4,0.2
			c-0.1,0-0.2,0.1-0.3,0.1c-0.3,0-0.5-0.1-0.6-0.4c-0.3,0.3-0.7,0.4-1.1,0.4c-0.3,0-0.5-0.1-0.7-0.3c-0.2-0.2-0.3-0.4-0.3-0.7
			c0-0.3,0.1-0.5,0.3-0.7c0.2-0.2,0.4-0.4,0.8-0.5l1-0.4V129c0-0.5-0.2-0.7-0.7-0.7c-0.4,0-0.9,0.2-1.3,0.7v-0.9
			c0.3-0.4,0.8-0.5,1.3-0.5c0.4,0,0.8,0.1,1.1,0.3c0.1,0.1,0.2,0.2,0.2,0.3c0.1,0.1,0.1,0.2,0.1,0.4C18,128.7,18,128.9,18,129.2z
			 M17.2,130.9v-1.2l-0.5,0.2c-0.3,0.1-0.5,0.2-0.6,0.3c-0.1,0.1-0.2,0.2-0.2,0.4c0,0.2,0.1,0.3,0.2,0.4s0.2,0.2,0.4,0.2
			C16.8,131.2,17,131.1,17.2,130.9z"/>
		<path fill="#FFFFFF" d="M18.8,128.3l1.5-1.5v0.8h1.3v0.7h-1.3v2c0,0.5,0.2,0.7,0.6,0.7c0.3,0,0.6-0.1,0.9-0.3v0.7
			c-0.3,0.2-0.6,0.3-1,0.3c-0.4,0-0.7-0.1-0.9-0.3c-0.1-0.1-0.1-0.1-0.2-0.2c0-0.1-0.1-0.2-0.1-0.3c0-0.1-0.1-0.4-0.1-0.7v-1.8
			L18.8,128.3L18.8,128.3z"/>
		<path fill="#FFFFFF" d="M25.8,129.7h-2.8c0,0.4,0.1,0.7,0.4,0.9s0.5,0.3,0.9,0.3c0.5,0,1-0.2,1.5-0.5v0.8
			c-0.2,0.2-0.5,0.3-0.7,0.4c-0.2,0.1-0.5,0.1-0.9,0.1c-0.4,0-0.8-0.1-1.1-0.3c-0.3-0.2-0.5-0.4-0.7-0.7c-0.2-0.3-0.2-0.7-0.2-1.1
			c0-0.6,0.2-1.1,0.5-1.5c0.3-0.4,0.8-0.6,1.4-0.6c0.5,0,1,0.2,1.3,0.6s0.5,0.9,0.5,1.5V129.7z M22.9,129.2h2c0-0.3-0.1-0.6-0.3-0.7
			s-0.4-0.3-0.7-0.3s-0.5,0.1-0.7,0.3C23.1,128.7,23,128.9,22.9,129.2z"/>
		<path fill="#FFFFFF" d="M29.9,128.7v2.9h-0.8v-2.2c0-0.4-0.1-0.8-0.2-0.9c-0.1-0.2-0.3-0.3-0.6-0.3c-0.2,0-0.3,0-0.5,0.1
			c-0.1,0.1-0.3,0.2-0.5,0.4v2.9h-0.8v-4h0.8v0.5c0.4-0.4,0.8-0.6,1.2-0.6c0.5,0,0.9,0.2,1.2,0.7c0.4-0.5,0.9-0.7,1.3-0.7
			c0.4,0,0.7,0.1,1,0.4c0.3,0.3,0.4,0.7,0.4,1.3v2.4h-0.8v-2.4c0-0.3-0.1-0.6-0.2-0.8s-0.3-0.3-0.6-0.3
			C30.5,128.2,30.2,128.4,29.9,128.7z"/>
		<path fill="#FFFFFF" d="M35.9,131.4v-0.9c0.2,0.2,0.5,0.3,0.7,0.4c0.2,0.1,0.4,0.1,0.6,0.1c0.2,0,0.3,0,0.4-0.1s0.2-0.2,0.2-0.3
			c0-0.1,0-0.2-0.1-0.3c-0.1-0.1-0.2-0.2-0.5-0.3c-0.5-0.3-0.9-0.5-1-0.7c-0.2-0.2-0.2-0.4-0.2-0.7c0-0.3,0.1-0.6,0.4-0.8
			c0.2-0.2,0.6-0.3,0.9-0.3c0.4,0,0.8,0.1,1.2,0.3v0.8c-0.5-0.3-0.9-0.4-1.2-0.4c-0.2,0-0.3,0-0.4,0.1c-0.1,0.1-0.1,0.2-0.1,0.3
			c0,0.1,0,0.2,0.1,0.3s0.2,0.2,0.5,0.3l0.3,0.2c0.7,0.4,1,0.8,1,1.3c0,0.3-0.1,0.6-0.4,0.8c-0.3,0.2-0.6,0.3-1,0.3
			c-0.2,0-0.5,0-0.6-0.1C36.4,131.6,36.2,131.5,35.9,131.4z"/>
		<path fill="#FFFFFF" d="M43,129.7h-2.8c0,0.4,0.1,0.7,0.4,0.9s0.5,0.3,0.9,0.3c0.5,0,1-0.2,1.5-0.5v0.8c-0.2,0.2-0.5,0.3-0.7,0.4
			c-0.2,0.1-0.5,0.1-0.9,0.1c-0.4,0-0.8-0.1-1.1-0.3c-0.3-0.2-0.5-0.4-0.7-0.7c-0.2-0.3-0.2-0.7-0.2-1.1c0-0.6,0.2-1.1,0.5-1.5
			c0.3-0.4,0.8-0.6,1.4-0.6c0.5,0,1,0.2,1.3,0.6s0.5,0.9,0.5,1.5V129.7z M40.2,129.2h2c0-0.3-0.1-0.6-0.3-0.7s-0.4-0.3-0.7-0.3
			s-0.5,0.1-0.7,0.3C40.3,128.7,40.2,128.9,40.2,129.2z"/>
		<path fill="#FFFFFF" d="M45.8,127.6h1.5v6.1h-0.8v-2.1c-0.3,0.1-0.6,0.1-0.9,0.1c-0.6,0-1.1-0.2-1.4-0.6c-0.4-0.4-0.6-0.9-0.6-1.5
			c0-0.6,0.2-1.1,0.6-1.5S45.1,127.6,45.8,127.6z M46.5,130.9v-2.5H46c-0.3,0-0.6,0-0.7,0c-0.1,0-0.2,0.1-0.3,0.1
			c-0.1,0.1-0.2,0.1-0.2,0.2c-0.2,0.2-0.3,0.6-0.3,0.9c0,0.4,0.1,0.8,0.4,1s0.6,0.4,1,0.4c0.1,0,0.2,0,0.2,0c0.1,0,0.2,0,0.4-0.1
			L46.5,130.9L46.5,130.9z"/>
		<path fill="#FFFFFF" d="M50.9,131.7v-0.5c-0.2,0.2-0.4,0.3-0.6,0.4c-0.2,0.1-0.4,0.2-0.7,0.2c-0.3,0-0.5-0.1-0.7-0.2
			c-0.2-0.1-0.4-0.3-0.5-0.5c-0.1-0.2-0.2-0.6-0.2-1.1v-2.3h0.8v2.3c0,0.4,0.1,0.7,0.2,0.9c0.1,0.2,0.3,0.3,0.6,0.3
			c0.4,0,0.7-0.2,1-0.6v-2.9h0.8v4H50.9z"/>
		<path fill="#FFFFFF" d="M56.1,127.6v0.5c0.4-0.4,0.8-0.6,1.2-0.6c0.3,0,0.5,0.1,0.7,0.2c0.2,0.1,0.4,0.3,0.5,0.5
			c0.1,0.2,0.2,0.6,0.2,1.1v2.3h-0.8v-2.3c0-0.4-0.1-0.7-0.2-0.9c-0.1-0.2-0.3-0.3-0.6-0.3c-0.4,0-0.7,0.2-1,0.6v2.9h-0.8v-4H56.1z"
			/>
		<path fill="#FFFFFF" d="M61.8,127.6c0.6,0,1.1,0.2,1.5,0.6c0.4,0.4,0.6,0.9,0.6,1.5c0,0.6-0.2,1.1-0.6,1.5
			c-0.4,0.4-0.9,0.6-1.6,0.6c-0.6,0-1.1-0.2-1.5-0.6c-0.4-0.4-0.6-0.9-0.6-1.5c0-0.6,0.2-1.1,0.6-1.5
			C60.6,127.8,61.2,127.6,61.8,127.6z M61.7,128.3c-0.4,0-0.7,0.1-0.9,0.4s-0.4,0.6-0.4,1c0,0.4,0.1,0.7,0.4,0.9
			c0.3,0.2,0.6,0.4,1,0.4c0.4,0,0.7-0.1,1-0.4c0.3-0.2,0.4-0.6,0.4-1c0-0.4-0.1-0.7-0.4-1S62.1,128.3,61.7,128.3z"/>
		<path fill="#FFFFFF" d="M65.6,127.6v0.5c0.4-0.4,0.8-0.6,1.2-0.6c0.3,0,0.5,0.1,0.7,0.2c0.2,0.1,0.4,0.3,0.5,0.5
			c0.1,0.2,0.2,0.6,0.2,1.1v2.3h-0.8v-2.3c0-0.4-0.1-0.7-0.2-0.9c-0.1-0.2-0.3-0.3-0.6-0.3c-0.4,0-0.7,0.2-1,0.6v2.9h-0.8v-4H65.6z"
			/>
		<path fill="#FFFFFF" d="M71.2,128.3l1.5-1.5v0.8H74v0.7h-1.3v2c0,0.5,0.2,0.7,0.6,0.7c0.3,0,0.6-0.1,0.9-0.3v0.7
			c-0.3,0.2-0.6,0.3-1,0.3c-0.4,0-0.7-0.1-0.9-0.3c-0.1-0.1-0.1-0.1-0.2-0.2c0-0.1-0.1-0.2-0.1-0.3c0-0.1-0.1-0.4-0.1-0.7v-1.8
			L71.2,128.3L71.2,128.3z"/>
		<path fill="#FFFFFF" d="M77.4,129.2v1.7c0,0.1,0,0.2,0.1,0.2c0.1,0,0.2-0.1,0.5-0.2v0.5c-0.2,0.1-0.3,0.2-0.4,0.2
			c-0.1,0-0.2,0.1-0.3,0.1c-0.3,0-0.5-0.1-0.6-0.4c-0.3,0.3-0.7,0.4-1.1,0.4c-0.3,0-0.5-0.1-0.7-0.3c-0.2-0.2-0.3-0.4-0.3-0.7
			c0-0.3,0.1-0.5,0.3-0.7c0.2-0.2,0.4-0.4,0.8-0.5l1-0.4V129c0-0.5-0.2-0.7-0.7-0.7c-0.4,0-0.9,0.2-1.3,0.7v-0.9
			c0.3-0.4,0.8-0.5,1.3-0.5c0.4,0,0.8,0.1,1.1,0.3c0.1,0.1,0.2,0.2,0.2,0.3c0.1,0.1,0.1,0.2,0.1,0.4
			C77.3,128.7,77.4,128.9,77.4,129.2z M76.6,130.9v-1.2l-0.5,0.2c-0.3,0.1-0.5,0.2-0.6,0.3c-0.1,0.1-0.2,0.2-0.2,0.4
			c0,0.2,0.1,0.3,0.2,0.4s0.2,0.2,0.4,0.2C76.1,131.2,76.3,131.1,76.6,130.9z"/>
		<path fill="#FFFFFF" d="M78.1,128.3l1.5-1.5v0.8h1.3v0.7h-1.3v2c0,0.5,0.2,0.7,0.6,0.7c0.3,0,0.6-0.1,0.9-0.3v0.7
			c-0.3,0.2-0.6,0.3-1,0.3c-0.4,0-0.7-0.1-0.9-0.3c-0.1-0.1-0.1-0.1-0.2-0.2c0-0.1-0.1-0.2-0.1-0.3c0-0.1-0.1-0.4-0.1-0.7v-1.8
			L78.1,128.3L78.1,128.3z"/>
		<path fill="#FFFFFF" d="M82.1,125.9c0.1,0,0.2,0,0.3,0.1s0.1,0.2,0.1,0.3c0,0.1,0,0.2-0.1,0.3s-0.2,0.1-0.3,0.1
			c-0.1,0-0.2,0-0.3-0.1c-0.1-0.1-0.1-0.2-0.1-0.3c0-0.1,0-0.2,0.1-0.3C81.8,126,81.9,125.9,82.1,125.9z M81.7,127.6h0.8v4h-0.8
			V127.6z"/>
		<path fill="#FFFFFF" d="M86.2,129.2v1.7c0,0.1,0,0.2,0.1,0.2c0.1,0,0.2-0.1,0.5-0.2v0.5c-0.2,0.1-0.3,0.2-0.4,0.2
			c-0.1,0-0.2,0.1-0.3,0.1c-0.3,0-0.5-0.1-0.6-0.4c-0.3,0.3-0.7,0.4-1.1,0.4c-0.3,0-0.5-0.1-0.7-0.3c-0.2-0.2-0.3-0.4-0.3-0.7
			c0-0.3,0.1-0.5,0.3-0.7c0.2-0.2,0.4-0.4,0.8-0.5l1-0.4V129c0-0.5-0.2-0.7-0.7-0.7c-0.4,0-0.9,0.2-1.3,0.7v-0.9
			c0.3-0.4,0.8-0.5,1.3-0.5c0.4,0,0.8,0.1,1.1,0.3c0.1,0.1,0.2,0.2,0.2,0.3c0.1,0.1,0.1,0.2,0.1,0.4
			C86.2,128.7,86.2,128.9,86.2,129.2z M85.4,130.9v-1.2l-0.5,0.2c-0.3,0.1-0.5,0.2-0.6,0.3c-0.1,0.1-0.2,0.2-0.2,0.4
			c0,0.2,0.1,0.3,0.2,0.4s0.2,0.2,0.4,0.2C84.9,131.2,85.2,131.1,85.4,130.9z"/>
		<path fill="#FFFFFF" d="M87.3,131.4v-0.9c0.2,0.2,0.5,0.3,0.7,0.4c0.2,0.1,0.4,0.1,0.6,0.1c0.2,0,0.3,0,0.4-0.1s0.2-0.2,0.2-0.3
			c0-0.1,0-0.2-0.1-0.3c-0.1-0.1-0.2-0.2-0.5-0.3c-0.5-0.3-0.9-0.5-1-0.7c-0.2-0.2-0.2-0.4-0.2-0.7c0-0.3,0.1-0.6,0.4-0.8
			c0.2-0.2,0.6-0.3,0.9-0.3c0.4,0,0.8,0.1,1.2,0.3v0.8c-0.5-0.3-0.9-0.4-1.2-0.4c-0.2,0-0.3,0-0.4,0.1c-0.1,0.1-0.1,0.2-0.1,0.3
			c0,0.1,0,0.2,0.1,0.3s0.2,0.2,0.5,0.3l0.3,0.2c0.7,0.4,1,0.8,1,1.3c0,0.3-0.1,0.6-0.4,0.8c-0.3,0.2-0.6,0.3-1,0.3
			c-0.2,0-0.5,0-0.6-0.1C87.8,131.6,87.6,131.5,87.3,131.4z"/>
		<path fill="#FFFFFF" d="M91.3,130.7c0.1,0,0.3,0.1,0.4,0.2s0.2,0.2,0.2,0.4c0,0.1-0.1,0.3-0.2,0.4s-0.2,0.1-0.4,0.1
			c-0.1,0-0.3,0-0.4-0.1s-0.2-0.2-0.2-0.4c0-0.1,0.1-0.3,0.2-0.4S91.2,130.7,91.3,130.7z"/>
	</g>
</g>
</svg>
