<?xml version="1.0" encoding="utf-8"?>
<!-- Generator: Adobe Illustrator 18.1.1, SVG Export Plug-In . SVG Version: 6.00 Build 0)  -->
<svg version="1.1" id="Layer_1" xmlns="http://www.w3.org/2000/svg" xmlns:xlink="http://www.w3.org/1999/xlink" x="0px" y="0px"
	 viewBox="0 0 83.2 30.1" enable-background="new 0 0 83.2 30.1" xml:space="preserve">
<g>
	<defs>
		<rect id="SVGID_1_" y="0" width="83.2" height="30.1"/>
	</defs>
	<clipPath id="SVGID_2_">
		<use xlink:href="#SVGID_1_"  overflow="visible"/>
	</clipPath>
	<g clip-path="url(#SVGID_2_)">
		<defs>
			<rect id="SVGID_3_" x="0" y="0" width="83.2" height="30.1"/>
		</defs>
		<clipPath id="SVGID_4_">
			<use xlink:href="#SVGID_3_"  overflow="visible"/>
		</clipPath>
		<g opacity="0.5" clip-path="url(#SVGID_4_)">
			<g>
				<defs>
					<rect id="SVGID_5_" x="-9" y="-6.9" width="93.4" height="38"/>
				</defs>
				<clipPath id="SVGID_6_">
					<use xlink:href="#SVGID_5_"  overflow="visible"/>
				</clipPath>
				<polygon clip-path="url(#SVGID_6_)" fill="#231F20" points="11.3,0.1 0,15.7 10.5,30.1 75.4,30.1 75.4,0.1 				"/>
			</g>
		</g>
	</g>
	<g clip-path="url(#SVGID_2_)">
		<path fill="#FFFFFF" d="M18.6,21.3l-0.3-2.6h-1.7l-0.4,2.6H15l1.8-12h1.4l1.7,12H18.6z M17.5,12.1l-0.7,5.3h1.3L17.5,12.1z"/>
		<path fill="#FFFFFF" d="M22.4,10.5v4.1h1.9v1.2h-1.9v5.5h-1.3v-12h3.7v1.2H22.4z"/>
		<path fill="#FFFFFF" d="M28.5,10.5v10.8h-1.3V10.5h-1.6V9.3h4.4v1.2H28.5z"/>
		<path fill="#FFFFFF" d="M31.3,21.3v-12h3.8v1.2h-2.5v4h1.8v1.2h-1.8V20h2.5v1.2H31.3z"/>
		<path fill="#FFFFFF" d="M40.9,21.4c-0.9,0-1.2-0.3-1.2-1.3V17c0-0.6-0.3-1-0.8-1h-1v5.3h-1.3v-12h2.4c1.1,0,2,0.6,2,2.2v2.3
			c0,0.9-0.3,1.5-1,1.7c0.7,0.2,1,0.9,1,1.7V20c0,0.3,0.1,0.5,0.3,0.5v0.9H40.9z M39.6,11.3c0-0.6-0.2-0.8-0.7-0.8h-1v4.4h0.9
			c0.5,0,0.8-0.4,0.8-1V11.3z"/>
		<path fill="#FFFFFF" d="M46.3,21.3l-2-6.1l-0.6-1.9v8h-1.2v-12h1.2l1.9,6.2l0.5,1.9V9.3h1.2v12H46.3z"/>
		<path fill="#FFFFFF" d="M51.2,21.4c-1.4,0-2.3-1-2.3-2.5v-7.3c0-1.4,0.9-2.5,2.3-2.5s2.3,1.1,2.3,2.5v7.3
			C53.5,20.4,52.6,21.4,51.2,21.4z M52.2,11.4c0-0.6-0.4-1.1-1-1.1s-1,0.5-1,1.1v7.7c0,0.6,0.3,1.1,1,1.1s1-0.5,1-1.1V11.4z"/>
		<path fill="#FFFFFF" d="M57.3,21.4c-1.4,0-2.3-1-2.3-2.5v-7.3c0-1.4,0.9-2.5,2.3-2.5s2.3,1.1,2.3,2.5v7.3
			C59.6,20.4,58.7,21.4,57.3,21.4z M58.3,11.4c0-0.6-0.4-1.1-1-1.1s-1,0.5-1,1.1v7.7c0,0.6,0.3,1.1,1,1.1s1-0.5,1-1.1V11.4z"/>
		<path fill="#FFFFFF" d="M65,21.3l-2-6.1l-0.6-1.9v8h-1.2v-12h1.2l1.9,6.2l0.5,1.9V9.3h1.2v12H65z"/>
	</g>
</g>
</svg>
