<?xml version="1.0" encoding="utf-8"?>
<!-- Generator: Adobe Illustrator 18.1.1, SVG Export Plug-In . SVG Version: 6.00 Build 0)  -->
<svg version="1.1" id="Layer_1" xmlns="http://www.w3.org/2000/svg" xmlns:xlink="http://www.w3.org/1999/xlink" x="0px" y="0px"
	 viewBox="0 0 32.4 12.3" enable-background="new 0 0 32.4 12.3" xml:space="preserve">
<g>
	<defs>
		<rect id="SVGID_1_" x="0" y="0" width="32.4" height="12.3"/>
	</defs>
	<clipPath id="SVGID_2_">
		<use xlink:href="#SVGID_1_"  overflow="visible"/>
	</clipPath>
	<g clip-path="url(#SVGID_2_)">
		<defs>
			<rect id="SVGID_3_" x="0" y="0" width="32.4" height="12.3"/>
		</defs>
		<clipPath id="SVGID_4_">
			<use xlink:href="#SVGID_3_"  overflow="visible"/>
		</clipPath>
		<g opacity="0.75" clip-path="url(#SVGID_4_)">
			<g>
				<defs>
					<rect id="SVGID_5_" x="-17" y="-1.6" width="66.4" height="15"/>
				</defs>
				<clipPath id="SVGID_6_">
					<use xlink:href="#SVGID_5_"  overflow="visible"/>
				</clipPath>
				<line clip-path="url(#SVGID_6_)" fill="none" stroke="#FFFFFF" stroke-width="0.954" x1="32.4" y1="11.8" x2="0" y2="11.8"/>
			</g>
		</g>
		<path clip-path="url(#SVGID_4_)" fill="#FFFFFF" d="M30.3,7.4c0.6,0,1.1-0.3,1.5-0.9V3.7h-1.7v0.7h1v1.9c-0.2,0.3-0.4,0.4-0.8,0.4
			c-0.7,0-1-1.2-1-3c0-1.8,0.3-3,1-3c0.5,0,0.7,0.4,0.8,0.9l0.7-0.3C31.6,0.6,31.2,0,30.3,0c-1.3,0-1.9,1.5-1.9,3.7
			C28.5,5.9,29,7.4,30.3,7.4 M27.1,7.3V0.1h-0.8V5l-1.7-4.9h-0.8v7.2h0.8v-5l1.8,5H27.1z M22.2,0.1h-0.8v7.2h0.8V0.1z M19.8,7.3V0.1
			H19V5l-1.7-4.9h-0.8v7.2h0.8v-5l1.8,5H19.8z M13.2,3.7h-0.6V0.8h0.6c0.6,0,1,0.6,1,1.4S13.9,3.7,13.2,3.7 M15.1,7.3L14,4.2
			c0.4-0.2,1-0.7,1-2c0-1.3-0.7-2.1-1.7-2.1h-1.5v7.2h0.8V4.4h0.6l0.9,2.9H15.1z M8.6,6.7c-0.8,0-1-1.4-1-3c0-1.6,0.3-3,1-3
			c0.8,0,1,1.4,1,3C9.6,5.3,9.4,6.7,8.6,6.7 M8.6,7.4c1.4,0,1.9-1.7,1.9-3.7C10.5,1.7,9.9,0,8.6,0C7.2,0,6.7,1.7,6.7,3.7
			C6.7,5.8,7.2,7.4,8.6,7.4 M5.3,7.3V0.1H4.3L3,4.9L1.8,0.1H0.7v7.2h0.8V1.9l1.4,5.4h0.3l1.4-5.4v5.4H5.3z"/>
	</g>
</g>
</svg>
