<?xml version="1.0" encoding="utf-8"?>
<!-- Generator: Adobe Illustrator 18.1.1, SVG Export Plug-In . SVG Version: 6.00 Build 0)  -->
<svg version="1.1" id="Layer_1" xmlns="http://www.w3.org/2000/svg" xmlns:xlink="http://www.w3.org/1999/xlink" x="0px" y="0px"
	 viewBox="0 0 74.1 30.1" enable-background="new 0 0 74.1 30.1" xml:space="preserve">
<g>
	<defs>
		<rect id="SVGID_1_" y="0" width="74.1" height="30.1"/>
	</defs>
	<clipPath id="SVGID_2_">
		<use xlink:href="#SVGID_1_"  overflow="visible"/>
	</clipPath>
	<g clip-path="url(#SVGID_2_)">
		<defs>
			<rect id="SVGID_3_" x="0" y="0" width="74.1" height="30.1"/>
		</defs>
		<clipPath id="SVGID_4_">
			<use xlink:href="#SVGID_3_"  overflow="visible"/>
		</clipPath>
		<g opacity="0.5" clip-path="url(#SVGID_4_)">
			<g>
				<defs>
					<rect id="SVGID_5_" x="-9" y="-6.9" width="92.1" height="38"/>
				</defs>
				<clipPath id="SVGID_6_">
					<use xlink:href="#SVGID_5_"  overflow="visible"/>
				</clipPath>
				<polygon clip-path="url(#SVGID_6_)" fill="#231F20" points="11.1,0.1 0,15.7 10.3,30.1 74.1,30.1 74.1,0.1 				"/>
			</g>
		</g>
	</g>
	<g clip-path="url(#SVGID_2_)">
		<path fill="#FFFFFF" d="M30,21.3l-2-6.1l-0.6-1.9v8h-1.2v-12h1.2l1.9,6.2l0.5,1.9V9.3H31v12H30z"/>
		<path fill="#FFFFFF" d="M32.6,21.3v-12H34v12H32.6z"/>
		<path fill="#FFFFFF" d="M39.6,21.3l-0.3-0.7c-0.3,0.6-0.9,0.9-1.6,0.9c-1.2,0-2.1-0.9-2.1-2.5v-7.4c0-1.4,0.9-2.5,2.3-2.5
			c1.4,0,2.2,1,2.2,2.5v1.6h-1.2v-1.8c0-0.5-0.3-1-1-1c-0.7,0-1,0.5-1,1v7.8c0,0.6,0.3,1.1,1,1.1c0.7,0,1-0.5,1-1.1v-2.7h-1v-1.1
			h2.2v6H39.6z"/>
		<path fill="#FFFFFF" d="M45,21.3v-5.3h-2v5.3h-1.3v-12H43v5.4h2V9.3h1.3v12H45z"/>
		<path fill="#FFFFFF" d="M50.4,10.5v10.8h-1.3V10.5h-1.6V9.3h4.4v1.2H50.4z"/>
	</g>
</g>
</svg>
